<?xml version="1.0" encoding="UTF-8"?>
<svg id="Layer_1" xmlns="http://www.w3.org/2000/svg" version="1.1" viewBox="0 0 595.28 841.89">
  <!-- Generator: Adobe Illustrator 30.2.1, SVG Export Plug-In . SVG Version: 2.1.1 Build 1)  -->
  <defs>
    <style>
      .st0 {
        fill: #e69722;
      }

      .st1 {
        fill: #f6b63b;
      }

      .st2 {
        fill: #db8811;
      }

      .st3 {
        fill: #eb9d1a;
      }

      .st4 {
        fill: #e18a17;
      }

      .st5 {
        fill: #f9be43;
      }

      .st6 {
        fill: #fdc649;
      }

      .st7 {
        fill: #f0b228;
      }

      .st8 {
        fill: #efa830;
      }

      .st9 {
        fill: #e49419;
      }

      .st10 {
        fill: #f4be2f;
      }

      .st11 {
        fill: #f0cc7a;
      }
    </style>
  </defs>
  <g>
    <path class="st8" d="M194.85,494.48c-1.62,3.14-.63,6.86,1.33,9.81,4,6.03,8.91,5.36,11.03,7.76,2.97,3.38,6.67,5.33,9.99,8.24l6.29,5.51c3.71,3.25,8.8,4.86,12.43,8.17,3.32,3.02,6.24,5.24,11.11,5.27,1.61,0,3.42,1.33,5.33.81,2.8-.77,11.18-2.08,11.3,1.87.84,3.03-2.22,16.48-5.74,17.04-3.57-.56-8.69,1.7-13.25.05-3.29-1.19-5.47-4.15-8.02-6.29-3.42-2.87-8.31-2.77-11.7-4.05-6.26-14.49-25.42-23.61-38.84-30.52,1.07-13.45-4.5-5.08-9.46-16.79-1.23-2.91-4.1-4.81-5.61-7.54-1.38-3.53-1.3-7.3-2.24-10.97s-6.14-5.4-3.04-11.31c3.94,3.93,8.34,7.34,12.97,10.83l16.12,12.13v-.02Z"/>
    <path class="st5" d="M376.27,497.49c-.04-.27-.09-.58-.21-.92-.22-.64-7.45.44-12.48,6.99-1.88,2.45-4.14,4.19-6.61,5.94l-12.8,9.09c-2,1.42-4.38,2.48-6.73,3.23-.14.04-10.5,6.73-15.5,6.77-4.49.04-8.2-1.25-12.4,1.16-1.34.77-3.63.54-5.01,1,.84-3.08,0-6.87,2.3-9.49.47-.54.83-1.09.63-1.88.39-.7.45-1.62.77-2.36,17.52-.7,5.23,6.46,21.43.76,2.64-.93,5.21-1.49,7.8-2.91,4.15-2.28,8.63-4.58,12.3-7.65s6.39-6.48,10.73-8.77c2.83-1.49,5.41-3.57,7.42-6.21,2.15-2.84,5.35-4.85,7.26-7.79,2.12-3.24,5.13-6.32,7.76-9.2.85-5.25-.22-11.44,3.68-15.69l5.94-6.49,9.57-12.33c1.59-2.05,3.95-2.85,6.13-4.74,1.91-1.66,7.73-2.8,9.67-.95,5.15,7.11-7.9,27.55-12.96,32.96-3.06,3.27-5.65,6.69-9.46,9.26-2.48,1.67-4.28,4.09-6.59,5.9-5.22,4.1-9.4,8.78-12.63,14.31h-.01Z"/>
    <path class="st6" d="M262.95,520.69c-.99-.85-2.07-2.9-3.55-2.4l-5.1,1.71c-3.65,1.22-7.91-.21-11.88.14-2.17.19-3.31-2.14-4.9-2.73-5.06-1.87-8.65-5.16-12.81-8.42-2.68-2.1-5.45-3.41-7.35-6.54-1.11-1.83-3.27-3.19-5.26-3.99-3.12-4.25-6.65-7.85-10.2-11.7-1.91-2.07-2.47-4.95-4.17-7.14-2.74-3.52-5.53-6.94-8.63-10.1s-3.18-9.79-2.44-13.33c3.73,2.83,7.02,6.28,11.25,8.88l15.9,9.78,13.56,7.61c14.06,7.89,31.69,22.5,35.57,38.23h.01Z"/>
    <path class="st0" d="M165.76,471.52c-3.11,5.91,2.14,7.81,3.04,11.31.94,3.68.86,7.45,2.24,10.97,1.5,2.73,4.37,4.63,5.61,7.54,4.97,11.71,10.53,3.34,9.46,16.79-9.71-4.99-19.34-10.36-28.15-16.8-1.66-3.84.91-8.94-2.11-12.43-2.38-2.76-5.35-5.52-6.4-9.17-1.95-6.77-4.71-15.16-8.31-21.11-2.69-4.45-1.2-15.08-4.94-19.41-1.36-1.58-2.76-2.77-3.25-4.97-.93-4.21-1.72-8.41-2.89-12.66-.96-3.48-3.68-6.12-5-9.37-1.04-2.56-2.27-3.63-5.48-5.35,13.38-6.03,1.21-32.03.98-29.89.05-.47-.43-1.41.47-1.46,2.06,1.66,3.93,3.91,5.44,6.43.86,1.44,5.09,10.76,5.29,11.5,3.97,14.82,5.56,32.63,12.16,45.45,1.85,3.59,3.62,7.12,6.1,10.2,6.41,7.98,6.18,12.9,15.73,22.43h0Z"/>
    <path class="st8" d="M370.04,525.56l-16.11,9.57c-3.06,1.82-5.24,4.31-7.99,6.41-3.76,2.87-6.12,6.77-7.96,10.89-4.23-.4-3.32,4.9-7.34,4.52-5.54-.52-10.83.88-15.12,4.33-.75.6-1.6.77-2.32.75-1.96-.41-2.36-2.69-3.4-4.27-2.6-3.94-3.73-7.97-4.83-12.11-.73-2.66.85-3.79,2.82-5.3,11.61-8.94,6.68,1.59,26.89-9.46,4.91-2.69,10.07-4.96,14.16-8.91,2.54-2.45,5.69-4.21,9.07-5.34,2.84-.95,4.38-3.57,6.44-5.42,1.92-1.74,3.95-3.02,5.24-5.48,1.57-3,3.76-5.97,6.69-7.62s5.71-4.02,8.75-6.27c.82-.6,1.95-.75,2.59-1.24-3.06,11.65.41,10.86-6.23,22.02-1.46,2.45-3.36,3.9-5.47,5.76l-5.96,5.24c-.33.29-.3.81-.45,1.11-.19.36,0,.74.54.83h-.01Z"/>
    <path class="st6" d="M308.23,517.03c3.53-8.14,9.71-14.93,16.94-20.58,7.89-6.16,16.65-10.43,25.39-15.27l16.95-9.37c6.23-3.45,12.04-7.33,17.62-11.7,2.81-2.2,4.62-5.21,7.4-7.02l-5.94,6.49c-3.89,4.25-2.83,10.44-3.68,15.69-2.62,2.87-5.64,5.95-7.76,9.2-1.92,2.94-5.11,4.95-7.26,7.79-2,2.64-4.58,4.72-7.42,6.21-4.34,2.28-7.12,5.75-10.73,8.77s-8.15,5.37-12.3,7.65c-2.59,1.42-5.16,1.98-7.8,2.91-16.2,5.7-3.91-1.46-21.43-.76h.02Z"/>
    <path class="st0" d="M436.21,427.38c-.04,2.53-.45,5.26.74,7.55-.38.55-.45,1.26-.63,1.88-.07.24-.75.36-.52.77.13.24.41.33.52.48.38.54.47,1.2.41,1.84-3.1-1.17-1.09,11.61-4.59,17.73-2.05,3.58-4.14,6.61-3.29,11.12.6,3.18-1.44,5.39-3.49,7.1l-4.16,3.46c-2.66,2.21-3.87,5.58-6.33,8.03s-6.08,4.26-7.5,7.48c-2.14,4.86-2.82,12.1-4.9,14.46-1.61.8-2.75,2.07-4.67,3.01l-19.59,9.65c-2.78,1.37-5.73,2.15-8.19,3.62-.54-.09-.73-.46-.54-.83.16-.31.12-.82.45-1.11l5.96-5.24c2.11-1.85,4.01-3.31,5.47-5.76,6.64-11.16,3.16-10.37,6.23-22.02l15.56-11.83c3.76-.15,5.49-2.35,7.71-4.89,1.48-1.7,2.6-3.08,3.83-5.18,1.62-2.79,5.16-5.06,3.48-8.75,1.3-2.26,1.98-5.14,3.13-7.51.26-.15.47-.37.63-.63l.63-2.5c.28-.1.55-.33.63-.63.05-.19,0-.43,0-.63.53-.18.64-.75.68-1.25.02-.2-.03-.42,0-.63.24-.1.56-.34.56-.63v-1.25c.55-.15.63-.75.63-1.25v-.63c.8-.25.63-1.21.63-1.88v-4.38c1.87.5,3.53-.55,5.06-1.73,5.42-4.18,2.57-6,5.45-7.08v.04Z"/>
    <path class="st4" d="M116.67,373.01c1.69.11,3.11,1.48,4.38,2.5-.9.05-.42.99-.47,1.46.23-2.14,12.4,23.86-.98,29.89,3.21,1.73,4.44,2.79,5.48,5.35,1.31,3.25,4.04,5.89,5,9.37,1.17,4.24,1.96,8.45,2.89,12.66.49,2.2,1.88,3.39,3.25,4.97,3.73,4.33,2.25,14.96,4.94,19.41,3.6,5.95,6.36,14.34,8.31,21.11,1.05,3.65,4.02,6.42,6.4,9.17,3.02,3.5.45,8.59,2.11,12.43-.97-.71-1.84-2.02-2.95-2.69-2.78-1.67-4.2-4.03-6.33-6.21-5.92-6.06-10.09-12.9-14.18-20.3-7.68-13.88-14.79-29.7-14.7-45.33l.05-9.42c0-.64-.47-.98-.68-1.22-1.34-1.5-.63-3.74-.63-5.63.75-.02.64-.9.67-1.53.02-.45-.41-.62-.67-.97-.77-1.08-.63-2.48-.63-3.75.5.1.78-.31.54-.78-.1-.2-.41-.27-.54-.47-.35-.55-.63-1.22-.63-1.88,1.09.45,1.47-.68,1.25-1.47-.13-.47-.75-.8-1.25-1.03v-.63c.6-.49.81-1.34.56-2.34l-1.67-6.57c-.22-.85-.75-1.28-1.4-1.1-.12-.38.09-.86,0-1.25.7-.47.38-1.24.24-1.74-.25-.91-.6-1.57-1.49-1.38l-.63-2.5c-.12-.47-.06-1.06-.63-1.25v-.63c1.78-1.06-1.22-4.71.35-6.06.44-.38,1.48-.14,2.16-.82.18-.04.44.03.63,0v.92c0,.29.54.41.88.34.22-.04.45-.28.37-.64h0Z"/>
    <path class="st5" d="M186.67,456.18c-.74,3.54-.64,10.2,2.44,13.33s5.89,6.59,8.63,10.1c1.7,2.19,2.26,5.07,4.17,7.14,3.55,3.85,7.08,7.45,10.2,11.7,2,.8,4.15,2.16,5.26,3.99,1.9,3.13,4.67,4.44,7.35,6.54,4.16,3.26,7.75,6.55,12.81,8.42,1.59.59,2.73,2.93,4.9,2.73,3.97-.35,8.24,1.08,11.88-.14l5.1-1.71c1.47-.49,2.56,1.55,3.55,2.4.09.36.09.83.1,1.2.03.68-.17,1.59.63,1.88.03,1.4-.04,3.08.63,4.38.03,1.44,0,2.89-.18,4.32-6.44-1.26-16.99.4-22.95-3.74-5.65-3.93-10.7-8.14-16.73-11.55-1.81-1.02-3.86-2.44-5.23-3.91-4.4-4.75-8.25-4.11-11.77-9.57-1.93-2.98-4.05-5.05-6.9-6.58.06.91.73.91.66,1.13-.13.38-.7.74-1.01.53-.19-.13-.27-.4-.32-.65.03-.44.17-1.07-.16-1.68-4.17-7.42-10.19-13.02-16.51-18.53l-6.35-5.54c-1.95-1.7-3.74-2.96-5.09-4.91,1.45-2.85-.5-5.37-1.03-8.32-1.21-6.73,1.32-17.5-1.59-21.02,5.63,4.61,10.39,10.23,15.88,15.41.81.77.94,2.1,1.65,2.64h-.02Z"/>
    <path class="st4" d="M471.92,397.91c-1.89-.05-3.86-3.26-5.57-4.19.05-.21-.1-.51,0-.7.21-.18.52-.35.63-.63,4.25-10.95,11.76-20.1,20.03-28.68l13.56-14.1c5.19-5.4,7.48-12.46,10.95-19.64,2.84,11.12.43,24.36-4.91,33.91-4.27,7.62-10.8,13.29-17.64,18.64-3.9,3.05-8.45,5.08-11.33,9.24-1.66,2.4-4.05,4.06-5.71,6.15h-.01Z"/>
    <path class="st1" d="M199.87,498.12c.05.25.13.52.32.65.31.21.89-.15,1.01-.53.07-.22-.6-.21-.66-1.13,2.86,1.53,4.98,3.6,6.9,6.58,3.52,5.46,7.37,4.83,11.77,9.57,1.36,1.47,3.42,2.88,5.23,3.91,6.02,3.42,11.08,7.63,16.73,11.55,5.95,4.14,16.51,2.47,22.95,3.74.3,2.3.16,4.62.18,6.94.14.86-.09,1.87-.64,2.5-.12-3.95-8.5-2.64-11.3-1.87-1.91.52-3.72-.8-5.33-.81-4.86-.03-7.79-2.25-11.11-5.27-3.63-3.3-8.73-4.92-12.43-8.17l-6.29-5.51c-3.32-2.91-7.01-4.86-9.99-8.24-2.11-2.4-7.03-1.73-11.03-7.76-1.96-2.95-2.95-6.67-1.33-9.81,1.47,1.1,3.7,1.99,5.02,3.64v.02Z"/>
    <path class="st4" d="M436.73,439.91c-.04.41.33.89.22,1.28-.74.02-.69.92-.65,1.53.02.34.05,1.05.65.97-.88,1.9-.49,3.97-.61,6.31-.39,7.37-2.02,14.38-4.29,21.41-1.27,3.93-3.8,7.33-5.67,10.91,2.39,3.29,12.9-20.56,13.09-21.11.59,0,.46-.87.61-1.26.24-.38.07-1.25.76-1.37.49-.08,1.17.01,1.42-.49-.12.23.03-4.13-.11-4.4-.08-.15.04-.4,0-.57.72-.3.26-1.33.42-1.93.19-.75-.29-1.8,0-2.5,1.49-.72,3.01,5.91,2.98,6.16-.22,1.41-.43,2.24.12,3.21.34,1.66-1.71,3.07-2.19,4.63-1.95,6.33-4.93,11.73-8.4,17.23-1.5,2.37-2.69,4.54-4.66,6.63l-6.7,7.1c-4.51,4.78-9.57,8.34-15.14,11.78-2.2,1.36-3.99,2.79-6.1,3.84,2.08-2.36,2.77-9.6,4.9-14.46,1.42-3.22,5.06-5.05,7.5-7.48s3.67-5.82,6.33-8.03l4.16-3.46c2.05-1.71,4.09-3.92,3.49-7.1-.85-4.51,1.25-7.54,3.29-11.12,3.5-6.12,1.48-18.9,4.59-17.73v.02Z"/>
    <path class="st1" d="M376.27,497.49v.63c-2.93,1.65-5.12,4.62-6.69,7.62-1.29,2.47-3.31,3.74-5.24,5.48-2.05,1.85-3.59,4.48-6.44,5.42-3.38,1.13-6.53,2.89-9.07,5.34-4.09,3.95-9.25,6.22-14.16,8.91-20.21,11.05-15.28.52-26.89,9.46-1.97,1.52-3.55,2.65-2.82,5.3-1.33-4.95-1.8-9.87-.42-14.91,1.38-.46,3.67-.23,5.01-1,4.2-2.42,7.91-1.12,12.4-1.16,5-.05,15.36-6.73,15.5-6.77,2.35-.74,4.73-1.81,6.73-3.23l12.8-9.09c2.46-1.75,4.73-3.49,6.61-5.94,5.03-6.55,12.25-7.64,12.48-6.99.12.34.16.66.21.92h0Z"/>
    <path class="st4" d="M473.86,417.42c-1.74.45-3.44-.37-4.9-1.3,2.5-3.46,5.81-5.77,8.75-8.59,2.65-2.53,5.04-4.84,7.85-7.26,7.82-6.73,18.25-9.66,28.6-8.16,4.1.59,8.34.52,12.14,3.61-12.67,2.24-24.41,5.89-35.51,11.66-6.04,3.14-11.68,6.16-16.92,10.04h0Z"/>
    <path class="st4" d="M247.33,571.93c-1.85,1.5-3.71,3.29-6.04,4.64-8.48,4.91-17.67,8.41-27.97,9.91,3.8-3.55,6.27-7.08,8.81-11.09,2.36-3.72,3.03-7.59,4.01-11.6.6-2.49.76-4.93.77-7.61,2.78,1.7,6.49,2.85,8.93,5.39,2.58,2.68,4.45,5.15,8.36,6.22,1.89.52,3.55,2.29,3.13,4.13h0Z"/>
    <path class="st1" d="M436.93,399.23c-.67,1.73-1.88,3.81-2.12,5.89-.87,7.48-5.03,25.64-12.85,27.82-.43-.71-1.22-1.08-1.27-2.42-.44-10.96,1.3-21.67,4.74-32.03,1.76-5.29,6.53-8.78,12.1-7.89l.11,6.85c.02.95-.53,1.3-.71,1.77h0Z"/>
    <path class="st1" d="M464.38,377.29c-.22,1.06-.48,2.15-.96,3.5l-4.79,13.33c-2.45,6.82-5.3,15.11-6.61,22.15-.55,2.96-1.6,5.69-1.79,8.85-.11,1.84-.29,3.72-1.48,4.87-.47-.03-1.97-.13-1.97.73,0,1.37-.88,2.16-1.08,2.98,1.81-16.91,4.51-33.71,8.11-50.62.69-3.24,4.15-15.59,5.67-17.56.14,2.13,2.22,12.79,4.9,11.78h0Z"/>
    <path class="st4" d="M158.58,414.3v15.01c2.28.58-7.85,4.56-7.97,4.32l-.25-19.29c-.02-1.48-.72-2.83-.61-4.41,1.1-15.78-7.97-24.86-.69-21.83s8.52,20.21,9.52,26.19h0Z"/>
    <path class="st8" d="M475.6,334.9l-.63,6.63c-.18,1.87-3.17,14.45-4.27,17.05-1.91,4.54-3.79,13.73-6.32,18.7-2.68,1.01-4.76-9.65-4.9-11.78-.02-.37-.12-.9-.01-1.25,1.6.87,2.87-5.04,1.88-5,2.09-7.55,4.14-15.42,7.03-22.66,2.65.74,4.88-.47,7.22-1.69Z"/>
    <path class="st0" d="M445.67,458.07c-.55-.98-.34-1.81-.12-3.21.04-.25-1.49-6.88-2.98-6.16,1.98-4.78,1.92-10.03,3.13-15.01.2-.82,1.08-1.61,1.08-2.98,0-.86,1.5-.76,1.97-.73.31,1.45-.57,2.94.09,4.33-1.01,1.66-1.6,3.78-1,5.74,1.62-1.47.97-3.19,1.62-4.49.48-.96.29-2.17.63-3.13,1-.06,2.13.18,2.43,1.24.48,2.55-2.43,4.62-2.34,10.35,3.98-2.61,6.22-6.37,9.82-9.13,4.09-3.14,8.47-5.55,13.44-7.36,2.98-1.08,20.9-4.45,20.46.66-4.9-.61-9.29-.62-13.83,1.07-12.42,4.63-23.18,10.32-30.15,22.33-1.37,2.37-2.44,4.73-4.24,6.46v.02Z"/>
    <path class="st1" d="M169.14,438.13c2.91,3.52.38,14.29,1.59,21.02.53,2.95,2.48,5.47,1.03,8.32-1.05-1.51-2.89-2.67-3.79-4.38-.42-.8-.99-1.55-1.87-1.89-.97-2.12-2.89-3.68-4.21-5.79-1.89-3.01-3.4-6.16-4.98-9.38-1.4-2.87-2.25-6.31-.86-9.21.64-1.34,7.84-2.99,13.09,1.31h0Z"/>
    <path class="st0" d="M257.92,558.94c-.25,4.53-7.39,10.4-10.59,12.99.42-1.83-1.23-3.61-3.13-4.13-3.91-1.07-5.78-3.53-8.36-6.22-2.44-2.54-6.16-3.69-8.93-5.39,0-.85.09-1.96-.77-2.4,0-1.48-.61-3.79-1.2-5.14,3.39,1.28,8.28,1.17,11.7,4.05,2.55,2.14,4.73,5.1,8.02,6.29,4.56,1.65,9.68-.61,13.25-.05h.01Z"/>
    <path class="st0" d="M133.56,387.31c1.75-2.41,4.72-.44,6.18-4.29,2.66,6.4,3.98,12.85,5.56,19.53,1.86,7.83,2.31,16.03.19,24.24-3.24-8.08-5.18-15.52-7.34-23.27-1.57-5.61-3.51-10.8-4.59-16.22h0Z"/>
    <path class="st8" d="M471.92,397.91l-2.17,3.5c-2.22,3.58-4.77,6.95-6.72,10.79-1.11,2.18-1.69,4.62-3.33,6.66s-5.11,13.25-7.18,14.82c-.3-1.06-1.44-1.31-2.43-1.24l5.34-15.38c2.86-8.25,6.65-16.06,10.94-23.34,1.71.93,3.67,4.14,5.57,4.19h-.02Z"/>
    <path class="st4" d="M334.76,562.5c-.04,8.16,2.22,15.47,7.66,23.1-8.88-3.3-16.32-8.7-22.44-15.02,1.75-1.66,4.04-2.47,6.45-3.47,3.04-1.26,5.39-3.67,8.33-4.6h0Z"/>
    <path class="st0" d="M337.98,552.44c-.76,1.7-3.2,8.3-3.21,10.05-2.94.94-5.29,3.35-8.33,4.6-2.41,1-4.7,1.81-6.45,3.47-2.46-2.54-6.07-4.71-6.79-8.52.72.03,1.56-.14,2.32-.75,4.29-3.45,9.59-4.85,15.12-4.33,4.02.38,3.12-4.92,7.34-4.52h0Z"/>
    <path class="st1" d="M476.36,319.21v9.38c0,2.41-.56,4.17-.76,6.3-2.34,1.22-4.57,2.43-7.22,1.69l1.65-11.66c.58-4.1.7-15.53.7-19.47v-5.67c0-.65.11-1.26.63-1.21,1.91,2.87,4.64,16.65,5,20.64Z"/>
    <path class="st8" d="M436.95,406.79c-.48-.05-.64.57-.64,1.22v6.29c-1.07,1.66-1.07,4.6.01,6.26l-.12,6.83c-2.88,1.08-.03,2.9-5.45,7.08-1.53,1.18-3.19,2.23-5.06,1.73-1.71-.46-2.88-1.83-3.73-3.25,7.82-2.19,11.98-20.34,12.85-27.82.24-2.08,1.45-4.16,2.12-5.89l.02,7.56h0Z"/>
    <path class="st4" d="M139.75,383.02c-1.46,3.84-4.44,1.88-6.18,4.29l-2.9-7.03c-1.71-4.21-3.65-7.97-6.79-11.61,11.64-3.56,13.61,8.91,15.87,14.35h0Z"/>
    <path class="st6" d="M439.45,330.5c-1.75-.39-.78,2.12-1.47,2.9-2.62,2.94-5.99,5.2-9.16,7.05-1.75-.93-1.72-2.67-1.92-4.3-.45-3.62,1.1-6.42,4.53-7.53,2.91-.94,6.36-.63,8.02,1.88h0Z"/>
    <path class="st8" d="M439.45,330.5c4.03,1.93,3.12,7.41.33,10.67-2.22,2.59-9.81,2.98-10.97-.72,3.17-1.85,6.54-4.11,9.16-7.05.69-.78-.28-3.29,1.47-2.9h.01Z"/>
    <path class="st8" d="M166.59,416.91c5.52,7.17,3.57,10.29,3.24,18.15-1.83-.37-2.62-1.41-4.39-2.32.49-5.52-1.18-11.19-2.41-16.78.67-1.15,2.71-.16,3.56.94h0Z"/>
    <path class="st8" d="M473.86,417.42c-3.68,2.73-9.08,8.55-10.13,9.33-2.73,2.03-6.66,10.03-9.66,10.74-.39-4.64,11.78-18.86,14.89-21.37,1.46.93,3.17,1.75,4.9,1.3h0Z"/>
    <path class="st0" d="M476.39,467.47c.49,2.33-6.17,8.98-6.29,10.63-3.81-1.71-4.71-6.21-2.72-9.37,1.83-2.9,6.61-3.73,9.01-1.25h0Z"/>
    <path class="st5" d="M183.48,560.53c.04-2.25-3.62-3.08-5.88-8.72-.38-.94-.49-1.76-1.5-1.73,2.98-1.97,7.82-1.89,9.98,1.21,1.19,1.7.83,4.8.37,6.55-.42,1.58-2.03,2.13-2.97,2.69h0Z"/>
    <path class="st8" d="M183.48,560.53c-2.77,1.66-5.3,1.85-7.59-.32-1.64-1.55-2.56-3.12-2.39-5.46.13-1.78.59-3.85,2.59-4.67,1.01-.03,1.12.79,1.5,1.73,2.27,5.64,5.92,6.47,5.88,8.72h0Z"/>
    <path class="st5" d="M470.1,478.1c.12-1.65,6.77-8.3,6.29-10.63,2.46.44,3.07,2.24,3.24,4.32.29,3.53-1.32,6.03-4.91,6.64-1.61.28-3.32.63-4.62-.34h0Z"/>
    <path class="st8" d="M403.17,478.78c4.42-3.36,11.84-13.31,15.01-18.82,1.68,3.69-1.85,5.96-3.48,8.75-1.23,2.11-2.34,3.49-3.83,5.18-2.22,2.54-3.95,4.74-7.71,4.89h0Z"/>
    <path class="st4" d="M125.55,498.85c-.32,2.83-2.64,4.05-.75,7.94-1.95,1.34-4.2.38-5.23-1.19s-.82-3.43,0-5.31c1.08-2.46,3.93-1.84,5.97-1.44h.01Z"/>
    <path class="st8" d="M124.81,506.79c-1.89-3.89.43-5.1.75-7.94,4.11.81,2.26,6.91,1.5,7.46-.55.4-1.42.56-2.24.48h0Z"/>
    <path class="st6" d="M436.95,434.94c-1.19-2.3-.79-5.02-.74-7.55l.12-6.83v-12.55c-.01-.65.15-1.26.63-1.22v28.15h-.01Z"/>
    <path class="st0" d="M117.3,398.03c-1.27-3.21-1.46-6.72-2.5-10.01.65-.18,1.18.25,1.4,1.1l1.67,6.57c.25,1,.04,1.85-.56,2.34h-.01Z"/>
    <path class="st6" d="M158.58,429.31v-15.01c.83,5.01,1.22,10.31,0,15.01Z"/>
    <path class="st0" d="M114.79,372.38c-.68.68-1.71.44-2.16.82-1.56,1.35,1.44,5-.35,6.06-1.12-1.22-1.95-5.2.03-6.57.76-.52,1.69-.32,2.47-.32h.01Z"/>
    <path class="st6" d="M264.3,539.4c-.02-2.32.11-4.64-.18-6.94.19-1.43.22-2.88.18-4.32.94,1.83,1.03,10.53,0,11.26Z"/>
    <path class="st1" d="M119.8,426.81c-.49.05-.64-.57-.64-1.22v-9.42c.22.23.69.57.69,1.22l-.05,9.42Z"/>
    <path class="st6" d="M226.91,556.19c0,2.68-.17,5.12-.77,7.61v-10.01c.86.44.77,1.55.77,2.4h0Z"/>
    <path class="st0" d="M440.84,458.59c.05-1.65-.16-3.87,1.32-4.89.14.27,0,4.63.11,4.4-.25.5-.93.4-1.42.49h0Z"/>
    <path class="st6" d="M471.35,298.57c-.52-.04-.63.56-.63,1.21v5.67c-1.05,1.16-.59-7.81-.47-8.83.62.71.7,1.35,1.1,1.95Z"/>
    <path class="st6" d="M476.36,328.6v-9.38c.93-1.13.93,11.17,0,9.38Z"/>
    <path class="st1" d="M459.47,364.25c.51-1.69.7-3.65,1.88-5,.99-.04-.27,5.87-1.88,5Z"/>
    <path class="st6" d="M449.46,435.56c-.65,1.3,0,3.03-1.62,4.49-.6-1.96,0-4.08,1-5.74-.01.5.12,1.05.63,1.25h-.01Z"/>
    <path class="st0" d="M114.79,386.77c-.92-.75-.98-2.03-1.25-3.13.89-.19,1.24.48,1.49,1.38.14.5.46,1.27-.24,1.74h0Z"/>
    <path class="st0" d="M117.3,401.16v-2.5c.5.23,1.12.57,1.25,1.03.22.79-.17,1.92-1.25,1.47Z"/>
    <path class="st0" d="M116.67,373.01c.08.36-.15.59-.37.64-.34.06-.89-.05-.89-.34v-.92c.51-.07.93.38,1.26.63h0Z"/>
    <path class="st0" d="M436.95,443.7c-.6.08-.63-.62-.65-.97-.04-.61-.09-1.51.65-1.53-.2.73.32,1.82,0,2.5Z"/>
    <path class="st0" d="M118.55,410.54v-2.5c.25.36.68.52.67.97-.02.62.09,1.51-.67,1.53Z"/>
    <path class="st6" d="M306.84,521.26c-.26-.8.3-1.28.63-1.88.2.79-.15,1.34-.63,1.88Z"/>
    <path class="st0" d="M442.16,453.14c-.14-.63-.46-1.77.42-1.93-.16.6.3,1.63-.42,1.93Z"/>
    <path class="st8" d="M425.06,442.45c0-.67-.15-1.62.63-1.88,0,.67.18,1.62-.63,1.88Z"/>
    <path class="st6" d="M263.67,523.77c-.79-.29-.6-1.2-.63-1.88.81.24.61,1.21.63,1.88Z"/>
    <path class="st8" d="M423.19,448.08c0-.52.08-1.15.68-1.25-.04.5-.15,1.07-.68,1.25Z"/>
    <path class="st0" d="M439.46,461.22c.16-.46.36-.86.61-1.26-.15.4-.02,1.27-.61,1.26Z"/>
    <path class="st8" d="M424.44,444.32c0-.5.05-1.12.63-1.25,0,.5-.07,1.1-.63,1.25Z"/>
    <path class="st0" d="M117.92,404.29v-1.25c.13.2.44.27.54.47.24.47-.04.88-.54.78Z"/>
    <path class="st4" d="M436.32,438.07c-.11-.15-.39-.25-.52-.48-.23-.4.45-.53.52-.77v1.25Z"/>
    <path class="st0" d="M112.92,381.14c-.58-.13-.63-.74-.63-1.25.57.19.51.78.63,1.25Z"/>
    <path class="st8" d="M423.88,446.2c.05-.3.28-.54.56-.63,0,.29-.33.52-.56.63Z"/>
    <path class="st8" d="M422.56,449.33c.16-.26.37-.47.63-.63-.07.3-.35.53-.63.63Z"/>
    <path class="st6" d="M167.97,463.09c-.86-.36-1.48-1.05-1.87-1.89.87.34,1.44,1.08,1.87,1.89Z"/>
    <path class="st8" d="M421.31,452.45c.13-.27.39-.46.63-.63-.16.26-.37.47-.63.63Z"/>
    <path class="st8" d="M466.35,393.03c.12-.26.42-.44.63-.63-.11.27-.41.45-.63.63Z"/>
    <path class="st0" d="M436.32,420.55c-1.08-1.66-1.08-4.6,0-6.26v6.26Z"/>
  </g>
  <g>
    <path class="st9" d="M215.27,344.81c-.09.51-.12,1.02-.06,1.53-.27.05-.75-.03-.84.33l12.19,6.43c1.95,1.03,4.1,1.64,5.83,3.04.79.64,1.59.92,2.43,1.39l7.89,4.36c1.11.61,1.96,1.37,3.25,1.81,2.37.8,4.28,2.41,6.46,3.63l13.42,7.52,13.93,3.49,4.82,2.36c3.66,1.79,6.47,4.13,9.74,6.67,5.28,4.09,10.18,8.54,13.99,13.83,1,1.39,1.77,3.06,2.55,4.58.45.87.52,1.9,1.54,2.62.11.32-.32.91-.33,1.19-2.3-1.18-1.39-2.8-2.9-2.97-1.41-3.85-7.65-10.86-10.92-13.51s-6.55-5.51-10.05-8.06c-11.71-8.54-19.76-6.29-25.65-9.79l-8.45-5.01c-4.24-2.52-8.35-4.96-13.02-6.8-1.74-.69-4.55-.32-6.47-.13-5.82.57-10.9,2.91-16.09,5.28-9.68,4.84-18.1,7.05-29.12,7.77l46.07,28.49,11.76,7.67c-.4.14-.75.61-1.26.42l-14.17-8.39-24.62-15.58c-6.57,5.16-8.49,4.89-15.66,6.97l34.05,27.65c3.52,2.86,6.61,5.85,10.28,7.9,1.82,1.02,4.06.3,5.9,0,6.65-1.09,11.22-1.45,17.43-5.29l12.5-7.73c5.63-3.49,15.87-7.25,22.32-8.05-.15,1.49-1.65.86-1.69,2.53-8.17,1.55-15.81,5.07-23.18,9.22-1.68.95-3.13,1.83-4.68,2.94-6.28,4.53-13.37,7.19-21.06,8.01-2.03.22-3.8.8-5.89.42-.48-.09-.82.38-1.06.48-.34.13-.24,1.43.12,1.29,1.45-.57,2.6-.26,3.94-.45,5.89-.8,11.32-2.69,16.83-4.19.14.08.67.03.76.25.13.33-.25.74-.34,1l-13.43,3.82c-2.66.76-5.27.99-8.04.78-.03,1.12.03,1.88-.34,2.61l-1.37-.04.04-6c-1.85-1.7-3.89-2.97-5.92-4.64l-28.37-23.35c-3.75-3.09-7.25-5.93-11.12-8.79.26,5.42-.48,2.99-.57,6.95-.58.01-1.16-.11-1.68-.38.15-.38.55-.63.4-1.35-1.91.06-3.73.48-5.57,1.4l5.58,4.97c-.07,1.3,1.09,2.13,1.27,3.37-2.38-2.03-4.83-4.04-7.41-6.06-.95-.74-1.68-1.33-1.48-2.56.43-2.59,6.32-1.6,7.33-3.82.69-1.51.26-3.79,2.48-4.36,6.27-1.61,10.31-1.91,15.81-6.45l-19.9-11.88c-.38-.23-.66-.93-.47-1.13.18-.19.45-.3.68-.42h5.08c.44,0,.85-.09.82-.42,4.2-.31,8.46-.71,12.64-2.1s7.81-2.59,11.62-4.45c5.51-2.7,10.92-5.04,17.09-6.06,1.35-.22,2.74.46,4.13-.54l-19.51-10.69-6.96-3.62c-.59-.31-1.78-1.55-.84-1.84,1.88-.57,3.82-.13,5.5-.07Z"/>
    <path class="st2" d="M400.12,397.31c.23.81,1.56,1.27,1.39,2.22-.28.52-.84.86-1.35,1.15-2.09,1.23-4.63,1.49-7.11,2.14l-15.27,4.03-11.05,2.85c-2.48.64-4.77,1.38-7.25,2.03l-17.74,4.65c-2.15.56-4.2,1.01-6.39,1.63l-8.31,2.36c-.88.25-.76,2.73-.41,3.36,1.52.61,3.5,0,5.16-.46l33.35-9.36c.22.36.4.74.52,1.14-2.39.5-4.55,2.13-7.19,2.51-2.82.42-5.29,1.8-8.05,2.48-4.57,1.13-8.95,2.29-13.47,3.81-3.68,1.24-7.4,2.41-11.29,2.11-1.5-.12-2.97-.92-4.38-.05-.89.55-1.51,2.13-2.67,2.37-4.08.82-7.8,2.24-11.81,3.28-3.18.82-6.3,1.34-9.45,2.38-3.66,1.21-9.63,2.09-12.2,3.08-2.28.88-4.66.67-6.73,1.22-.71-.28-.26-1.18,0-1.69l15.96-3.89,22.34-5.83c1.75-.46,2.85-1.94,2.55-3.76-2.64-.22-5.01.6-7.54,1.23l-18.57,4.61c-3.03.75-5.96,1.24-8.88,2.11-2.3.68-4.56,1.3-6.93,1.86l-5.42,1.29-19.9,5.07-14.75,3.38c-2.18.5-3.58-.12-5.19-1.45l-20.56-16.95-20.01-16.22c-.48-.39-6.06-4.89-4.53-5.14.52.27,1.1.39,1.68.38,2.45,2.58,5.35,4.52,8.31,6.93l37.51,30.63c.22-.74.11-1.25.11-1.74l1.37.04c-.16.32-.01,1,.12,1.3.32.74,5.12-.35,5.68-.49l6.76-1.7,20.34-4.88c1.33-.32,2.4-.88,3.65-.59.12.03,4.07-.19,3.37-1.26.26-.08.58.06.84,0,.49.02.5-.44,0-.42-.16.02-.35-.12-.5-.08l.08-1.18c.24-.05.56.14.81.09.85,1.55,2.18.71,3.41.41l16.75-4.04,9.12-2.25c4.01-.99,7.88-2.1,12.06-2.57.61-1.38.58-2.72.84-3.87.53-.22,1.43-.47,1.26-1.26.13.04.29-.03.42,0,.55.11.76.67.75,1.19-1.65-.2-1.37,4.81-.7,5.9,1.42-.55,2.81-.32,4.16-.35.35.03.42-.38.42-.82v-3.82c2.1.1,4.15-.66,6.31-1.24l8.08-2.19,27.74-7.1c.64-.16,1.29-.32,1.69-.85,2.37-.53,4.81-1.05,7.16-1.69l11.62-3.16c2.99-.81,6.01-1.04,8.61-2.32.47-.23,1.1-.18,1.53-.35.62-.24.67-.75.61-1.33-.03-.25.15-.59.32-.71.25-.17.56-.16.82-.17Z"/>
    <path class="st9" d="M254.82,289.85c.37.23.66,1.13,1.16,1.24.23.64-.25,1.76.53,2.13-.95.41-1.61,1.24-2.11,2.11-.19-1.48-.43-3.15-1.34-4.68-1.1-1.85-4.49-3.33-6.43-2.16-.64.39-1.88,1.29-2.3,1.84-1.32,1.7-.07,4.73.38,6.69.22.93.73,1.93-.35,2.56-1.08-.45-1.86-1.6-3.18-1.96-1.74-.47-4.07-.16-5.37.9-.93.76-.65,1.99-.88,2.88-.28,1.1,1.16,1.17,1.63,2.01,1.84,3.27,4.99,4.61,8.63,3.3,1.18-.42,3.25-.93,3.36-2.51-.73-.51-1.45-1.41-2.17-2.13-.01-.49-.6-1.71.39-1.68.88.03,1,1.51,1.81,1.59.38.04.77-.52,1.11-.65.27-.11.62-.01.86.31-.51,1.55,2.14,3.81,2.81,3.77.45-.03.95-.28,1.46-.39.24.52.44.08.52-.1l.32-.74c.05-.11.02-.3,0-.42.22-.1.45-.28.71-.35.46-.12.44.47.53.77,0,.41-.12,1.39.55,1.54,1.64.37,3.24.23,4.95-.27l.62.79c.26.33-.44.59-.65.87-1.58.74-3.33.58-5,.02-.44.48-1,.96-1.68.78-1.22-2.46-2.69,1.79-5.3-2.11-1.59,1.34-3.99,2.2-5.79,3.39-.58,1.02-.67,3.63.13,4.68.98,1.28,2.7,2.24,4.09,2.98,1.66.9,3.56.17,5.15.4-.16.48.02,1.48-.84,1.56-.94.32-2,.42-2.69,1.15-.2.22-.49.37-.61.66-.84-1.36-2.36-2.72-3.86-2.95-.51-.08-.81-.15-1.26-.37.36-.04.53-.25.24-.49-.18-.14-.53-.24-.66-.4-.52-1.14-1.2-2.41-2.53-2.53-.01-.55.48-.72,1.18-1.03.24-.12-.25-.41-.36-.56-.43-.6-.54-2.13.2-3.18-.92-.67-1.89-.26-2.71-.43l-2.91-.62-2.03-3.13c-1.13-1.74-2.53-3.66-1.87-5.63s2.08-3.12,4.59-3.38c-1.13-.65-2.01-2.07-2.8-2.16-4.49.77-7.49,3.64-11.73-1.07-3.94-4.37-5.59-2.27-7.73-4.39,1.54-1.32,3.36-.82,5.07-1,3.21-.34,5.89.41,8.84,1.23,6.67,1.86,5.85,6.28,13.12,7.65-.66-3.67-1.84-4.39.43-7.18.54-.66.9-1.45.36-2.11.56.2,1.13-.4,1.6-.43l5.18.05c3.09.03,3.86,3.65,4.62,3.33ZM233.07,292.19c-3.42-2-7.12-3.18-10.99-3.52-.33-.03-.76.82-.33.78,2.33-.2,4.45,6.93,11.32,2.74Z"/>
    <path class="st2" d="M244.71,317.3c.45.22.75.29,1.26.37,5.53,5.92,2.4,13.85,5.2,16.73.95.98,5.42,4.57,7.18,6.15-1.13-3.69-2.46-6.66-3.11-10.25-.44-2.45-1.64-4.56-3.39-6.26-1.12-1.08-1.4-2.41-2.03-3.43.13-.29.41-.44.61-.66.84,1.48,2.14,2.64,3.11,4.04.17.24.31.73.65.84.55.17.71-.59,1.04-.88l.68-.29c-.19,2.9,3.56,4.76,5.64,6.66.09.33.07.85.44,1.09.33.22.75.26,1.14.24.04,1.11.19,2.37.83,3.31-.07.54-.18,1.07-.31,1.59-.38.02-.87.28-.87.89l.02,6.39c0,.44.11.86.43.82-.14,1.24.07,2.63.39,3.79-.1.29-.15.63-.42.98-.16.21-.53-.03-.82-.14-.43-1.44-1.64-2.84-2.74-4.02l-6.11-6.51c-.58-.61-.88-1.81-1.69-2.11-.93-.34-1.58-1.09-2.53-1.67-1.51-.93-3.35-.84-5.01-1.32-2.42-.7-4.79-.53-6.82.68,1.53,1.76,2.21-.96,5.92,2.32l-1.08.89c-6.75-2.87-10.89,1.46-11.96-.7-.88-1.77,5.85-5.22,5.92-5.26.03.22,0,1.32.4,1.3,2.56-.25,4.78-1.31,7.16-1.29.51,0,.94.46,1.61.42.11-.43.14-.75.06-.95-.08-.18-.55-.53-.22-.7.16-.08.72.24,1.03-.12l-1.23-1.18c.28-1.03-.59-1.89-.8-2.98l-1.73-8.82c.63.2,1.52-.24,2.11.05ZM247.5,329c.38-3.18-.61-5.71-2.08-8.33-.76,3.16.83,5.95,2.08,8.33ZM261.14,342.55c0,.49-.04,1.12.97,1.23-.74-3.2.74-6.63-.55-9.66-.82-1.94-2.78-3.56-4.68-4.88.37,4.63,2.55,9.55,4.26,13.31Z"/>
    <path class="st7" d="M400.12,397.31c-.26.01-.57,0-.82.17-.18.12-.35.47-.32.71-1.48-.94-1.03-3.85-2.56-3.79-.34-.4-.76-.98-1.26-1.26l-23.74-13.57c-5.54,5.69-10.86,6.97-17.56,8.93.26-.5.7-1.39,0-1.68,6.95-1.53,13.32-4.59,18.34-10.12l-21.57-12.42-23.14-13.45c-1.34-.78-2.82-1.17-3.55-2.4.39.02.94.08,1.18-.3.17-.28.08-.67.08-.95l36.25,21c2.95,1.71,5.5,3.58,8.54,5.04l3.11,1.49c.85.41,1.09,1.22,1.01,2.18-.06.69-.84.55-1.62,1.75,1.68-.17,2.36,1.18,3.45,1.63,2.29.97,4.27,2.07,6.44,3.27l16.42,9.13,1.31,4.63Z"/>
    <path class="st3" d="M209.73,426.48c.21.53,1,.83,1.58,1.32l13.69,11.58,8.79,7.37c1.06.89,3.22.28,4.58-.08l13.05-3.44,27-6.69c-.26.5-.71,1.4,0,1.69l-17.66,4.69-22.76,5.85c-3.08.79-4.65.38-6.96-1.57l-23.5-19.83-18.88-16.12c-.18-1.23-1.34-2.07-1.27-3.37l12.23,10.06c3.02,2.49,6.51,6.14,10.11,8.53Z"/>
    <path class="st9" d="M279.27,284.37c-.73-.21-.69-1.05-.78-1.69-.61-4.54-4.46-6.78-2.68-8.98.56-.69,2.43-.03,2.18.82-.51,1.77-1.81-1.1,1.58,5.62.68-2.35,3.46-4.99,2.46-7.08l-2.68-5.63c-.25-.52-.17-1.03.32-1.41.32-.24.83-.56,1.41-.39,1.7.52,2.25,1.55,2.71,3.48.91-1.2,1.32-2.52,1.25-3.66-.09-1.4-1.65-1.9-2.77-1.82l-3.91.28c-.98.07-2.54-2.11-2.17-3.03.73-1.81,3.3-.94,5.06-.09.16-.08-4.84-4.92-2.3-5.76,1.77-.59,3.72.2,5.52.65-.82,2.07-.69,6.84.94,6.7.21-.02.58-.46.59-.81l.07-4.25c.02-1.06,1.73-.92,2.57-.72.66.16,1.42,1.39,1.01,2.3-1.29,2.87-4.36,5.27-2.84,7.68l1.9-4.02c.47-.99,2.02-2.17,3.26-1.38.72.46.54,2.37.06,2.98-1.25,1.61-2.8,2.64-4.36,3.65-2.08,1.34-2.63,3.37-3.53,5.37l-2.65,5.86c-.1.22.51.52.8.25l4.99-4.64c.94-.88,2.51-.37,3.79-.38-.07,1.11.3,2.24-.06,3.34-6.18,5.57-5.53.54-9.35,3.68-1.08.89-2.58,1.51-2.37,3.05ZM288.97,275.7c-.65-.59-2.12,1.17-2.07.87.12-.65.49,1.89,1.85,1.46-.05.02,1.02-1.62.22-2.33Z"/>
    <path class="st3" d="M308.34,295.33c-.42-.51-1-.25-1.26-.42-2.82-1.76-3.3-5.21-3.43-8.5-2.48.23-6.56.5-7.04,3.43-.43,2.65,1.39,5.73,4.08,5.91,1.21.08,1.88-1.48,2.93-1.66.31,1.1-.27,1.96-1.37,2.4-1.57.62-4.26.96-5.32-.52-1.27-1.77-2.05-3.96-1.9-5.9.17-2.12,1.69-3.24,3.33-4.26-2.23-.53-4.2-1.24-5.24-2.53-1.37-1.7-1.4-3.56-1.15-5.61.2-1.63,1.18-2.85,2.9-3,3.27-.28,6.23,1.06,8.67,3.17.86-2.27,1.19-4.58,3.47-5.41,1.96-.72,5.77-.17,7.4,1.12,1.99,3.66-.03,8.15-3.57,10.14,2.12.92,3.93,2.74,4.4,4.65.61,2.44.6,5.21-1.24,6.71-1.69,1.37-3.88.51-5.67.29ZM313.63,277.15c.29-1.6-.13-2.81-1.79-3.09-1.01-.17-2.31-1.07-3.42-.59-5.15,2.25-3.46,9.11-2.17,9.89-.12-.07,6.15.51,7.37-6.21ZM303.3,280.38c-.8-3.5-8.32-4.79-8.87-4.26-.74.7-1.62,3.26-.65,5.32.44.94,1.42,1.77,2.77,2.14,4.03,1.11,1.01,1.75,7.66.73l-.89-3.92ZM307.48,286.06c.08.23-.19.68-.37.82-.33-.29-.8-.44-1.43-1.05-.99,2.36-.03,4.09,1.15,5.91.85,1.31,1.12,2.03,2.98,2.26,1.54.19,3.78-.03,3.98-1.94.23-2.29.18-4.2-1.4-5.59-1.42-1.25-3.07-2.29-5.28-1.48-.24.16.28.81.37,1.08Z"/>
    <path class="st2" d="M304.13,354.77v.42c.08.14-.4.43-.36.64.07.36.55-.08.57-.22.01-.1.04-.33.21-.42,1.45-.8,1.3-2.74,1.81-4.22l.61-.85c.43-.14,1.17-.3,1.38-.79.23.01.51.04.58.3.04.14.07.29.13.45-.27.39-.53,1.01-.13,1.23l3.33-1.9c.99-.57,9.25-3.84,11.67-2.66.1.37.51.42.84.42h.42c0,.28.09.67-.08.95-.24.38-.79.31-1.18.3l-2.51-.38c-1.22-.18-8.23,3.13-10.07,3.76-.9.31-4.4,2.4-2.7,2.95-.02.13-.02.26-.01.39-.19.05-.23.31-.33.43-.55.21-.78.72-.92,1.26-.09.34-.57.57-.74.87-.55.06-1.14-.07-1.68.02-1.3.22-1.73,1.5-2.54,2.52-1.43,1.8-3.43,3.25-4.14,5.58-.3.97.39,2.02.37,2.86-.02.64.57,1.31-.16,2.15l-.73-.89c-.29-.6-.46-1.21-1.28-1.92-1.05,1.8-1.78,3.5-1.63,5.32-.14.3-.3.99-.83.82-.16-.08-.46-.61-.7-.37-.07.73-.39,1.27-.61,1.64-.31-.53-.57-1.09-.76-1.68.1-1.44,1.38-2.68,1.23-4.25l-.42-4.18c-.34-.5-.81-.88-1.26-1.26-.16-.13-.29-.29-.42-.44.33-.24.66-.5.84-.88-.25-.77-.94-1.32-1.27-2.05-.23-.51-.31-.64-.84-.84l-1.21-4.64,1.51-1.73c.04.85.06,1.35.55,1.73.15.32.26.71.83.85-.06-1.28.12-2.3.01-3.34-.09-.82-.7-1.61-1.27-2.15v-1.69c.54-.18,1.07-.41,1.56.08.17,1.12,1.49.83.9,7.06-.13,1.38-.71,2.71-.21,4.1.88,2.41,1.63,4.68,2.02,7.34.79-.38.87-1.14,1.2-1.72.1-.17.53-.28.43-.62-.05-.17-.24-.28-.43-.23,0-.14-.01-.28,0-.42.07-.78.05-1.51.04-2.54.39.09.5.41.71.49.24.1.46.81.72.73-.29.09,4.74-5.05,5.28-6.69,1.03-3.16.42-6.8.42-10.12v-.42c.18,0,.46-.07.61.02.21.12.27.43.27.8l-.05,7.22c0,.44.11.85.43.82Z"/>
    <path class="st2" d="M318.37,318.52c-.09.22-.38.49-.34.74-.33-.09-1.02-.03-1.26-.33-.71-1.37-2.41-2.07-3.09-3.66-.48-1.12-.53-2.57-1.95-2.29-.34.07-.51-.56-.42-.79.13-.36.7-1.19.29-1.46-.81-.47-1.64-.6-2.13-1.48-2.17,1.52-3.41,5.56-4.08,7.57-.35,1.03-.27,1.82-.03,2.95-.89,1.02-2.11,2.4-2.55,3.74-.42.03-.88-.03-1.14-.39-.45-.58-.19-1.49-.46-2.08-.18-1.63,1.67-1.96.4-2.95v-1.69l1.16.08c1.89,7.18.27-5.83.62-4.71.2-.1.39-.22.57-.35.03.74.53,1.36.86,2.06l1.07-2.92c.19-.53.6-.81,1.25-.61s.6-.55.79-.77c1.14-1.31,1.75-3.1,3.13-4.42,3.94-3.75,6.43-3.23,10.83-7.91,2.88.65-1.96,6.16-1.72,7.8l.81,5.41c.44,2.92-1.52,5.84-2.6,8.46ZM315.82,308.53c2.5-1.59,3.14-4.77,3.87-7.31-3.29,1.17-6.97,3.95-9.01,6.34-1.33,1.56,4.18,1.57,5.14.96ZM318.88,308.82c-.8,1.57-1.17,3.39-.66,5.2.79-.15.67-.67,1.08-.99.29-.23.51-.53.42-1.26,0-.06,0-.18,0-.42.69-.36.69-1.74,0-2.11v-.42c0-.2.16-.72-.21-.8,0,0-.88.68-.63.8ZM315.85,311.03c-.88.22-1.64-.07-2.26-.52-.45.45-.81.67-.58.99l.46.62c1.06,1.42,1.4,3.14,2.98,4.51,1.08-1.43-.58-3.86-.61-5.6Z"/>
    <path class="st7" d="M269.57,360.25c.52.03.88-.44,1.12-.84.17.56.46,1.69.77,2.33,1.54.54,3.1,1.71,4.72,2.74.42-1.62-.76-3.05-.71-4.64.61-.39.92-1.2,1.69-1.26.87.28-.04,6.04,1.28,7.2l9.13,8.08c1.2,1.06,1.92,2.16,3.53,2.86-.61-1.31.78-2.19.84-2.97.19.59.45,1.15.76,1.68l-.28,2.75c-.05.47.65.73.78.43.66-1.48.9-2.77.81-4.45.54.17.7-.52.83-.82.77.39,3.16-2.89,2.91-3.4l.73.89c.73-.84.14-1.51.16-2.15l.8.08c.16.34.41.79.33,1.18-.15.71-.19,1.43-.29,2.15-.04.28-.26.54-.35.8-.24-.12-.43-.3-.84-.39-2.64,3.59-1.39,4.16-3.98,7.75,2.66,2.41,6.98,6.97,8.11,9.53l-.37.81c-1.18-.48-1.78-1.85-2.71-2.8-1.43-1.47-2.7-2.89-4.01-4.41-2.07-2.39-4.28-4.36-6.6-6.54-8.08-7.58-17.04-13.73-26.75-18.72.55.09,1.26-.13,1.66-.44.19-.14.77.23.85-.2.03-.19-1.9-7.58-2.09-8.2.28.1.66.34.82.14.27-.35.32-.69.42-.98.09.24.68.55.69,1,.05,2.43.97,4.47,1.66,6.72.59,1.93,1.48,3.95,3.58,4.08Z"/>
    <path class="st3" d="M264.94,310.09c1.54-.2.7,2.6,1.49,2.99.34-.77.49-1.44,1.16-1.41.22,0,.51-.04.72.04l-2.57,6.92c4.1-2.59,10.3-5.77,15.06-4.48-1.74,1.79-4.56,6.08-6.46,6.58l-9.05,2.41c-1.65.44-2.18,7.73-2.15,8.52-.39.02-.81-.02-1.14-.24-.36-.24-.34-.76-.44-1.09l1.34-7.51c.4-2.26,1.63-4.27,1.5-6.56-2.42.84-4.31,1.02-6.07-.4-.62,1.46-2.04,2.26-2.12,3.58l-.28,4.23-.68.29c-1.03-1.19.18-5.16-.85-5.01-.38.05-.93-.23-1.26-.12.86-.09.69-1.09.84-1.56.64-.5,2.26-.5,2.63-1.59.89-2.65.26-5.42-.9-7.76.68.19,1.24-.29,1.68-.78,1.06,1.99.96,4.38,1.41,6.66.38,1.97,2.91,1.52,4.16.71.76-.5,1.44-.62,1.7-1.16.98-2.01-.64-2.08.29-3.25ZM276.81,316.02c-1.97-.56-9.2,2.91-10.38,4.9,4.95-1.09,7.02-.64,10.38-4.9Z"/>
    <path class="st3" d="M312.98,342.13c.38-.83.24-2,1.26-2.53,2.01-1.05,4.11-2.28,5.18-4.91-2.08.32-3.13,2.22-4.82,3.18.07-1-.66-1.84-1.62-2.07l2.23-9.17c.64-2.65,1.44-5.14,1.56-7.69.24.29.92.24,1.26.33.08.58-.14,1.22,0,1.78.06.25-1.14,4.69-1.75,5.94-.16.33.85.59.93.19.2-1.14,6.31-4.37,7.9-5.01-.53-.89.46-1.46.51-1.97,1.44-.42,2.49-1.55,3.83-2.35-.81-.41-1.3-.25-1.65-.64.79-.14,2.04-1.56,3.32-.72.54.35.54,1.36.2,2.01-.29.55-.99.82-1.92.87.05,2.03,5.82-1.11,7.42-.36-5.46,6.83-8.3,5.1-12.79,5.96-5.04.97-8.36,5.31-9.21,10.2,2.14-.9,3.37-2.09,4.88-3.21.55-.41.65-1.58,1.69-1.58.47,3.67-1.22,7.1-4.31,9.1l-4.08,2.64ZM332.67,321.1c-1.78-.13-3.24.87-4.64,1.94,1.93.4,3.2-.78,4.64-1.94Z"/>
    <path class="st10" d="M299.5,342.49c-3.21-2.27-1.08-1.32-1.69-2.05.95-.66.46-3.8,1.72-4.95-.73-.39-.93.2-1.3.31-.39.12-.79.07-1.23.28-.36.17-.53-.26-.45-.7,1.29-2.8,3.52-9.84,5.12-12.25.26.37.72.43,1.14.39l-3.68,11.16c2.37-3.13,3.51-6.68,6.4-9.29,1.06-.95.99-2.43,2.77-3.31-.19,3.3-.39,6.47-1.12,9.7-.77,3.39-4.44,9.64-7.67,10.71ZM299.63,340.42c.43-.6.9-1.14,1.74-1.5,2.67-3.35,4.39-7.21,4.92-11.55l-1.42,1.57-4.48,8.19-.75,3.29Z"/>
    <path class="st10" d="M217.74,344.65c.67.86,1.97.28,2.95.42.28.04.56.02.84.04.74.72,1.97.33,2.95.38,12.86.66,26.33,5.7,38.2,11.12.59.27,1.14.43.96,1.07-.4.31-1.11.53-1.66.44-2.3-1.18-4.87-1.96-7.47-3.06-12.98-5.47-25.58-7.92-39.31-8.73-.05-.51-.03-1.03.06-1.53.81.03,1.65-.26,2.47-.15Z"/>
    <path class="st9" d="M365.65,415.05c-.12-.4-.3-.78-.52-1.14.31-.17.63-.59,1.21-.75l30.06-8.6c2.71-.78,5.23-.71,7.88-2.07-1.42-1-2.77-1.71-4.12-1.81.51-.3,1.07-.63,1.35-1.15,1.74.06,5.49,1.93,4.3,4.03-.25.44-.79,1.16-1.55,1.31-6.83,1.31-13.38,3.09-20.08,5.07l-7.85,2.32c-3.65,1.08-7.17,2.07-10.68,2.81Z"/>
    <path class="st3" d="M272.1,296.18c0,.22-.08.48-.34.59-.19.08-.41-.22-.79-.58-.19.97.2,1.88.17,2.85-2.97-.58-2.75,3.19-3.84,4.97-.63,1.02-1.81,1.55-1.55,2.71.05.44-.69,1.16-.39,1.68-.57-.96-1.81-1.84-2.98-1.29.21-.27.9-.54.65-.87l-.62-.79c4.93-.66,2.94-3.04,5.06-6.21-1.41-.81-1.42-2.22-2.31-3.37-1.06-1.36-3.41-2.35-5.14-2.14-1.56.18-2.6,1.45-3.87,2.07-.14,1.61-.15,2.9.02,4.45,1.34.93,1.59,2.51.75,3.93-.09-.31-.08-.89-.53-.77-.26.07-.49.25-.71.35-.21-1.57-1.54-3.21-3.35-3.33l-1.76,1.21c-.24-.32-.59-.41-.86-.31-.34.13-.73.69-1.11.65-.8-.08-.93-1.56-1.81-1.59-.99-.04-.4,1.19-.39,1.68-.71-.7-1.8-1.12-2.04-2.5,1.08-.63.57-1.63.35-2.56,1.42,1.04,1.73,2.94,4.07,4.63.5-1.3,1.16-2.59,2.37-3.09.8-.33,1.9.44,2.74.47.58-1.19.66-2.5.51-3.69.5-.86,1.16-1.7,2.11-2.11,3.18-1.38,7.45-1.44,9.9,1.46,1.15,1.36,1.7,3.76,4.23,3.13l-4.1-5.78c-.33-.47.51-1.25.96-.98,1.46.63,3.82,5.65,4.6,5.12Z"/>
    <path class="st9" d="M258.62,283.95c-.61.18-.8-.22-.77-.65s-.04-.72-.05-1.04l-.03-2.95,1.54-.37c.92-.22.34-1.25.56-1.74,1.24-2.15,2.72-4.15,4.23-6.37.38-.56-.66-1.34-1.05-1.25s-1.16.07-1.5.37c-.3-.22-.57-.48-.8-.78.6-.27.75-1.18,2.15-.97,1.28.19,2.27.44,2.64,1.8,1.43-1.01,3.61-1.25,4.91-.47,1.72,1.03.81,2.91.67,4.37-.12,1.17.74,2.88-.2,3.88-2.89,3.07-6.06,1.41-11.24,4.68-.74.47-.97.78-1.07,1.48ZM269.53,270.76c.1-2.5-7.5,3.55-7.41,6.67,5.09-3.21,7.27-3.06,7.41-6.67ZM270.05,276.58c.16-.38-.38-1.67-.79-1.43-2.07,1.21-4.09,1.89-5.7,3.72,3.14-.7,5.74-.5,6.49-2.29Z"/>
    <path class="st9" d="M228.28,310.93c.38.79.42,1.67.42,2.53-1.55-.69-3.12-2.16-3.8-.49,1.68.25,3.05.93,3.79,2.19-.57.07-1.14.2-1.68.37l-.42.04c-.15-.32-.43-.82-.84-.84-1.06-.07-2.56-1.51-3.62-.68-3.39,2.64,5.57,8.01,9.52,6.16.97-.45.44-1.01.41-2.11.99,1.23,1.59,3.08,3.34,2.96.17.1.28.29.43.41.18.86-.55,1.32-1.23,1.69h-10.54c-1.76-.12-3.77-1.2-4.56-3-.62-1.41.69-2.81.74-4.14.06-1.69-.18-3.18,1.05-4.23,2.26-1.94,5.96-1.46,6.98-.85ZM220.65,319.1c1.39,2.09,4.14,2.98,6.83,2.68-2.55-.6-5.38-3.61-6.83-2.68Z"/>
    <path class="st2" d="M243.95,281.38c.55-.07,1.05.58,1.5.64.44-.04.48-.77.53-1.02.14-.14.29-.27.42-.42.41.08.82.2,1.18.42-.69,2.83-2.38,3.2-2.55,5.47-.47.03-1.04.63-1.6.43-.97-1.19-2.54-2.97-4.17-3.37-.06-.47-.6-1.14-.12-1.53.37-.3.93-.6,1.42-.8,1.02-.42-1.53-4.88-2.59-4.41-.49-.8-1.35-1.89-2.11-2.53,1.35.32-1.05-1.56-.35-1.23.44-.4,1.05-.44,1.62-.46.07.77.61,1.34,1.7,1.24.47-3.83-.11-2.75,0-5.88-.18-1.15-.68-2.56-.43-3.79.55-.88,2.48-1.55,3.13-.28,1.57,3.08-3.91,8.85,1.34,16.89.34.52.55.71,1.08.63Z"/>
    <path class="st10" d="M296.18,335.15c-.63.59-1.47.89-2.16,1.42l-8.73-6.31c-2.35-1.7-3.46-3.98-4.36-6.69-.38-1.14-1.45-2.29-.54-3.51,8.68,2.51,14.42,6.3,15.79,15.09ZM294.12,334.1c-2.11-6.69-5.4-9.39-11.98-11.75,1.61,4.27,4.56,7.56,8.59,9.56,1.23.61,1.88,1.78,3.38,2.19Z"/>
    <path class="st7" d="M302.76,316.49l-1.16-.08c0-3.02-1.48-6.13-3.74-8.51-1.14-1.21-2.75-1.94-3.83-3.62-1.18,1.33.13,2.23.35,3.28.98,4.66,4.86,6.58,7.22,10.54,1.27.99-.58,1.33-.4,2.95-3.23-6.93-7.32-5.56-8.9-15.57-.19-1.18-.85-2.29.15-3.44,6.65,3.36,10.23,6.79,10.31,14.46Z"/>
    <path class="st2" d="M279.15,300.42c0,.41,0,.83.08,1.23.25,1.32-5.79,5.69-6.53,7.57,3.09-.57,5.25-2.15,7.4-3.71.36.15.66.4.81.77-2.69,2.65-5.85,4.44-9.97,4.79-.89.08-1.77.96-2.64.63-.21-.08-.49-.03-.72-.04-.09-.87-.84-1.36-1.38-1.95-.32-.36-.6-.9-.84-1.31-.3-.52.44-1.25.39-1.68,1,.56.52,1.77,1.48,1.71.28-.02.7.02.65-.45.51.06,1.11,2.88,1.69,1.26,2.25-1.21,3.82-3.33,5.79-5.15,1.51-1.4,2.64-3.01,2.21-4.97.66.21,1.04.89,1.57,1.29Z"/>
    <path class="st2" d="M275.16,289.81c.22.14.43.3.62.47-.3,2.76,3.78-2.76,5.91-.58.98,1.01-3.82,1.5-6.74,4.29-1.01.97-1.52,2.34-2.51,3.49.03.51.82.29,1.03.43.41.26.63.78.74,1.23-2.13,2.54-1.55-.17-3.37,4.22-.13-.8-.17-1.67.01-2.53.12-.6.28-1.16.29-1.77.03-.97-.36-1.88-.17-2.85.38.36.59.66.79.58.26-.11.35-.37.34-.59-.05-3.46-1.82-6.63-4.07-9.73.83-.62,2.37-.58,3.12-.18.72,2.01.52,4.29,1.77,6.38.8-1.04,1.85-1.92,2.23-2.83Z"/>
    <path class="st2" d="M328.15,309.67c.08.29-.18.7.25.84.32-.5.68-.91.98-.58.12.13.37.37.46.58.23.59.8.05,1.26,0s1.04.12,1.26-.38h1.69c.97.82,2.37.46,3.37-.04s2.38-.48,3.32-.32c-.42,1.25-1.29,1.41-2.08,2.04-7.61,5.99-5.77,1.48-13.89,3.3-.43-.06-.77-.35-.8-.79.75-.54.79-1.77.81-2.53.16-.27.39-.91.66-1.04.33-.16,1.07.22,1.52-.21.42-.4.09-1.22.34-1.7.37.14.74.44.84.84ZM328.15,312.62c-.32.14-.74.2-.82.9,2.45-.44,4.89.58,7.14-.48.6-.29.99-.85,1.72-1.13-1.4-.08-2.57-.9-3.79-.54l-4.25,1.25Z"/>
    <path class="st9" d="M237.12,272.57c-.57.02-1.18.06-1.62.46-.86-.41-1.8-1.27-2.77-.65.61,1.62,2.36,1.23,3.13,1.87s1.61,1.72,2.11,2.53c-1.47-.55-7.28-2.13-7.07-4.55.14-1.55,2.51-1.37,3.69-1.35-1.15-2.03-3.06-2.87-5.09-3.73-1.34-.57-2.56-2.92-1.03-3.69,1.09-.3,3.35.19,4.42.69,1.83.85,1.34,3.34,1.92,4.81s2.19,2.21,2.32,3.61ZM232.06,266.52c-.08-.91-1.51-2.47-2.38-1.78-.48.86,1.37,1.73,2.38,1.78Z"/>
    <path class="st2" d="M277.51,330.82c-.25.46.18.88.49,1.19-.07.11.03.29-.01.41.46.41,1.05.68,1.26,1.27-1.23,2.03-2.57,4.65-1.19,6.75.33.49.34,1.11.33,1.68-.39,1.64-1.11,3.26-1.35,4.94-.37-.04-.73-.1-1.09-.19.25-.92-.3-2.12-.48-3.01-.12-.59-1.29-1.05-.55-1.87.24-.27.46-.56.57-.92.1-.31-.36-.4-.45-.63-.73-1.76-1.48-4.06-3.37-4.64.05-.94,1.75-1.45,2.51-1.35l1.93,3.47c.53-1.97.69-3.9.65-5.91,0-.47,0-1.19.74-1.19Z"/>
    <path class="st3" d="M270.69,359.41c-.24.4-.6.88-1.12.84-1.04-9.33-2.15-14.54-5.9-23.18.06-.15-.05-.36,0-.51.13-.53.24-1.06.31-1.59,4.65,6.81,6.67,16.25,6.72,24.45Z"/>
    <path class="st2" d="M289.38,284.41c.13.03.31-.05.42,0,.13.14.27.27.42.38.65.98,1.72,2.09,2.01,3.44.68,3.22-1.32,3.25,2.6,7.53-.17.08-.56.4-.8.05-.37-.55-.88-.72-1.24-1.04-3.18-2.83-7.56-.31-9.97-5,1.15-1.07,2.79-1.11,4.35-.42-.77,1.04-1.58.21-2.43.59.69,1.73,2.74,1.77,4.22,1.47-.25-.43-.41-.58-.42-.71-.01-.84-.2-1.8.43-2.45.38.53.74,1.25,1.61,1.21.38-1.46-.4-2.53-1.5-3.02-.06-.6-.82-1.21-.44-1.97.12-.23.63-.05.74-.05Z"/>
    <path class="st3" d="M287.57,341.77c.12,1-.23,2.4,1.03,2.53l-.21,1.17c-1.17.82-1.45,2.6-3.46,3.38-.34.13,0,.75.4.73.39-.13,1-.58,1.5-.58.4.22.39.7.36,1.11-1.16.51-2.05,1.27-3.55,1.52-2.12.35-3.98,2.42-3.53,4.42.03.13-.02.28,0,.42-.75-.11-1.34.23-2.25,1.01-1.15-.95,1.27-3.7,2.67-6.91.37-.1.43-.51.42-.84,0-.14,0-.28,0-.42.26-.21.53-.55,1-.84.29-.18.69.95,1.19.5,1.89-1.83,3.24-4.21,3.78-6.79.19-.17.41-.3.65-.4Z"/>
    <path class="st7" d="M286.43,358.14c1.15.35,2.22,1.25,3.37,1.69.53.2.61.33.84.84-.98.27-1.72-.37-3.01-.36,2.22,2.26.39,1.2,4.28,2.41-.18.37-.51.63-.84.88l-6.4-.71c1.87,1.67,4.72,2.19,6.82,1.15.46.39.93.77,1.26,1.26-4.93,1.08-8.55.52-12.34-3.29,2.36-.18,4.4.18,6.22-1.2l-1.46-1.47c.35-.27.89-.22,1.09-.68-.97-.41-.48-.62.17-.53Z"/>
    <path class="st10" d="M277.51,330.82c-.74,0-.75.72-.74,1.19l-2.55-3.38c-2.06-.71-.23,5.49-.04,5.83-.76-.1-2.46.41-2.51,1.35-.11,1.95,1.63,4.09,3.37,4.64.09.22.54.32.45.63-.11.36-.33.65-.57.92-.74.83.43,1.28.55,1.87-2.14-1.65-7.01-6.28-5.17-9.43.35-.6,1.58-.14,2.21-.36-.86-1.94-1.27-4.07-.09-5.97.52-.84,1.47-.79,2.36-.74,1.08.06,2.46,2.03,2.72,3.46Z"/>
    <path class="st3" d="M296.54,335.38c-.08.44.09.88.45.7.44-.21.84-.16,1.23-.28v.42c-.6.16-.33.83-.42,1.26-.21.99-.58,2.25,0,2.95s-1.52-.22,1.69,2.05c-.46,1.79-1.95,3.05-2.99,4.54-1.14-.15-.77-1.48-.8-2.37.55-5.33.54-2.85-1.27-7.17-.07-.18-.3-.28-.42-.42v-.5c.7-.53,1.53-.82,2.17-1.42.11.09.23.17.36.23Z"/>
    <path class="st9" d="M292.79,294.77c.36.32.86.5,1.24,1.04.24.35.63.03.8-.05,1.59.31,3.09,1.68,3.35,3.33l-.78.02c-4.17-4.06-6.92.48-9.72-.49-.71-.25-1.73-1.1-2.01-2.09-.77-2.66,6.03-1.18,7.13-1.76ZM291.41,296.31c-1.52-.19-2.81-.3-4.23.05,1.27,1.27,2.84.63,4.23-.05Z"/>
    <path class="st7" d="M329.83,310.51c-.08-.21-.33-.45-.46-.58-.3-.32-.66.08-.98.58-.43-.14-.17-.55-.25-.84,1.41-.74,1.5-2.46,1.1-4.55l-1.94,3.71c-.25.48.08,1.3-.34,1.7-.45.43-1.2.05-1.52.21-.27.13-.5.77-.66,1.04-.38-2.29.47-3.85,2.16-5.44,1.22-1.15.95-3.27,2.33-4.89,1.89,2.67,1.85,6.14.57,9.06Z"/>
    <path class="st10" d="M296.51,347.03c-.45,1.78-.25,3.68-.46,5.63-.61,5.65-.24,4.03.4,9.76-.2-.08-.32-.4-.71-.49,0,1.04.03,1.76-.04,2.54-.97-1.19-.53-3.04-.92-4.56-.69-2.65-.21-5.01.05-7.63.07-.75.16-7.19.88-7.61.03.89-.34,2.23.8,2.37Z"/>
    <path class="st10" d="M298.17,299.1c.77-.02,1.06.49,1.51,1.12,2.4,3.42,4.12,7.18,4.27,11.22-.18.13-.37.24-.57.35-.34-1.88-6.28-13.37-5.37-11.16l-.62-1.51.78-.02Z"/>
    <path class="st2" d="M311.25,333.75c.27.88.69,1.83,1.3,2.47.09.1-.08.42,0,.62.1.28.35.28.42,0,.06-.23,0-.44,0-.62v-.42c.96.23,1.69,1.07,1.62,2.07-.58.33-.32,1.19-.36,1.72-1.02.53-.88,1.7-1.26,2.53s-1.47,1.5-1.76,2.48c-.43-.03-.66-.4-.74-.79l-.05-.89c.65-.51.66-1.35.89-2.06.63-1.92.62-3.99-.79-5.52-.12-.13-.11-.48-.4-.46.1-.62.43-1.21,1.12-1.13Z"/>
    <path class="st3" d="M235.39,321.05c-1.75.12-2.35-1.73-3.34-2.96-.02-.47-.29-.83-.41-1.26-.1-.34-.29-.54-.42-.84-.18-.41-.6-.55-.84-.84-.47-.66-.91-1.34-1.69-1.69,0-.86-.05-1.74-.42-2.53.48.29,1.16.19,1.63.93.84,1.3,2.52,2.06,3.16,3.47,1.8,3.98,1.41.3,2.32,5.72Z"/>
    <path class="st10" d="M245.13,329.06l1.23,1.18c-.31.36-.87.04-1.03.12-.33.17.14.52.22.7-.9.2-1.32-.68-1.99-1.28-1.59-1.44-7.43-6.62-8.96-6.62.68-.37,1.4-.83,1.23-1.69l9.31,7.59Z"/>
    <path class="st10" d="M287.57,341.77c-.24.09-.46.23-.65.4-2.06-.42-3.96,5.47-3.78,6.79-.5.46-.9-.68-1.19-.5-.47.29-.74.62-1,.84.34-6.56,6.02-10.73,6.71-9.06.2.49-.14,1.11-.09,1.53Z"/>
    <path class="st11" d="M251.87,336.65c.8.3,1.11,1.49,1.69,2.11-6.51,1.19-5.76,1.11-11.2-1.21l1.08-.89c.75-.09,9.25,2.16,8.44-.02Z"/>
    <path class="st3" d="M247.57,281c-.36-.23-.76-.34-1.18-.42.65-.77,1.21-1.71.66-3-.8.87-1.59,2.36-1.08,3.42-.05.25-.09.98-.53,1.02-.45-.06-.95-.71-1.5-.64-.11-1.59.48-3.64,1.76-4.82.51-.47,2.49-.42,2.89.15.77,1.26.28,3.64-1.03,4.3Z"/>
    <path class="st10" d="M277.05,347.06c-.18,1.28.36,2.63-.07,4.12-.73,2.48-.05,5.02.18,7.39-.77.06-1.08.87-1.69,1.26.02-.7,0-1.4,0-2.11v-6.32c0-1.57.06-3,.48-4.53.36.09.72.15,1.09.19Z"/>
    <path class="st10" d="M308.34,295.33c.2,4.03-.21,8.01-.9,12.22-.1.6,0,1.6.48,1.64-.19.22-.12.97-.79.77s-1.07.08-1.25.61l1.2-9.76c.63.49.63-6.45,0-5.48v-.42c.27.17.85-.09,1.26.42Z"/>
    <path class="st3" d="M238.83,279.72c-.09.01-1.3-.06-1.17.19s.21,1.04.5,1.4c.4.48,1.08-.56,1.49-.66.1.25.88.09.9.55-.49.2-1.05.5-1.42.8-.48.39.06,1.06.12,1.53-1.96-.46-5.03-1.07-5.33-3.72.76-1.33,3.95-1.38,4.91-.09Z"/>
    <path class="st7" d="M278.4,342.12c0-.57,0-1.19-.33-1.68-.3-.97,3.95-6.69,1.19-6.75-.21-.59-.8-.87-1.26-1.27.86-.23,2.53-.94,3.06.35,1.85,4.46-2.68,9.44-2.65,9.36Z"/>
    <path class="st7" d="M260.75,269.19c.23.3.5.56.8.78l-1.68,3.41c-.6,1.22-.93,2.93,0,3.83-.23.49.35,1.52-.56,1.74l-1.54.37.46-3.77c.31-2.5.34-5.39,2.52-6.36Z"/>
    <path class="st7" d="M291.79,348.95c-.49-.49-1.02-.26-1.56-.08-1.04.34-2.04.79-3.04,1.22.03-.41.04-.89-.36-1.11-.27-.24,5.02-3.39,2.75-3.48l-1.19-.04.21-1.17c.89-.01,1.76-.15,2.91-.02-.14,1.72.05,3.18.27,4.68Z"/>
    <path class="st7" d="M280.92,306.29c-.15-.36-.45-.62-.81-.77l1.66-3.19c.43-.82-1.89-1.22-2.53-.67-.08-.4-.09-.82-.08-1.23,0-.26.13-.64.11-.87.78.65,2.28.29,3.34.46,1.37,2.37-.17,4.78-1.68,6.28Z"/>
    <path class="st7" d="M258.62,283.95c-.22,1.69-1.52,3.02-1.89,4.86-.17.87-.09,1.84-.75,2.29-.5-.11-.79-1.01-1.16-1.24.95-2.55,1.33-5.42,2.98-7.59,0,.32.07.63.05,1.04-.03.43.16.83.77.65Z"/>
    <path class="st10" d="M324.77,315.1c-1.53,1.14-5.66,6.06-6.74,5.95-.14-.56.08-1.21,0-1.78-.04-.25.25-.53.34-.74.35-.06.93-.07,1.26-.49,1.28-1.6,2.82-2.64,4.34-3.73.03.44.38.73.8.79Z"/>
    <path class="st7" d="M243.87,331.59c-2.37-.02-4.59,1.04-7.16,1.29-.4.01-.37-1.09-.4-1.3,2.22-1.35,5.2-1.49,7.56,0Z"/>
    <path class="st7" d="M279.27,284.37c-1.66,1.17-1.08,3.79-3.49,5.9-.2-.17-.4-.33-.62-.47.35-.86,2.43-6.85,3.33-7.12.09.64.05,1.47.78,1.69Z"/>
    <path class="st3" d="M279.27,299.55c.02.23-.11.61-.11.87-.53-.41-.91-1.08-1.57-1.29-.15-.27-.12-.89-.39-1.1-.79-.63-1.63.98-2.98,1.1-.11-.44-.33-.97-.74-1.23,1.34-1.04,3.45-1.27,5.22-.63.73.26.53,1.69.58,2.28Z"/>
    <path class="st7" d="M311.22,344.61c.35,1.18-.34,2.11-1,3.22-.46.78-.12,2.11-1.16,2.27-.06-.16-.1-.31-.13-.45-.07-.26-.36-.29-.58-.3.78-1.81,1.16-3.83,2.14-5.53.07.39.31.77.74.79Z"/>
    <path class="st3" d="M238.82,267.93c-.87,1.36-.15,2.89-.54,4.75-1.52-1.52-1.33-3.58-.58-5.46.46-1.15.11-2.13.69-3.08-.24,1.23.25,2.64.43,3.79Z"/>
    <path class="st10" d="M283.48,356.04c.49.6.96,1.12,1.74,1.53l-2.58.53c-.86-.49-1.76-.91-2.53-1.64-.02-.14.03-.29,0-.42,1.22.13,2.22-.53,3.37,0Z"/>
    <path class="st7" d="M242.59,312.29c.1.14.6.44.36.56-.71.31-1.19.48-1.18,1.03-1.45-.14-4.54-1.34-3.22-2.34s4,2.01,4.04.75Z"/>
    <path class="st3" d="M221.11,333.73c-.61-.03-1.12-.28-1.24-.69-.17-.56.15-1.19.71-1.57s1.33-.45,1.83-.11.51,1.07.36,1.66-.85.76-1.65.72Z"/>
    <path class="st11" d="M286.43,358.14c-.65-.09-1.13.12-.17.53-.21.46-.75.41-1.09.68-1.11.15-1.73-.8-2.53-1.26l2.58-.53c-.78-.41-1.25-.93-1.74-1.53,1.12.52,2.51.86,2.95,2.11Z"/>
    <circle class="st7" cx="215.17" cy="300.06" r="1.28"/>
    <path class="st7" d="M332.64,338.23c-.64.21-1.04.07-1.36-.31s-.26-.91.12-1.4c.35-.44.79-.72,1.18-.74.71-.03,1.02.57,1.08,1.08.08.74-.21,1.11-1.02,1.37Z"/>
    <path class="st11" d="M327.79,317.22c.36.39.84.22,1.65.64-1.33.8-2.38,1.92-3.83,2.35.1-1,1.06-2.79,2.17-2.98Z"/>
    <path class="st10" d="M289.38,284.41c-.12,0-.63-.18-.74.05-.38.77.38,1.37.44,1.97s-.29,1.22-.11,1.81c-.62.65-.44,1.6-.43,2.45-1.36-.37-.5-8.97.84-6.29Z"/>
    <circle class="st7" cx="254.19" cy="256.34" r="1.09"/>
    <path class="st11" d="M253.88,267.25c.38.58-.47,1.15-.95,1.14-.61-.02-1.07-.48-1.09-1.09-.02-.48.55-1.33,1.14-.95.34.22.68.56.9.9Z"/>
    <circle class="st10" cx="303.19" cy="255.96" r="1.01"/>
    <path class="st11" d="M240.07,308.68c-.85-.07-1.64.16-1.92,1.36-.25.29-.93-.37-1.2-.77-.19-.28.11-.78.21-1.21l2.91.62Z"/>
    <circle class="st11" cx="290.22" cy="319.56" r=".96"/>
    <circle class="st11" cx="251.66" cy="344.23" r=".95"/>
    <path class="st11" d="M230.38,323.16c1.22.63-7.11.63-6.32,0h6.32Z"/>
    <circle class="st11" cx="340.62" cy="319.79" r=".93"/>
    <path class="st11" d="M275.48,357.72c-.33.04-.44-.38-.44-.82v-4.68c0-.44.1-.86.44-.82v6.32Z"/>
    <rect class="st11" x="253.76" y="249.86" width="1.49" height="1.79" transform="translate(-102.77 253.35) rotate(-44.99)"/>
    <path class="st11" d="M191.61,374.16c.03.33-.38.43-.82.43h-5.08c1.79-.92,3.93-.28,5.9-.43Z"/>
    <path class="st2" d="M238.83,279.72c.22.29.69.55.83.92-.41.11-1.09,1.15-1.49.66-.3-.36-.37-1.14-.5-1.4s1.07-.17,1.17-.19Z"/>
    <path class="st11" d="M337.42,310.09c-1,.5-2.4.86-3.37.04,1.12,0,2.25-.05,3.37-.04Z"/>
    <path class="st11" d="M224.48,345.5c-.98-.05-2.21.34-2.95-.38.98.09,2.28-.48,2.95.38Z"/>
    <path class="st11" d="M244.71,317.3c-.59-.29-1.48.15-2.11-.05.31-.71,1.31-.2,1.69-.84.13.16.48.26.66.4.29.23.12.45-.24.49Z"/>
    <path class="st11" d="M220.69,345.08c-.98-.14-2.28.44-2.95-.42.98.12,2.27-.43,2.95.42Z"/>
    <path class="st7" d="M278,332.01c-.31-.31-.74-.73-.49-1.19.06.34.84.63.49,1.19Z"/>
    <path class="st11" d="M332.36,310.13c-.23.5-.83.34-1.26.38.14-.58.82-.38,1.26-.38Z"/>
    <path class="st10" d="M295.7,365.73v-.84c.19-.05.37.05.43.23.1.33-.33.45-.43.62Z"/>
    <path class="st10" d="M280.53,350.56c.12-.28.05-.7.42-.84,0,.34-.05.74-.42.84Z"/>
    <path class="st7" d="M324.78,347.18c-.33,0-.74-.05-.84-.42.27.13.71.04.84.42Z"/>
    <path class="st10" d="M294.44,337.49c-.28.05-.42-.17-.42-.42.12.14.35.24.42.42Z"/>
    <path class="st10" d="M290.22,284.8c-.15-.11-.29-.24-.42-.38.14.1.32.23.42.38Z"/>
    <path class="st10" d="M316.77,412.52v1.69l-.84-.37c-.05-1.06-1.18-1.53-2.11-1.74-1.2-.8-.15-1.2-.89-2.25-.2-.28-.6-.13-.85-.25.01-.28.44-.87.33-1.19-1.03-.72-1.1-1.75-1.54-2.62.42.05.53-.29.08-.5-.39-1.66-1.52-2.85-2.13-4.14-2.46-5.17-4.53-6.28-6.75-10.54l.37-.81c1.28-.04,1.68,1.25,2.45,2.18,3.92,4.81,9.87,15.18,11.89,20.55Z"/>
    <path class="st7" d="M283.48,402.41c.29.37.59.74.73,1.19-1.05.06-7.02-.11-6.21.5-11.62.12-19.89,3.95-29.77,9.85-.84.5-1.73-.69-2.26-1,.51.18.86-.28,1.26-.42,3.52-1.19,6.66-3.34,10.29-4.89,5.6-2.39,11.13-4.23,17.23-5.07,2.95-.4,5.89-.06,8.72-.16Z"/>
    <path class="st2" d="M313.82,412.52c.68.25,1.38,1,2.11,1.32l.84.37h.42c.58.07.86,1.05,1.26,1.26l.03,1.26h-.45c-.11-.13-.24-.39-.42-.42-.81-.15-1.63-.35-2.53-.95-.42.18-.52.37-.35.61.08.11.21.24.35.35-.25.31-.55.58-.84.84-.14-.02-.29.03-.42,0,.02-.53-.64-.71-.68-1.16.62-.13.87-.19,1.09-.31.21-.11-.08-.5-.28-.79-.11-.16-.25.13-.55.15-2.84-1.43-6.07-2.53-9.27-2.53.03-.33-.39-.43-.82-.43h-7.21c-.44,0-.86.11-.82.43-1.05,0-1.94.23-2.95.42.04-1.67,1.54-1.04,1.69-2.53,3.9-.48,15.67.44,19.81,2.11Z"/>
    <path class="st7" d="M309.19,406.62c1.51.17.6,1.79,2.9,2.97-.02.41.12,1.12.01,1.51-3.5-.71-6.36-3.03-9.58-4.07.18-.3.38-.58.65-.79,5.33-.12,5.07,2.71,6.38,1.03.13-.16-.36-.4-.37-.65Z"/>
    <path class="st10" d="M257.77,431.91c.09-.26.47-.67.34-1-.09-.22-.62-.16-.76-.25-1.04.28,5.59-2.9,7.78-2.55.3.05.25.56.22,1.03-.02.38-6.68,2.51-7.58,2.76Z"/>
    <path class="st11" d="M241.76,431.49c-1.84.3-4.08,1.02-5.9,0h5.9Z"/>
    <path class="st11" d="M310.87,405.78c-.78-1.52-1.55-3.19-2.55-4.58l.49-.06c.61,1.29,1.75,2.47,2.13,4.14.46.21.35.55-.08.5Z"/>
    <path class="st7" d="M369.45,407.04c-.41.52-1.06.68-1.69.85,0-.48-.69-.52-1.23-.39l-26.57,6.65-5.95,1.37c-.48.11-.42-.85-.36-1.12.08-.37.79-.04,1.18-.2,3.18-1.32,6.36-1.8,9.67-2.65l16.77-4.27s12.09-3.01,7.82-.47c-.13.08.22.34.37.24Z"/>
    <path class="st9" d="M276.32,429.81l-.08,1.18-19.81,4.69c-5.63,1.33-10.95,2.77-16.36,3.82-.33,0-.77.08-.83-.21-.21-.92.06-.91.8-1.09l16.29-3.92c1.15-.28,2.08-.85,3.12-.68.44.07,1.11.07,1.26-.42.14,0,.28-.01.42,0,.58.06,4.89-.09,4.21-1.26.95-.28,2.05-.24,3.25-.5l7.7-1.61Z"/>
    <path class="st9" d="M275.89,431.49c.7,1.07-3.26,1.29-3.37,1.26.91-.8,2.23-.91,3.37-1.26Z"/>
    <path class="st11" d="M367.75,407.89l-27.74,7.1-.06-.83,26.57-6.65c.55-.14,1.23-.09,1.23.39Z"/>
    <path class="st11" d="M396.84,399.88c-2.6,1.28-5.62,1.5-8.61,2.32l-11.62,3.16c-.54-.79-1.69-.31-2.53-.47l.42-.38c1.6.03,3.19.15,4.69-.7-1.76-.33-3.21-.04-4.69-.14-4.5-.29-9.12.58-13.49-.42l17.1-.07c.27,0,.87-.39.97-.56s-.42-.43-.38-.66c.99.04,2.01-.28,2.95.2-.64.81-1.74-.31-1.7.87.97.4,19.32-3.16,16.82-4.79.55.13.61.29.4.93-.07.21-.19.47-.35.7Z"/>
    <path class="st11" d="M276.24,430.99c.15-.04.34.1.5.08v.42c-.27.06-.58-.08-.84,0-1.14.35-2.46.47-3.37,1.26-1.25-.29-2.32.27-3.65.59l-20.34,4.88-6.76,1.7c-.27-.63-1.12-.42-1.69-.42,5.41-1.06,10.73-2.49,16.36-3.82l19.81-4.69Z"/>
    <path class="st7" d="M325.62,418.43v3.82c0,.44-.06.85-.42.82.29-5.35-.66-3.22-1.32-4.56-.45-.94-1.33-1.06-2.15-1,0-.52-.21-1.08-.75-1.19.9-.7,2.12-.82,3.05-.34,1.07.55,1.57,1.32,1.58,2.45Z"/>
    <path class="st9" d="M280.53,430.32c-1.23.3-2.56,1.13-3.41-.41.15-.38,3.12-1.19,3.65-.54.25.31-.05.56-.24.95Z"/>
    <path class="st7" d="M320.56,416.32c.16.8-.73,1.05-1.26,1.26-.4-.13-.71-.43-.82-.84l-.03-1.26c.61.33,1.44.61,2.11.84Z"/>
    <path class="st9" d="M276.74,431.49v-.42c.5-.02.49.44,0,.42Z"/>
    <path class="st3" d="M254.82,305.03c.15-.39.45-.7.84-.84l-.32.74c-.08.19-.28.62-.52.1Z"/>
    <path class="st11" d="M261.14,342.55c.33.03.43-.39.43-.82v-7.61c1.28,3.03-.2,6.45.54,9.66-1.01-.11-.96-.74-.97-1.23Z"/>
    <path class="st11" d="M263.67,336.55c-.04.15.07.37,0,.51-1,2.37-.14,5.06-.42,7.59-.33.03-.43-.39-.43-.82l-.02-6.39c0-.62.49-.87.87-.89Z"/>
    <path class="st11" d="M255.25,323.95c-.33.29-.49,1.05-1.04.88-.34-.11-.48-.59-.65-.84.18,0,.46.08.61-.02.2-.13.26-.43.25-.79l-.02-4.25c1.03-.15-.18,3.82.85,5.01Z"/>
    <path class="st2" d="M349.22,393.13l11.38.04c.14,0,.28.01.42,0,.12.35.52.39.84.38,5.61-.16,9.38,2.11,15.59,2.11.32,1.19,7.49.01,7.59,0,3.47-.44,6.78-1.4,10.11-2.53.5.29.92.86,1.26,1.26-.69.32-1.53.11-2.37.83l2.24.9c-3,2.25-6.37,2.76-9.56,3.32h-9.67c-.29.01-.49.25-.44.42l-12.64-1.26c.04-.29-.04-1.05.46-1.15,1.22-.24,2.3-.04,3.33-.12,3.19,1.01,18.79,2.53,22.46-.36-6.44.68-12.77,1.52-19.16,0-4.29-1.02-8.42-1.58-12.57-2.17-.97-.14-2.02-.53-3.37-.55s-2.43.47-3.37.55c-7.63.66-14.86,3.79-20.65,8.81-.45-.07-.82-.23-.86-.63-.13-1.35,1.2-.94,1.28-2.28,4.13-3.33,8.79-5.64,14.15-6.94,1.32-.32,2.31-.65,3.55-.64Z"/>
    <path class="st9" d="M353.86,386.82c.7.29.26,1.18,0,1.68-9.79.86-29.82,10.53-29.92,21.5-1.03-.17-1.31-1.16-1.23-2.11.33-2.19.85-4.37,2.53-6.37,3.05-3.64,6.85-6.67,11.09-9.02,5.55-3.07,11.59-4.37,17.53-5.68Z"/>
    <path class="st11" d="M211.31,427.81c-.58-.49-1.37-.79-1.58-1.32l-.17-2.41c1.53,1.17,2.14,2.41,3.85,3.16-.85.85-1.48.36-2.1.57Z"/>
    <path class="st11" d="M307.11,286.88c.18-.14.45-.59.37-.82l2.15,2.12c.33.32.76.59,1.07.82.44.32-.14,1.27-.55,1.17-1-1-2.03-2.41-3.03-3.29Z"/>
    <path class="st9" d="M307.4,356.84c.14-.53.36-1.04.92-1.26-.2.69,5.21.71,6.35.03,1.29-.77,2.77-1.13,3.9-2.56-2.19.36-4.14-.09-6.01.49l-3.9,1.22c-1.7-.54,1.8-2.63,2.7-2.95-2.05.65,6.92-.25,5.75.32l4.75-2.31c.96.25-.06,1.41-.45,2.01-4.71,7.09-7.74,5.14-14.01,5Z"/>
    <path class="st11" d="M306.65,357.7l-2.1,5.01c-.54,1.29-1.41,1.85-2.36,2.46.46,1.3-1.64,4.73-2.42,4.77.08-.39-.17-.84-.33-1.18.36-2.62,5.21-7.76,5.52-11.04.55-.09,1.13.04,1.68-.02Z"/>
    <path class="st3" d="M306.97,350.13l-.61.85c-.87-.1-1.07-3.54-2.14-4.63l-.09,8.43c-.33.03-.43-.39-.43-.82l.05-7.22c0-.37-.06-.67-.27-.8-.15-.09-.43-.03-.61-.02,0-.68-.1-1.79.58-2.35.82-.68,1.84.03,2.13.9s.27,1.85.74,2.63c.62,1.03.98,1.96.66,3.02Z"/>
    <path class="st10" d="M291.49,352.71c-.2-.03-.45-.13-.77.02-.16.96-.06,1.7-.07,2.47-.49-.38-.51-.88-.55-1.73l-1.51,1.73c-1.51-.7,1.64-1.53,1.64-4.64.56.54,1.18,1.33,1.27,2.15Z"/>
    <path class="st11" d="M302.44,356.46v-9.67c.01-.29.25-.49.42-.44,0,3.32.61,6.96-.42,10.12Z"/>
    <path class="st11" d="M314.66,355.61c-1.14.68-6.55.66-6.35-.03.09-.12.14-.38.33-.43.17.26.48.43.95.5l5.08-.04Z"/>
    <path class="st3" d="M304.13,355.19h.42c-.17.1-.2.32-.21.42-.02.15-.5.58-.57.22-.04-.21.45-.51.36-.64Z"/>
    <path class="st7" d="M311.74,312.99l-4.84,5.3c-.59.64-1.12,1.01-1.54,1.49-.24-1.13-.31-1.92.03-2.95-.08.08-.03.22.23.45,1.68-1.96,3.67-3.53,5.69-5.09-.08.24.09.86.42.79Z"/>
    <path class="st10" d="M319.72,311.35v-2.11c.69.36.69,1.74,0,2.11Z"/>
    <path class="st10" d="M319.72,308.82h-.84c-.25-.12.64-.8.63-.8.37.08.21.6.21.8Z"/>
    <path class="st10" d="M319.3,313.04c-.02-.46-.09-1.07.42-1.26.09.74-.13,1.04-.42,1.26Z"/>
    <path class="st11" d="M299.14,372.9c.09-.26.31-.52.35-.8.26-1.51,3.86,5.82,2.59,5.69-1.46-1.49-2.57-3.18-2.94-4.89Z"/>
    <path class="st11" d="M266.21,309.71c.54.6,1.3,1.08,1.38,1.95-.67-.03-.81.64-1.16,1.41-.79-.39.04-3.19-1.49-2.99.32-.4.75-.43,1.27-.38Z"/>
    <path class="st7" d="M228.7,315.16h1.69c.24.28.66.43.84.83,0,.34.08.71.42.84.12.43.39.79.41,1.26.04,1.1.56,1.65-.41,2.11-.77-1.54-3.5-2.51-4.64-4.67.55-.18,1.11-.31,1.68-.37Z"/>
    <path class="st7" d="M226.59,315.57c-.42-.11-.7-.45-.84-.84.41.03.69.53.84.84Z"/>
    <path class="st7" d="M270.84,303.34c.4.59-2.88,5.56-1.26,5.9-.57,1.61-1.18-1.2-1.69-1.26.76-2.45,1.41-5.13,2.96-7.17-.18.86-.14,1.73-.01,2.53Z"/>
    <path class="st11" d="M334.47,313.04c-2.25,1.07-4.69.04-7.14.48.08-.71.5-.76.82-.9-.03.33.38.43.82.43h5.5Z"/>
    <path class="st10" d="M297.81,337.49c.09-.43-.18-1.11.42-1.26,0,.45.1,1.09-.42,1.26Z"/>
    <path class="st7" d="M311.25,333.75c-.69-.08-1.02.51-1.12,1.13l-.95.08c-.11-.99-.76-4.72.14-4.08,1.1.47,1.6,1.81,1.93,2.87Z"/>
    <path class="st11" d="M310.13,334.88c.29-.02.28.33.4.46l-.53,4.28c-.09.69-.62,1.31-.39,2.09-.97-2.09-.17-4.5-.42-6.74l.95-.08Z"/>
    <path class="st7" d="M311.32,340.86c-.23.71-.23,1.55-.89,2.06-.72,0-.61-.76-.83-1.22-.22-.78.31-1.4.39-2.09.41.47.6,1.25,1.32,1.25Z"/>
    <path class="st3" d="M312.56,336.22h.42c0,.17.06.39,0,.62-.08.28-.32.28-.42,0-.07-.2.1-.52,0-.62Z"/>
    <path class="st11" d="M307.08,300.81v-5.48c.63-.97.63,5.97,0,5.48Z"/>
    <path class="st10" d="M303.18,406.25c-.27.21-.48.5-.65.79-5.2-1.68-10.67-2.65-16.09-2.95-.44-.61-1.49-.54-2.22-.5-.14-.45-.44-.82-.73-1.19,3.83-.13,17.02.73,19.7,3.84Z"/>
    <path class="st11" d="M284.21,403.6c.72-.04,1.78-.12,2.22.5-2.79-.15-5.64-.03-8.43,0-.8-.61,5.16-.44,6.21-.5Z"/>
    <path class="st11" d="M315.93,413.84c-.73-.32-1.42-1.07-2.11-1.32v-.42c.93.2,2.06.68,2.11,1.74Z"/>
    <path class="st3" d="M313.4,415.05c.3-.02.44-.31.55-.15.2.29.49.68.28.79-.23.12-.47.18-1.09.31.04.44.7.62.68,1.16-2.46-.56-5.04-1.26-7.59-1.26.03-.33-.38-.43-.82-.43h-5.52c-.44,0-.85.1-.82.43-6.38,0-12.51,2.59-18.16,5.82l-7.25,4.15c-1.24.71-2.65,1.06-4.1.98-.08-1.07.81-1.42,1.63-1.74,5.7-2.19,12.18-7.6,20.29-9.58,5.01-1.22,9.87-1.76,14.93-1.07,2.11.29,4.13.27,6.18.97.35.12.91-.09.81-.38Z"/>
    <path class="st3" d="M292.11,425c-6.34,1.44-8.79,1.91-15.3,3.65-.46.12-1.02.29-1.29.14-.31-.16-1.04-.91-.7-1.23,3.07-.62,5.84-1.41,8.83-2.2,6.46-1.71,12.89-2.74,19.19-3.87,0,.74.1,1.04.02,1.35-.05.19-6.1,1.1-6.99,1.3l-3.76.85Z"/>
    <path class="st2" d="M299.91,417.58l8.47-.05c.73,0,.79.6.8.89-2.73-.09-5.4-.08-8.01.42-3.21.62-6.47.59-9.67,2.26-.21.11-.83-.33-1.07-.17-.2.14-.3-.58-.08-.83,3-1.45,6.29-2.51,9.56-2.53Z"/>
    <path class="st7" d="M314.24,418c0,.21.23.37.42.42-.15.68-.89,1-1.69.88l-2.95-.46c-.23-.23-.53-.36-.84-.42,0-.29-.07-.89-.8-.89l-8.47.05c-.98-.79,8.52-.33,8.73-.3,1.98.22,3.79.78,5.6.73Z"/>
    <path class="st11" d="M309.19,418.42c.32.06.61.2.84.42h-8.85c2.61-.5,5.27-.51,8.01-.42Z"/>
    <path class="st11" d="M304.13,412.52h-8.85c-.03-.32.39-.43.82-.43h7.21c.44,0,.85.11.82.43Z"/>
    <path class="st11" d="M306.24,415.9h-7.16c-.03-.33.38-.43.82-.43h5.52c.44,0,.85.1.82.43Z"/>
    <path class="st11" d="M261.14,433.18c1.26-.75,2.8-.85,4.21-1.26.67,1.18-3.64,1.32-4.21,1.26Z"/>
    <path class="st3" d="M314.66,418.42c-.19-.05-.42-.21-.42-.42v-.84c.3-.27.59-.53.84-.84.4-.07.56.36.37.77-.26.55-.69.89-.79,1.34Z"/>
    <path class="st11" d="M260.72,433.18c-.15.49-.83.49-1.26.42.18-.52.81-.43,1.26-.42Z"/>
    <path class="st7" d="M318.03,416.74c-.19-.08-.34-.23-.42-.42.19.03.31.3.42.42Z"/>
    <path class="st11" d="M317.19,414.21h-.42v-1.69c.19.5.6,1.08.42,1.69Z"/>
    <path class="st7" d="M366.07,400.3c-.35.21-.69,0-1.26.13.47.27.8.63.85,1.13-.99-.02-2.43-.31-3.37-.42-.26-1.19-9.22.08-7.16,0-7.27.29-14.14,2.91-20.31,7.1-2.07,1.4-4.03,2.63-5.83,4.22-.12-.02-.38-.13-.35-.24.04-.17.18-.43.32-.61l2.17-2.87c3.25-2.3,6.49-4.88,10.41-6.39,3.42-1.32,7.02-2.69,10.68-2.75l11.34-.19c1.05-.02,1.91.59,2.53.9Z"/>
    <path class="st7" d="M351.33,396.5h8.85c2.61,0,5.12.06,7.59.84-1.03.07-2.11-.13-3.33.12-.5.1-.42.86-.46,1.15-5.83-.58-4.25-1.09-10.58-.6-6.5.5-11.08,1.9-16.78,5.3-2.29,1.37-4.21,3.23-6.92,4.41-.62-1.31.88-1.63,1.49-2.29,3.31-3.57,7.42-5.87,12.06-7.32,2.78-.87,5.36-1.61,8.08-1.61Z"/>
    <path class="st9" d="M396.78,398.25c2.5,1.63-15.85,5.2-16.82,4.79-.03-1.18,1.06-.06,1.7-.87-.94-.48-1.96-.16-2.95-.2-2.85-.12-5.8.27-8.8-.1-1.55-.19-2.88-.27-4.26-.3-.05-.5-.38-.86-.85-1.13.58-.13.92.07,1.26-.13,1.64-.06,3.26.26,5.08.31l8.36.22c2.23.06,4.14.39,6.42-.06,2.89-.56,9.85-2.77,10.86-2.53Z"/>
    <path class="st10" d="M374.5,403.67v.84l-.42.38c-1.16-.08-2.21.5-3.48.69-.48-.15-1.16-.44-1.57-.64-1.28-.63-7.68-.69-7.59,0-6.56,0-10.27,1.59-16.27,3.09-.64.16-.87.45-1.25-.13-.14-.21-.4-.78.12-.99,4.04-1.56,9.59-3.35,13.61-3.23,1,.03,2.15.25,2.95-.43.14.02.29-.03.42,0,4.36,1,8.99.13,13.49.42Z"/>
    <path class="st3" d="M331.1,403.63c-1.52,1.32-2.58,3.29-3.98,4.91-.29.34-1.61.25-1.53-.11.87-3.66,3.44-5.72,5.93-7.72-.08,1.34-1.41.93-1.28,2.28.04.41.41.56.86.63Z"/>
    <path class="st10" d="M323.93,409.99l-.03,3.35c0,.41-.39.78-.62.86-2.2.78-.44-7.26-.58-6.31-.08.95.2,1.93,1.23,2.11Z"/>
    <path class="st10" d="M360.6,393.17l-11.38-.04c-.03-.33.39-.43.82-.43h9.73c.46,0,.88.12.82.47Z"/>
    <path class="st11" d="M386.72,399.46c-3.29.57-6.73.76-10.11.42-.05-.17.15-.41.44-.41h9.67Z"/>
    <path class="st11" d="M360.18,396.5h-8.85c-.03-.32.39-.43.82-.43h7.21c.44,0,.85.11.82.43Z"/>
    <path class="st11" d="M385.04,395.66c-.1.01-7.26,1.19-7.59,0h7.59Z"/>
    <path class="st11" d="M369.03,404.94h-7.59c-.09-.69,6.31-.63,7.59,0Z"/>
    <path class="st11" d="M362.28,401.14h-7.16c-2.05.08,6.9-1.19,7.16,0Z"/>
    <path class="st10" d="M358.49,394.82h-6.74c.94-.08,2.04-.57,3.37-.55s2.4.41,3.37.55Z"/>
    <path class="st11" d="M328.97,412.46c-.22.19-.23.6-.6.53-2.27-.43,2.21-3.88,2.73-4.25l-2.17,2.87c-.14.18-.28.44-.32.61-.03.11.23.22.35.24Z"/>
    <path class="st11" d="M360.6,403.25c-.79.68-1.95.46-2.95.43.66-.88,1.97-.28,2.95-.43Z"/>
    <path class="st10" d="M361.86,393.55c-.32,0-.73-.03-.84-.38.33-.02.77-.02.84.38Z"/>
    <path class="st2" d="M374.5,404.51v-.84c1.48.1,2.93-.19,4.69.14-1.5.85-3.1.73-4.69.7Z"/>
  </g>
</svg>