<?xml version="1.0" encoding="UTF-8"?>
<svg id="Layer_1" xmlns="http://www.w3.org/2000/svg" version="1.1" viewBox="340 168 557 865"><metadata><?xpacket begin="" id="W5M0MpCehiHzreSzNTczkc9d"?><x:xmpmeta xmlns:x="adobe:ns:meta/" x:xmptk="XMP Core 6.0.0"><rdf:RDF xmlns:rdf="http://www.w3.org/1999/02/22-rdf-syntax-ns#"><rdf:Description rdf:about="" xmlns:xmp="http://ns.adobe.com/xap/1.0/" xmlns:xmpMM="http://ns.adobe.com/xap/1.0/mm/" xmlns:dc="http://purl.org/dc/elements/1.1/" xmlns:dcterms="http://purl.org/dc/terms/" xmpMM:DocumentID="xmp.did:cb9f5498-bb58-4572-8043-8c369e6bfb9b" xmpMM:InstanceID="xmp.iid:cb9f5498-bb58-4572-8043-8c369e6bfb9b" dcterms:provenance="https://cai-manifests.adobe.com/manifests/urn-c2pa-6c5959f3-3c17-4fe6-a8c1-16b9d522baa6-adobe"> </rdf:Description></rdf:RDF></x:xmpmeta>
<?xpacket end="w"?></metadata>
  <!-- Generator: Adobe Illustrator 30.8.1, SVG Export Plug-In . SVG Version: 2.1.4 Build 1)  -->
  <defs>
    <style>
      .st0 {
        fill: #da7b05;
      }

      .st1 {
        fill: #fdd762;
      }

      .st2 {
        fill: #f4aa1c;
      }

      .st3 {
        fill: #fab930;
      }

      .st4 {
        fill: #eb9a15;
      }

      .st5 {
        fill: #e8910b;
      }

      .st6 {
        fill: #e28b0b;
      }

      .st7 {
        fill: #dd8208;
      }

      .st8 {
        fill: #c96902;
      }

      .st9 {
        fill: #f6ae22;
      }

      .st10 {
        fill: #d17205;
      }

      .st11 {
        fill: #fcc743;
      }

      .st12 {
        fill: #fddd6d;
      }

      .st13 {
        fill: #fdd051;
      }

      .st14 {
        fill: #fbbe34;
      }

      .st15 {
        fill: #f1a51a;
      }
    </style>
  </defs>
  <path class="st11" d="M822.1,383.96c4.13,2.97,5.95,8.7,8.35,13.54l5.4,10.86c16.05,32.3,27.43,66.7,33.33,102.42.98,5.94,2.1,10.92,2.32,16.16-2.68.79-2.24-2.81-3.16-3.38-1.59-.98-4.44.01-4.69-2.93-.16-1.93-.57-3.49,1.1-5.8-3.78-.17-8.04,2.32-8.18,5.27-.03,1.83,3.02,4.87.71,7.22l-4.02,4.08c-1.96,1.99-4.51,6.07-2.43,8.48.45.36,2.48.18,2.07,1.56-.27.89-.96.75-1.3,1.05-1.69,1.49-3.16,1.45-4.81-.1-.64-.17-1.59,1.37-1.57,2.05.01.59.4,1.6.97,2.26,2.14,2.47-.43,5.24-.74,7.19-.19,1.15,1.7,4.37-.68,4.77-4.23.7-6.12,3.01-9.35,5.96-.95.87-3.83,2.38-1.76,3.91.84.62,3.37.39,3.33,2.12-.1,3.7-6.37,1.67-5.96,4.79.1.74.98,1.79,2.12,2.67-2.18,2.32-5.29,2.44-8.07.36.38,2.07,1.52,4.01.82,4.63l-3.01,2.72c-.3,1.98,2.31,1.59,2.52.18.08-.56.4-1.73,2.24-2.24.41,1.77-.61,5.86-2.58,6.76-6.24-2.63-4.21,6.65-12.21,5.6,1.29,1.71,1.69,2.62,1.25,4.74,1.09.76,2.33,1.53,2.22,3.41-2.93-.47-4.16-2.3-6.38-3.24l-11.41,5.83c-2.64.72-7.73-3.18-10.96-.02-1.53,1.5-2.95,3.38-5.06,3.21-5.4-.45-11.6-5.42-10.36-11.31-1.29.62-2.8,1.31-3.66.98-1.88-3.12-3.66-6.06-6.15-8.63-1.14.86-3.18,1.43-3.72.55l-3.49-5.69c-1.57-2.56-5.84-2.28-7.07-4.79,3.3.52,4.96.95,6.48-.11,1.35-.94,2.19-2.54,1.47-4.26-.45-1.06-1.88-3.04-3.6-2.41-.94.35-2.07,1.59-2.78,1.61-1.03.02-1.55-1.99-2.01-2.44l-5.69-.45c-1.01.84-1.53,4-4.04,4.27-2.73.29-4.76-2.31-4.23-4.76.5-2.32,2.38-3.59,5.64-4.37-4.26-1.92-5.93-3.95-7-8.19-3.51,1.07-1.62,7.99-4.64,7.87-.98-.04-1.58-1.75-2.06-2.28-1.54-.04-3.48.58-4.83-.79,4.72-3.75,9.69-8.25,10.08-14.86.39-6.58-4.27-10.58-9.29-13.53-7.97-4.7-12.37-14.18-10.07-23.05,1.6-6.14,7.31-9.56,12.48-11.39,1-.36,1.69-1.11,2.06-2.05,1.98-1.43,4.29-3.21,5.75-5.16l.86,1.88c.9,2.45,3.19-1.95,4.87-1.94,2.8.01,2.23,4,4.54,8.17l-3.33-.77c-.49-.11-1.97,1.16-1.63,2,1.43,3.51,5.33,4.46,9.09,5.48-1.1,1.18-2.27,1.88-2.43,2.89-.09.54,6.57,7.3,2.38,8.03-.88.15-3.53-1.49-3.5.74s.18,4.6-1.91,6.9c1.64,1.69,3.25,3.13,5.32,4.03.6.05,1.14-2.36.62-2.47s-2.13-.2-2.54-1.09c-.88-1.91.64-4.87,2.67-5.69.29,3.36,2.09,5.05,4.78,6.79-1.67,1.27-2.82,2.58-2.76,3.62.17,2.98,4.62,4.02,4.3,8.15-.7-.07-1.76-.65-3.35.08,1.15,2.27,4.15,2.85,7.67,2.16.7,3.22-.74,6.2-.7,9.37.02,1.56,2.66,3.56.44,6.58,1.9.27,2.61-.04,3.34-1.68,1-2.23-3.53-5.12-.82-5.72s1.46,8.05,12.86,9c1.4,7.44,7.48,3.75,13.92,9.98.5-1.85,2.04-3.54,2.89-3.22.79.29,2.31,1.6,2.2,2.6-.1.87-6.02,4.2-3.03,4.1,2.43-.08,4.66-2.32,8.87-.76,2.29.85,2.73,2.81,2.98,5.28l8.01-2.61c3.34.11,7.21.25,9.18-3.92l-7.94,2.34c1.21-1.62,2.02-2.92.69-4.48-2.16.31-1.49-2.81.2-1.73,1.4,1.87,2.57.88,3.13.25.75-.84.54-2.08-.18-2.32-.66-.22-2.1.31-3.22-1.31,13.52.27,12.71-6.33,13.58-6.5s3.06.64,4.57-.76c-2.8-2.4-6.68-1.05-10.4.93.12-5.99,11.33-4.65,16.35-13.94-2.22-.61-3.02.76-4.9,2.35-2.36-7.13,9.69-4.64,10.06-14.18,1.88-.46,3.92-.55,5.24-1.68l.87-11.11c1.21-2.81,2.4-4.64-.07-8.02l4.95-1.62c-3.04-3.73-.45-7.52-.58-10.82-.23-6.12-3.72-11.37-5.04-17.11,3.89-5.13,2.87-10.99-2.17-14.87l-2.89-5.82c-2.76-2.66-1.32-4.59-.95-7.52.47-3.7-1.89-7.73-2.43-11.16-2.3.19-3.22.26-5.21-.1-.53-7.11-2.93-11.13-7.03-15.81l-3.55-9.49-3.56-5.2-7.65-1.8-.05-5.22c-2.6,1.68-4.01,1.47-6.08,1.21-1.4-.18-2.38-2.03-3.42-3.42-3.44.48-7.23,1.22-10.57.57l-2.72,1.37c-.52.26-2.25-.65-2.77-1.49-4.22-6.68-12.89-.21-14.45-7.94-1.69,1.21-1.84,2.46-2.3,3.12-.28.41-1.9-.5-2.46-.3-4.1,1.45-4.94,5.88-5.09,10.38-4.47-2.01-9.14-3.1-12.67-.71s-3.81,7.33-6.12,10.36l-1.45-2.89c-.37-.74-1.49-.53-1.53.39-.08,1.77-.59,2.9.25,4.84.65,1.68-2.34,2.48-2.18.08-.32-1.83-1.38-2.63-2.32-2.78-3.25-.49-2.15,4.37-5.03,4.2-1.2-.07-1.51-1.33-2.01-2.84-.74-.8-3.11,1.14-3.35,2.46-.17.93,1.34,2.11,1.76,3.53.68,2.3-1.99,5.77-4.11,5.25l-.83-1.93c-.13-.31-.8-.86-2.39-.23,1.87,5.63-3.28,7.07-1.99,9.62,1.16,2.3,4.49,1.99,6.01,5.12,1.6,3.32-1.03,12.81-7.23,12.21-.58.77-.5,2.16-.33,2.76l-13.37-6.58-16-8.01-8.79-5.32c2.62-.59-4.31-3.72-2.81-4.5l2.37-1.22c.72-2.26,2.13-4.47,3.46-6.27-.99-1.11-2.41-2.76-1.87-4.24.56-.54,1.15-1.59,2-1.86,6.54-2.05,9.93-16.91,13.76-18.05,4.42-1.31,8.92,3.39,10.45,2.1l3.08-2.6c.93-.78,2.97-.08,3.68-1.09.96-1.36.07-4.58,2.09-5.87,1.87-1.19,6.81,2.34,11.68.09,1.22-.99,1.2-3.68,3.81-4.86.19,1.69,1.06,3.31,2.68,3.03,1.89-.33,2.71-1.16,3.91-2.74,2.14-2.82,6.34-2.64,9.63-3.14l2.64-1.87,2.65,1.65,6.57-2.01c1.19-.36,2.17-1.54,2.09-2.25s-1.12-2.25-.43-3.21c1.36-1.9,5.09-1.73,7.25-.48l-2.55,4.16,7.22-2.99-2.5,5.23c2.51-.07,3.47-1.34,4.51-3.31,3.46,2.06,5.33,1.14,8.35-.55,2.19-.45,6.86-.38,9.05.64l7.26,3.36,2.04,3.64c.4.72,3.49.32,5.14-.06l2.23,4.12c5.96-.48,11.45,2.49,13.42,7.86-.87.81-1.5,1.17-2.15,2.28,4.73,4.36,10.27,3.34,16.51,5.6-.12-4.14-4.55-4.76-5.59-6.86-1.5-3.01-2.85-4.99-5.54-6.7,4.87-5.03-2.89-8.73.2-12.22ZM716.11,433c0-.61-.5-1.11-1.11-1.11s-1.11.5-1.11,1.11.5,1.11,1.11,1.11,1.11-.5,1.11-1.11ZM845.11,465c0-.61-.5-1.11-1.11-1.11s-1.11.5-1.11,1.11.5,1.11,1.11,1.11,1.11-.5,1.11-1.11ZM747.5,535l-.5.5.5.5.5-.5-.5-.5ZM823.11,566c0-.61-.5-1.11-1.11-1.11s-1.11.5-1.11,1.11.5,1.11,1.11,1.11,1.11-.5,1.11-1.11ZM787.11,576c0-.61-.5-1.11-1.11-1.11s-1.11.5-1.11,1.11.5,1.11,1.11,1.11,1.11-.5,1.11-1.11Z"/>
  <path class="st4" d="M853.91,710c.51,2.74-1.81,5.38-2.72,8.12l-4.25,12.76-4.91,11.15c-.44-1.25-.33-2.72-2.5-4.07l.07,4.59c.03,1.73-1.14,2.93-1.01,4.49l.16,1.82c-1.79.05-3.12,1.43-4.63,2.31.76-3.62.65-7.29-.18-11.16,1.73-1.41,2.61-4.9,3.65-6.31,1.96-2.66,2.38-4.25,2.48-7.64l.4-12.65c-.82-1.79-4.44-4.07-3.63-7.04-1.5-.77-4.21-.15-5.14,1.91,1.3.6,2.46.08,3.93,2.24-3.45.02-5.09,2.54-7.57,3.52-6.34,2.49-3.58,6.3-4.68,6.96-2.44,1.46-3.4-3.44-7.8-7.07l13.06-4.41,3.27-7.66c.59-1.39-1.97-5.17.66-6.57,1.92-1.03,6.59.88,8.31,2.69l1.89,6.13c1.99,2.2,3.72,3.39,5.1,6.5,4.4-6.42-2.52-15.17,1.53-20.14.89-1.09,4.63-2.43,3.57-4.46-1.47-2.4-3.88-4.39-2.83-8.03l-7.08,4c-1.68.95-3.67,1.11-4.24,2.6-.73,1.92.48,3.23,2.68,4.56-3.93,1.65-7.15.75-10.82-1.54-.39,3.52-1.44,5.12-4.44,5.71-3.95.78,2.07,6.6-1.14,9.35-5.72-2.07-8.4,3.84-14.9,3.4l.81,3.42c.2.86-2.16,1.9-2.48,2.85-1.05,3.11-2.18,4.66-5.29,6.08-1.08.85.82,3.9,2.12,4.73.27,1.58-2.74,2.24-4.09,2.27-1.21,2.78-4.05,4.27-7.4,3.67-.68,1.38-.87,3.87-2.29,4-2.52.23-3.63-.97-5.67-2.37-1.9-1.31-5.4,2.27-5.01,4.94-6.81.26-9.78,3.36-15.83-1.14-3.28,2.23.88,6.55-.68,9.14-.27.45-1.26,1.14-1.78,1.11-1.32-.07-1.32-3.86-3.15-5.02-.5-.31-2.26.9-2.19,1.57.48,4.1-4.72,3.87-5.84,5.82l-5.56,9.67c-1.12,1.94-4.81,2.72-6.01.13.76-1.38,3.25-1.5,5.94-1.63-3.12-5.33-7-8.92-12.62-9.52.06,1.9.1,3.17-.31,4.38-.27.79-1.52,1.29-3.04,2.08-.66.68-.17,3.21-1.89,4.15l-3.95-5.19c-.76,4.01-2.94,3.5-5.72,4.23-1.7.45-.61,4.49,1.07,5.35-5.15,3.67-4.74,10.45-11.7,10.74-.48-.5-1.5-1.39-1.91-1.13l-2.92,1.86c-.34-2.77-1.48-4.01-3.35-4.06l-2.24,8.04,4.15-1.23c.68-.2,1.75,1.43,1.41,2.21-1.93,4.44-6.16,2.12-8.58,7-4.45-.39-7.7,3.07-8.88,7.47-.88,3.3-1.84,5.09.39,8.87.61,1.03-2.01,2.26-3.02,2.57-1.58.48-2.7.15-4.1-1.2-1.71,3.23-2.41,5.92-1.98,8.76-.64,1.07-2.37,2.43-2.47,3.85s.6,2.22,1.78,4.97c-1.61-.62-2.68-1.6-5.13-1.54.41,2.52,1.23,7.12-.93,7.86l-4.93,1.69c-1.64.56-1.75,4.56-.42,6.03.72.03,3.88-.14,3.69,1.42-.3,2.51-3.23,5.03-5.23,6.13-.35.19-1.29-1.02-1.22-1.36.13-.59-1.61-1.14-1.7.21-.1,1.51-.16,2.86-.71,3.85-.68,1.22-2.62,1.16-4.13,1.46-2.2.44-1.74,3.22-2.22,4.4l-.96,2.36-4.64,1.14c1.59,2.25,3.02,3.99,2.88,6.3-.12,2.01-1.56,3.77-3.72,5.27-.84-.84-.86-1.71-2.99-2.45,1.25,4.61-1.1,5.33-3.42,6.99-3.92,2.81-4.8,8.33-4.1,12.48,1.57,9.22-5.79,7.39-5.03,11.57.17.9,2.09,1.42,2.64,2.01.14,2.02-3.86,1.93-4.94-.3l-5.04,3.92c-.78-1.1-.24-2.37.35-2.62l3.72-1.57c.35-2.07-2.7-2.37-4.17-1.91s-3.69,1.7-3.38,3.98c.11.85,1.16,1.48,1.39,1.91.34.63-.35,1.99-1.3,2.54l-11.04,6.36c1.75,1.66,3.21.84,4.26.32.57,4.31-4.07.65-7.55,6.08l-2.52,1.97c-1.44,1.12.7,4.5.64,6.5-.02.58-1.88-.49-2.46-.28-1.65.59-3.42,1.38-5.29,1.09-2.16,3.81-5.75,6.41-10.23,7.86.88,2.34.33,3.77-.37,4.93-1.3,2.16-3.83,1.17-5.42,1.02-.75,2.46-2.06,3.73-3.64,5.51l-5.25,5.91c-.4.45-.52,1.93-1.95,1.62-1.1-.24-1.77-.99-2.51-2.41-.79-1.51-3.03.65-3.77.96-1.05-1.01-1.71-2.46-2.72-2.76-1.92-.58-3.16,1.29-4.43,1.8-8.83,3.5-7.49,8.29-10.95,7.35l-.08-1.28,1.11-.45c.57-.23,1.32-1.54.51-2.11-1.29-.91-2.75.3-3.65.7-1.11.5-2.18.81-2.88,1.65-1.04,1.25-1.58,2.79.29,4.28.88-1.25,2.31-2.02,3.73-2.15-.04,1.08-.85,2.45-1.91,2.81-.82.28-2.47.08-3.28-.5-3.72-2.65-8.03-2.81-12.11.01-.78-.82-1.92-3.2-2.58-2.9l-3.35,1.51c-.86.39-2.51-1.91-3.31-1.65-1.1.35-1.82,1.88-1.65,2.93l-3.93.03-1.6.49c-1.65.5-3.47.67-5.32,1.63l-2.74-2.64c.06,1.36-.33,2.79-1.57,3.68-.9.63-2.47.79-3.71.72-.43-.74-1.31-.99-2.1-.9-.08-2.26,2.84-5.32.49-6.86-1.27-.83-2.16-.09-2.95,1.37-1.2,2.24-4.71.92-6.16,1.32s-1.55-1.01-1.27-1.2l1.61-1.05c.85-.56-1.21-2.13-2.19-2.01-.84.1-3.07,1.16-2.63,2.05.93,1.92,1.51,3.03,1.07,4.42l-7.28-2.49c1.25-1.33,1.8-4.52.61-5.55l-4.94,1.27-.52,5.35-9.74-.07c-2.04.57-3.65.89-5.75-1.34-.57-.17-1.37-1.47-1.62-3.47l17.88-15.77c3.25,1.43,6.2-.5,8.3-3.4l11.84,4.78c6.37,2.57,7.67-4.95,10.92-5.32,1.34-.15,3.1.02,3.44,1.95-.65.65-2.13,1.49-2.03,2.76,1.37-.37,3.1-.99,3.36-.52l1.52,2.71,4.44-1.57,3.5,2.37c2.53-.78,6.36-1.48,8.68-1.4.72-2.21,1.69-3.7,4.34-4.74,2.51-.98,4.67-.66,7.17.73l2.06-3.89c.4-.75,3.07-.9,3.46.2.3.85.26,3.76,2.39,2.94,1.33-.51,2.77-3.85,5.03-3.72,4.57.26,8.51-.56,11.39-4.2,1.4,1.43,2.98,1.47,3.8,1.17.55-.21,1.54-1.12,1.81-1.74,1.24-2.88,3.04-2.43,5.2-3.09,1.57-.48,2.09-2.79,6.05-2.61l-3.16-3.98c3.15-1.84,4.89-4.42,8.29-5.12.06,2.54-1.14,4.44.99,6.2.25-4.3,1.57-7.29,4.33-9.92.14-.73-1.16-1.96-1.54-2.52,1.06-2.16,2.35-4.45,4.98-5.54-.64,3.8-1.51,6.02-1,9.8,4.02-.75,6.44-3.84,6.08-8.03l3.91-4.45c-1.6-.86-2.67-1.88-2.12-3.94l4,2.38c2.77-2.04,6.79-3.84,8.59-6.58.3-8.67,9.7-5.89,9.3-12.78-.25-4.21,6.03-2.61,5.06-5.25-.6-1.63-.91.48-3.23.29l4.85-6.53c.65-.88.49-3.68,1.48-3.98l4.25-1.29c.69-2.68,1.67-6.08,5.07-6.87l2.56-6.35c2.9-2.84,4.1-6.27,2.1-9.72.73-2.06,3.17-2.22,4.68-3.59l5.69-5.16c1.89-1.71.64-5.38,1.18-7.03l7.22-7.64c-1.13-.79-1.94-1.75-1.97-2.31s1.31-1.58,1.94-1.73c4.28-1.05,7.04-9.13,3.27-12.79,1.77-2.09,4.07-4.11,3.31-6.94.94,1.68,2.17,1.87,2.7,1.44,1.16-.93,1.05-2.81-.48-4.17,2.42-4.82.98-10.03,3.28-10.94,2.68-1.06,2.39.16,6.32-5.99.64-.99.02-3.47,2.3-4.13-.33-1.66-2.94-2.59-3.46-3.33-.88-1.92,2.69-3.41,3.28-4.61,1.55-4.01,3.82-8.23,7.9-10.54l4.6,1.07c2.83-4.85,5.63-9.79,9.64-13.49,1.61-1.49,4,1.78,5.27,2.21,3.1.86,7.2-2.73,9.89-3.78,4.17-1.62,8.63-2.01,11.63-4.98l-2.12-1.49c-.42-.3.07-1.63.45-1.53,4,1,8.88-3.25,13.91,1.25,6.48-7.74,14.99-1.42,22.29-8.41,1.28,1.05,2.94.59,2.88-.32-.03-.4.64-1-.29-1.22l-2.81-.66,4.32-4.99c.94-1.08,2.83,1.99,2.75,2.92,4.32,3.14-1.31-5.47,4.43-5.32,1.83.05,3.44-1.41,2.8-2.37l-1.67-2.5c-.81-1.21,1.34-1.54,2.04-.72l1.02,1.2c.83.97,1.47,1.48,2.32,1.39,2.35-.25-.94-3.17-.52-4.52.83-2.69,5.93,4.42,12.88-.61,1.57-1.14,3.57-1.82,3.65-4.83,6.76-.69,11-6.19,11.67-13.14.88.88,2.3,2.41,3.6,1.94,1.04-.38,1.99-1.88,2.77-1.93.64-.04,1.81.38,2.94.99l3.14-4.99c1.59-8.05,8.94-4.92,12.77-11.94.12-.68-.9-2.37.34-2.75l2.82-.87c.15-2.56-.87-5.13.03-7.7,2.06.12,4.19-.46,4.88-1.68.77-1.37,1.13-3.19,1.37-5.46l10.37-1.56-1.21-6.16c3.31,1.25,5.68,2.42,8.06,5.24l-5.62,1.82c3.41,2.53,6.43,7.48,3.95,10.2l-3.31,3.63c-1.46,1.6,1.31,3.48,1.36,4.64l.31,7.46-1.71,12.8-5.15,10.24c-2.39,4.75.16,9.58,1.01,14.17ZM828.13,679.22c.26-.5.83-1.38.73-1.68-.15-.44-.81-.54-1.22-.28l-1.41.88c-1.07.67-.84,1.21-.72,2.16.09.71,1.64.83,1.88.38l.75-1.46ZM824.11,685c0-.61-.5-1.11-1.11-1.11s-1.11.5-1.11,1.11.5,1.11,1.11,1.11,1.11-.5,1.11-1.11ZM812.94,690.64c-.18,1.53,1.16,1.6,1.55,1.37.54-.32.75-.92.51-1.51-.19-.47-1.32-1.18-2.07.14ZM778.71,714.17c1.88-.1,1.53-1.93.77-2.15-1.93-.55-3.51,1.18-3.4,1.54.1.33,1.2.69,2.63.61ZM738.94,728.64c-.18,1.53,1.16,1.6,1.55,1.37.54-.32.75-.92.51-1.51-.19-.47-1.32-1.18-2.07.14ZM707.17,738.13c-.2-1.58-2.14-1.58-2.34,0-.32,2.54,2.66,2.54,2.34,0ZM687.87,766.44c0-.87-.71-1.58-1.58-1.58s-1.58.71-1.58,1.58.71,1.58,1.58,1.58,1.58-.71,1.58-1.58ZM690.78,774.81c.41-1.14-3.11-2.7-4.02-1.14-1.6,2.78-1.3,6.26,1.25,8.84l2.77-7.7ZM676.11,782c0-.61-.5-1.11-1.11-1.11s-1.11.5-1.11,1.11.5,1.11,1.11,1.11,1.11-.5,1.11-1.11ZM678.94,798.64c-.18,1.53,1.16,1.6,1.55,1.37.54-.32.75-.92.51-1.51-.19-.47-1.32-1.18-2.07.14ZM630.25,883.37c-.69,2.65-3.04,3.47-3.02,5.64,1.86-.13,2.89-.1,3.65-.5.51-.27.7-1.1,1.02-2.42.34-.71,2.68-.7,1.74-3.28-1.02.16-2.49.17-3.39.57Z"/>
  <path class="st4" d="M524.03,962.8c-.33.62-.54,1.89-1.57,2.27-.94.35-1.74-.61-2.42-.81,1.49-3.97-3.5-2.57-4.1-6.26l7.09,1.94c1.16.31,1.23,2.08,1,2.85Z"/>
  <path class="st6" d="M840.08,726.07c-.11,3.39-.52,4.98-2.48,7.64-1.04,1.41-1.92,4.9-3.65,6.31.83,3.87.94,7.54.18,11.16l-1.01,4.83-.18,5.97c-.25.53-.91,1.31-.92,2.02l-1.18-.05c-3.14-.12-6.23,2.08-8.96,3.93-.79-.45-2.1-1.13-2.52-1.89-.88-1.59.56-2.63,1.95-3.8l.99-3.4,3.74-1.71c-.14-1.29-1.35-3.2-.81-4.24.51-.99,1.7-1.7,3.54-3-2.15-1.69-4.29-2.27-6.78-2.88-1.09,1.01-1.06,3.55-1.62,4.46-3,2.48-7.08.44-10.48.19.52,4.9-4.37,10.74-8.32,13.61-.71.51-.47,3.31-.92,3.99s-2.63.47-3.25,1.01c-4.09,3.54-7.77,2.68-12.78,2.06-2.95-.37-3.35,4.93-2.15,7.1,2.96,5.38-7.79,4.15-9.19,7.51-.86,2.07.9,2.86,2.81,5.78-4.9-1.01-8.34-.48-10.87,1.16l-2.92-.83c-1.59-.45-1.02,4.72-4.57,6.3-1.49.67-2.84.4-5.18-.75-1.68,3.73-8.51,5.27-10.79,2.22-1.81-2.43-2.16-3.26-5.27-2.95-2.3.23-3.57,1.17-4.75,4.01-.86,2.07-4.58,1.97-6.15,2.44-2.23.67-1.3,3.56-1.79,4.56-1.51,3.06-6.13,1.71-8.35,1.55-1.85,1.33-3.54,3.81-6.44,3.74l-2.19,6.69c-4.47.04-7.26,3.39-9.94,5.84-1.16.27-3.71-.12-4.92.55-1.45.81-1.48,2.62-2.45,4.42l-3.92,7.27c-.36.66-9.27,5.6-9.3,5.72-.13.61,1.07,1.95,1.2,2.57.83,4.08-4.78,5.04-6.27,6.92-1.01,2.98.47,7.96-3.16,10.01-2.52,1.42-3.87,4.08-5.99,6.06-1.25,1.16-4.37.75-5.24,2.08-1.1,1.69-1.88,3.3-1.72,5.86-1.25.63-2.38.81-4.15.96-.27,2.46.06,4.53,1.22,6.23l.06,1.62-4.27.98c-1.04.77-1.62,1.95-1.94,3.15-5.23,1.15-1.9,10.28-11.48,11.35-.85,2.44-1.55,4.27-3.7,6.24l-3.67-4.03c-.48,2.18-.22,4.64-1.24,4.87l-3.55.82c-1.75,2.06,1.28,5.69,1.45,7.62-1.32,4.31-6.16,6.7-9.39,9.25-.48,2.06-.24,3.2-1.58,5.86-1.31-1.1-1.89-2.23-2.28-4.44-6.73,1.92-2.8,7.53-5.19,10.33-1.85,2.17-5.75,2.26-6.94,3.84-.29.38.27,1.46.07,2.28s-2.24,1.01-2.01-.43c.1-.66.25-1.75-.92-2.96-2.35,3.24-3.93,5.96-8.07,8.35l5.09,1.96c-9.48,10.24-12.04,3.27-18.63,4.94-.43.45-.89,2.04-1.67,2.09-.66.05-1.5-.21-1.45-.59l.29-2.68c.07-.66-1.72-.85-2.08-.17-1.74,3.29-1.79,6.44-4.13,6.04-2.16-.38-3.64-1.2-4.86,1.1-.64,1.21-2.24,3.01,1.45,3.93-2.95,3.06-6.71,3.32-10.92,4.36-1.35.4-2.65,3.34-5.25,2.21-1.22-.53-2.52-1.01-4.53-2.95-3.06,7.8-11.22,2.98-12.33,5.87-.22.58.51,1.76-1.06,3.36-3.31-5.88-13-5.79-13.68-4.24l-1.33,3.06c-1.62.81-4.33-.81-5.56-2.43l-7.32,4.97c-2.19-.98-3.81-2.49-6.22-2.96.25,1.96-.62,3.47-1.8,3.6-2.36.27-2.79-4.04-4.79-3.33-.51.18-1.64,1.32-2.37,1.89-2.45-1.14-3.75-4.51-5.31-7.62-2.61,2-6.51,2.47-7.97-.55-.4-.83.73-3.24-1.33-4.54-5.04,4.01-10.64,6.33-16.34,8.56-.97-2.37-2.59-2.82-4.29-3.59-1.83-.83-2.29,1.84-3.4,2.08l-7.55,1.62c-.62-3.5-2.53-5.89-2.24-9.08l17.74-14.15c.25,2,1.05,3.3,1.62,3.47,2.11,2.23,3.71,1.91,5.75,1.34l9.74.07.52-5.35,4.94-1.27c1.18,1.03.63,4.23-.61,5.55l7.28,2.49-.12.37,1.81,1.3-1.63.08c-.05-.23-.19-.58-.49-.75l-5.35,3.04c3.5,1.57,4.2,3.77,7.11,6.64.75-2.04,2.58-5.75,4.76-4.74.94.43,1.59,3.42,3.71,2.82,1.33-.38,3.97-.75,4.51.17l2.08,3.61c.59,1.02,2-.97,2.5-1.22s1.52,1.57,2.19,1.75c1.97.53,2.46-1.42,2.07-2.4l-1.22-3.1c1.74-1.12,2.83,1.24,4.08,2.5s5.88.11,6.56-1.46c.86-2.01,2.42-3.98,4.55-3.37.68.19,1.48,1.15,2.42.81,1.03-.38,1.24-1.65,1.57-2.27,1.71-.86,4.08-1.96,6.5-1.84-.22,1.49,1.37,3.55,2.32,3.07,2.9-1.46,4.47-4.06,6.08-5.91.81.58,2.45.78,3.28.5,1.06-.36,1.87-1.73,1.91-2.81.01-.32.68-.73.98-.65,3.46.94,2.12-3.85,10.95-7.35,1.27-.5,2.5-2.37,4.43-1.8,1.01.3,1.67,1.75,2.72,2.76.74-.31,2.98-2.47,3.77-.96.75,1.42,1.42,2.17,2.51,2.41,1.43.31,1.55-1.18,1.95-1.62l5.25-5.91c1.58-1.78,2.89-3.05,3.64-5.51,1.58.15,4.11,1.14,5.42-1.02.7-1.16,1.25-2.59.37-4.93,4.48-1.46,8.07-4.06,10.23-7.86,1.87.29,3.64-.5,5.29-1.09.58-.21,2.44.86,2.46.28.06-1.99-2.08-5.37-.64-6.5l2.52-1.97c3.48-5.43,8.12-1.77,7.55-6.08-1.05.52-2.51,1.34-4.26-.32l11.04-6.36c.96-.55,1.64-1.91,1.3-2.54-.23-.43-1.27-1.06-1.39-1.91-.31-2.28,1.85-3.5,3.38-3.98s4.52-.17,4.17,1.91l-3.72,1.57c-.59.25-1.13,1.52-.35,2.62l5.04-3.92c1.08,2.23,5.08,2.32,4.94.3-.55-.59-2.47-1.11-2.64-2.01-.77-4.19,6.59-2.35,5.03-11.57.98-.31,2.53-.18,2.92.79.5,1.22-.08,2.34-.67,3.91-.43,1.14,3.43,1.86,3.6.57.07-.52-1.75-1.15-2.03-1.61-.29-.48.32-1.33.71-1.23.34.09,2-.2,2.15-.6,2.12-5.65,7.83-8.99,11.41-15.46.73-1.32.29-4.82,2.22-6.29-5.2-5.75.28-10.37-4.33-9.82l.96-2.36c.9.55,2.95,1.76,3.35,1.16l1.93-2.86c2.83-.83,6.34.98,7.73,4.81,1.18-3.59,2.09-4.8,3.43-7.37l3.12-5.96c.59-1.13.44-3.28,1.23-3.86.65-.47,3.11-.42,3.58-1.05,2.73-3.69.24-12.08,4.29-12.39,2.39-.19,1.73,4.38,2.97,4.7.98.25,2.06-.49,1.7-1.36l-.77-1.85c-.37-.9-.54-1.54-.58-2.06-.06-.8,1.31-1.39,1.82-.24.39.88.91,2.57,1.74,2.79,3.58.94,4.31-5.94,9.27-7.45-.03,2.25.32,3.85,1.44,4.34,1.52-1.11,2.74-2.49,2.71-3.55-.02-1.26-1.67-2.06-3.44-2.34l4.89-5.76c1.3-1.54,4.29-1.42,6.23-1.47l.89-7.73c9.38,1.58,10.73-3.44,17.18-3.77,3.39-1.85,5.54-6.95,10.57-6.65-1.74-1.94-1.43-4.52-.46-4.64,1.86-.23,3.49,1.2,4.87,1.73,3.02-2.13,5.51-3.06,9.47-2.82-.73-4.8-.02-9.82,2.23-13.45,1.56.66,3.77.57,4.18-.27.26-.53.31-2.22,1.51-2.11l3.84.36,2.71-2.79c3.9-1.03,7.9.41,11.12,2.51.28-2.6-1.64-3.33-2.17-4.72,2.47-.44,3.73-.59,4.94-1.51.85-.64,1.25-2.26,1.41-4.04,4.46,2.43,5.62-3.18,10.01.81-.73-7.45,3.48-8.76,8.29-10.89,2.47-1.09,5.21-4.64,8.86-3.66,1.34-.59,1.17-4.22,2.02-5.22,2.45-2.89-1.76-12.97,15.65-16.41,1.66,1,1.84,2.05,5.08,2.19-.69-.85-.79-3.41.57-3.54.87-.09,3.46-.41,3.87.69l1.14,3.06c.32.86,1.6,1.13,2.65,1.06ZM557.19,952.28c-.73.97.29,2.07,1.3,1.79.4-.11,1.01.29,1.49-.6.41-.76-.15-1.36-.56-1.47-.58-.15-1.92-.15-2.24.28ZM451.37,965.58c.45-3.27,2.13-5.85,1.06-9.01l-10.4,7.43c-.86.61-1.52.78-1.81,1.63-.26.75-.12,1.58.6,1.94,2.14,1.07,5.15-3.47,10.54-1.99ZM514.11,972c0-.61-.5-1.11-1.11-1.11s-1.11.5-1.11,1.11.5,1.11,1.11,1.11,1.11-.5,1.11-1.11Z"/>
  <path class="st13" d="M795.19,551.09c-.77-.07-1.47-.11-2.32.13.05-1.35.07-1.72.62-2.21.48-.43,1.23-.02,1.3.54.05.37.16,1.06.4,1.54Z"/>
  <path class="st13" d="M800.02,551.94l-2.79.87c-1.03.32-2.12-.24-2.05-1.72,3.08.61,1.52-4.63,7.31-6.32.38,2.66-1.63,4.75-2.48,7.18Z"/>
  <path class="st13" d="M731.78,494.81c4-5.34,6.05-12.28,3.84-18.73.2-.98.49-1.83,1.03-2.2,1.87-1.27,4.94,1.1,6.95,4.89l-5.04.08-.99,11.45,4.8-5.34,8.67,3.38c-2.51,6.74,1.85,15.93,4.68,16.23.96.1,1.79-.28,3.16-.75-.44,1.97-1.11,3.43-.44,4.16l2.54,2.8c-1.22,1.41-.92,3.54-1.86,4.59l-3.31,3.69c-.61.68,1.66,2.41,2.33,1.86,2.98-2.48,4.27-1.26,10.63,2.09l-5.32,1.44c1.35,1.5,2.24,1.49,2.74,1.69,1.11.45.86,1.6.14,1.74-.33.06-1.6.91-1.52,1.25.37,1.48,2.08,3.52,3.56,3.87.09-1.09,1.25-2.42,1.85-1.94.29.23,1.01,1.22.81,1.33l-1.96,1.14c-.22,1.17,1.21,2.61,2.39,2.5s3.02-.56,3.04-2.28c.02-2.56-2.25-4.09-4.67-5.8,3.61-1.63,6.16.11,8.15,1.46-2.27,1.23-2.39,2.64-2.51,4.05-.11,1.28,1.41,2.48,1.78,3.56.48,3.62.12,9.63,3.41,12.38,4,.6,8.76-.51,12.18,1.81.22.96-.44,3.23.37,4.79.87,1.68,3.11,1.1,4.27.13,1.45-1.21,2.09-2.35,2.51-4.2l6.81-2.21c-.47-3.24,2.42-4.32,3.9-5.85l.74-5.66,3.29-2.14c-.61-1.73-1.41-5.01.04-6.32.98-.73,4.42-.12,5-1.79,1.34-3.89,3.6-3.93,6.99-5.27s4.99-7.83,3.67-11.57c-.96-2.72-3.32-6.19-.18-8.42.4,1.42.87,2.81,1.32,3.16s1.5-.8,2.91-.79c-.26-2.68-1.75-5.2-3.63-8.2l5.74-3.55c-4.27-1.97-6.52-4.12-7.15-8.3,1.56-1.71,3.14-2.62,3.63-4.91l-3.96.94c.19-3.4-1.47-4.91-2.47-7.82,2.33.66,3.63.89,4.19.1,2.02-2.86-3.61-3.42-2.99-7.84.18-1.3,1.02-2.43,2.47-3.63-2.78-6.03-6.33-4.77-6.84-5.87-1.64-3.55,3.22-4.28-2.62-11.19-1.81-2.14-1.4-6.55-4.91-7.92-1.02-.4-2.58-.96-2.8-1.74-.33-1.16-.33-2.58.29-4.44-4.78-.59-8.81-7.58-8.75-13.53-5.51,1.38-7.73-1.13-10.47-4.53-2.99-3.72-8.61,4.29-14.43,6.04.62-3.85,3.15-3.45,4.77-5.73-3.71-1.38-7.65-1.78-10.7-.08-.21,1.49-.98,3.21-2.5,3.08-1.17-.11-2.02-1.26-1.7-3.32-4.73.82-1.32,7.88-7.14,10.62-.87-1.56.07-3.13.07-3.81,0-.72-1.54-1.39-2.24-1.44-1.37-.1-5.37,5.54-5.31,7.1.05,1.27,2.33,2.18,4.07,1.99-.86,2.15-2.13,3.06-3.49,4.68-1.93,2.29-5.42,1.68-7.83-1.09-1.76,2.9-4.01,3.95-6.05,6.07l-2.21,7.8-2.96-.4s-.78,10.82.41,17.51c-3.8.91-5.99,2.98-8.16,5.67l-14.84-8.3c-.17-.61-.25-2,.33-2.76,6.2.6,8.83-8.89,7.23-12.21-1.51-3.14-4.85-2.82-6.01-5.12-1.28-2.55,3.86-4,1.99-9.62,1.58-.64,2.25-.09,2.39.23l.83,1.93c2.12.52,4.79-2.95,4.11-5.25-.42-1.41-1.93-2.59-1.76-3.53.25-1.32,2.61-3.26,3.35-2.46.5,1.51.81,2.77,2.01,2.84,2.89.17,1.78-4.7,5.03-4.2.94.14,2,.94,2.32,2.78-.17,2.41,2.82,1.61,2.18-.08-.84-1.94-.33-3.08-.25-4.84.04-.92,1.16-1.13,1.53-.39l1.45,2.89c2.31-3.02,2.55-7.93,6.12-10.36s8.2-1.3,12.67.71c.15-4.5.99-8.93,5.09-10.38.55-.2,2.17.71,2.46.3.46-.66.61-1.91,2.3-3.12,1.56,7.73,10.23,1.27,14.45,7.94.53.83,2.25,1.75,2.77,1.49l2.72-1.37c3.34.65,7.13-.09,10.57-.57,1.04,1.4,2.02,3.25,3.42,3.42,2.07.26,3.47.47,6.08-1.21l.05,5.22,7.65,1.8,3.56,5.2,3.55,9.49c4.1,4.68,6.5,8.7,7.03,15.81,1.99.36,2.91.28,5.21.1.54,3.42,2.9,7.46,2.43,11.16-.37,2.92-1.8,4.86.95,7.52l2.89,5.82c5.04,3.89,6.06,9.74,2.17,14.87,1.31,5.74,4.81,10.99,5.04,17.11.12,3.3-2.46,7.09.58,10.82l-4.95,1.62c2.47,3.38,1.28,5.21.07,8.02l-.87,11.11c-1.32,1.13-3.36,1.22-5.24,1.68-.38,9.54-12.42,7.05-10.06,14.18,1.88-1.58,2.68-2.96,4.9-2.35-5.01,9.29-16.22,7.95-16.35,13.94,3.73-1.99,7.6-3.34,10.4-.93-1.51,1.39-3.68.58-4.57.76s-.06,6.77-13.58,6.5c1.12,1.62,2.56,1.09,3.22,1.31.72.24.93,1.48.18,2.32-.56.63-1.73,1.62-3.13-.25-1.69-1.08-2.36,2.04-.2,1.73,1.33,1.56.52,2.86-.69,4.48l7.94-2.34c-1.97,4.17-5.84,4.03-9.18,3.92l-8.01,2.61c-.25-2.47-.68-4.43-2.98-5.28-4.21-1.56-6.44.68-8.87.76-2.99.1,2.93-3.23,3.03-4.1.11-1.01-1.41-2.31-2.2-2.6-.86-.32-2.39,1.37-2.89,3.22-6.44-6.23-12.53-2.55-13.92-9.98-11.39-.95-10.17-9.6-12.86-9s1.83,3.49.82,5.72c-.74,1.64-1.44,1.95-3.34,1.68,2.22-3.01-.43-5.01-.44-6.58-.04-3.17,1.4-6.15.7-9.37-3.52.69-6.53.12-7.67-2.16,1.59-.73,2.65-.16,3.35-.08.32-4.13-4.13-5.17-4.3-8.15-.06-1.04,1.09-2.35,2.76-3.62-2.69-1.75-4.49-3.43-4.78-6.79-2.03.82-3.55,3.79-2.67,5.69.41.89,2.02.99,2.54,1.09s-.02,2.52-.62,2.47c-2.07-.9-3.68-2.34-5.32-4.03,2.09-2.3,1.94-4.61,1.91-6.9s2.63-.58,3.5-.74c4.19-.73-2.47-7.49-2.38-8.03.16-1.01,1.33-1.71,2.43-2.89-3.76-1.02-7.66-1.97-9.09-5.48-.34-.85,1.14-2.12,1.63-2l3.33.77c-2.3-4.17-1.73-8.16-4.54-8.17-1.68,0-3.97,4.4-4.87,1.94l-.86-1.88ZM835.11,478c0-.61-.5-1.11-1.11-1.11s-1.11.5-1.11,1.11.5,1.11,1.11,1.11,1.11-.5,1.11-1.11ZM804.11,574c0-.61-.5-1.11-1.11-1.11s-1.11.5-1.11,1.11.5,1.11,1.11,1.11,1.11-.5,1.11-1.11Z"/>
  <path class="st9" d="M691.95,696.86c-.02.35-1.2,1.54-.76,1.66l2.96.85c-1.66,3.86-5.66,5.68-9.95,3.5l-3.06,7.8-2.03-4.16c-2.02,2.27-3.37,3.21-5.82,4.19l3.82,3.27c-1.39,1.58-2.07,2.89-2.2,4.53-.16,1.91,1.66,2.4,3.21,3.61l-2.64.29c-.68.07-.07,5-2.28,3.55-.67-.44-1.33-.62-1.77-.63-.61-.02-1.55.51-1.55,1.21s1.24,1.64,1.73,2.09c.27,1.99.41,4.76-.43,6.69l-3.07,2.6c-2.19,1.86,4.92,9.51.76,13.99-.5.53-2.03.59-2.22,1.06s.08,2.07.07,2.39l2.9-1.19c1-.41,1.09.64,1.07,1.2-.11,3.46-7.28,4.52-6.31,12.7,1.14.05,2.35.31,2.62.62.45.5.04,1.87-.78,2.58l-8.46,7.35c-.89.77-3.37.19-3.62,1.05-.31,1.05-.78,3.16-.37,4.67,1.04,3.87,5.77,5.91,9.31,6.06l-2.26,6.59c-2.91.07-4.57,2.1-4.33,4.7.4,4.27-4.01,4.22-3.22,7.72.23,1,2.68.8,3.32,1.59,2.2,2.7-4.16,2.62-5.67,4.39-1.69,1.99,2.4,5.45-.04,8.89-1.2,1.69-2.81,1.68-5.08,1.04,1.01,1.86,1.3,4.32.44,4.46-2.08.35-3.52.82-4.11,1.9-1.09,1.99.11,3.25.88,4.56,2,3.45.8,6.88-2.1,9.72l-2.56,6.35c-3.4.79-4.38,4.19-5.07,6.87l-4.25,1.29c-.99.3-.83,3.1-1.48,3.98l-4.85,6.53c2.32.19,2.63-1.91,3.23-.29.97,2.65-5.3,1.05-5.06,5.25.4,6.89-9,4.11-9.3,12.78-1.79,2.74-5.81,4.54-8.59,6.58l-4-2.38c-.55,2.06.53,3.08,2.12,3.94l-3.91,4.45c.36,4.19-2.06,7.28-6.08,8.03-.51-3.79.37-6,1-9.8-2.63,1.09-3.92,3.38-4.98,5.54.37.56,1.68,1.78,1.54,2.52-2.75,2.63-4.08,5.62-4.33,9.92-2.13-1.75-.93-3.66-.99-6.2-3.4.71-5.13,3.28-8.29,5.12l3.16,3.98c-3.96-.18-4.48,2.12-6.05,2.61-2.16.66-3.95.21-5.2,3.09-.27.62-1.26,1.53-1.81,1.74-.81.31-2.39.26-3.8-1.17-2.88,3.64-6.81,4.47-11.39,4.2-2.26-.13-3.7,3.21-5.03,3.72-2.13.82-2.09-2.09-2.39-2.94-.39-1.1-3.07-.95-3.46-.2l-2.06,3.89c-2.49-1.39-4.66-1.72-7.17-.73-2.65,1.04-3.63,2.54-4.34,4.74-2.31-.08-6.14.62-8.68,1.4l-3.5-2.37-4.44,1.57-1.52-2.71c-.27-.47-1.99.14-3.36.52-.09-1.27,1.38-2.11,2.03-2.76-.34-1.94-2.1-2.1-3.44-1.95-3.25.36-4.55,7.89-10.92,5.32l-11.84-4.78c-2.11,2.9-5.05,4.83-8.3,3.4l28.58-28.87,4.65-5.3c.58-.19,1.52.64,1.18,1.03l-14.25,16.14,5.27,3.16c.13-2.34.87-5.29,3-5.34.24,0,1.8,4.29,2.45,3.26l1.6-2.49c1.75-.54,3.99.91,6.07-1.1-1.07-.94-2.51-.63-4.26-.73,3.25-3.98,11.6,1.18,12.76-7.38,3.76,3.6,7.5.91,8.12,4.44.36,2.04-3.21.2-4.22,1.94-.19.33-.75,1.01-.47,1.65.55,1.25,2.99-.84,4.42-.47,1.2.31-.56,2.64.04,3.79.15.3,1.31.13,1.79.02s.57-1.18-.16-2.27c9.5-1.31,11.44-8.06,18.32-2.72,6.8-2.39,6.43-9.62,13.35-5.7.91-3.45,1.1-5.58,3.51-8.86.66,1.82.24,3.06-.72,4.86l6.81,3.82c.38-3.4,2.77-5.38,5.8-5.32,3.23.07,4.06-2.46,5.62-4.65l2.95-1.84.6-4.59c.12-.9,2.25-.73,2.88-.74,1.08-.02.4-1.94.28-2.72.83-1.85,2.47-4.29,2.54-6.69,4.81-.15,8.29-2.38,10.44-6.23,1.59,1.02,2.82,1.33,3.95,1.29.98-.04,6.82-8.2,6.04-14.36,1.5-.43,2.38-1.67,2.44-2.43.06-.71-2.16-2.12-1.82-2.74.62-1.13,3.48-.68,3.79-1.5l1.65-4.36c1.29-.07,5.09,1.53,5.48-1.22-.28-1.27-3.22-1.95-5.16-1.3,1.12-4.53,4.68-5.05,7.36-7.11,1.7-1.31-.49-4.62-.08-5.64.73-.91,2.54-.94,3.1-1.06,1.62-.35-1.62-7.26,1.13-5.63.36.21.65.74,1.08,1.7,1.81-1.48,3.61-2.06,6.38-1.92l.13-6.69c4.21-2.57,6.24-10.64,6.25-10.63-1.58-2.97-2,5.54-6.92,4.94-.94,1.15-1.12,3.65-3.85,3.52l5.38-8.7c3.19-2.17,3.28-3.71,5.17-6.73,1.43-2.29,4.15-4.73,3.37-8.19-.23-1.02,1.25-3.19.62-3.72-.7-.59-2.19-.88-4.47-1.11,2.49-2.33,0-6.74.69-8.83,2.09-3.82,3.95-6.41,1.54-10.69-1.38-2.44,1.08-6.64,4.29-6.53l-1.73-2.11c-.48-.58-.02-1.68.52-1.86.93-.31,2.06-.25,2.43,1.18.17.66.48,1.37.78,1.72.48.55,1.43.33,1.92.08-1.12-2.33-.56-4.55.25-6.31,1.33-2.89-.17-4.96-.83-7.17-.52-1.77,2.8-6,1.64-7.47-3.95-3.81-2.93-7.91-1.15-11.69-1.19-2.68-6.1-6.47-2.55-10.61-1.34-2.62-2.03-4.82-1.66-7.51,3.75,4.25,3.54,9.21,3.24,13.95,2.06.8,2.7-1.81,3.51-2.02,2.45-.65,6.96-2.27,6.32-5.46-.73-3.64-4.21-6.86-2.63-11.34.82-.68,2.71-1.27,4.36-1.25,1.5-3.65,4.68-3.17,7.81-5.13l-23.32,2.76c-3.05.36-6.49,2.18-8.97-.22l25.65-3.69c3.55-.55,6.6-.65,9.47-1.44-.31,1.36-.25,2.81.47,3.05,1.41.47,7.36-1.39,7.26-5.16l11.13-2.88ZM636.17,847.13c-.2-1.58-2.14-1.58-2.34,0-.32,2.54,2.66,2.54,2.34,0ZM598.06,895.27c-1.26-.83-2.48-.16-3.32.03-.64.14-1.11,1.86-.53,2.54,1.66-.09,2.76-1.55,3.85-2.57ZM584.13,909.12c0-.65-.53-1.19-1.19-1.19s-1.19.53-1.19,1.19.53,1.19,1.19,1.19,1.19-.53,1.19-1.19ZM562.66,909.48l-.65.02.65.02h.68l.65-.02-.65-.02h-.68ZM519.11,918c0-.61-.5-1.11-1.11-1.11s-1.11.5-1.11,1.11.5,1.11,1.11,1.11,1.11-.5,1.11-1.11ZM540.11,919c0-.61-.5-1.11-1.11-1.11s-1.11.5-1.11,1.11.5,1.11,1.11,1.11,1.11-.5,1.11-1.11ZM492.92,932.51c-1.1.76-1.02,2.06-.49,2.57.59.56,1.43.92,2.01.74,1.24-.39.77-1.7.31-2.35-.34-.48.19-2.36-1.83-.95Z"/>
  <path class="st15" d="M867.06,645.2l-.06,2.73c-.76-.19-1.61-.04-2.01.6-.33.53-.01,1.29.52,1.46.41.13,1,0,1.48.03l1.94.17-10.93,47.74-3.31,7.91c-.44,1.04.64,3.96-.78,4.18-.85-4.6-3.4-9.42-1.01-14.17l5.15-10.24,1.71-12.8-.31-7.46c-.05-1.16-2.82-3.04-1.36-4.64l3.31-3.63c2.48-2.72-.54-7.67-3.95-10.2l5.62-1.82c-2.39-2.82-4.76-3.99-8.06-5.24l1.21,6.16-10.37,1.56c-.24,2.27-.59,4.09-1.37,5.46-.69,1.22-2.82,1.8-4.88,1.68-.9,2.58.12,5.14-.03,7.7l-2.82.87c-1.24.38-.22,2.07-.34,2.75-3.84,7.03-11.19,3.89-12.77,11.94l-3.14,4.99c-1.13-.61-2.3-1.03-2.94-.99-.78.05-1.73,1.55-2.77,1.93-1.3.47-2.71-1.06-3.6-1.94-.66,6.95-4.91,12.45-11.67,13.14-.09,3.01-2.08,3.69-3.65,4.83-6.95,5.03-12.05-2.08-12.88.61-.41,1.35,2.87,4.26.52,4.52-.85.09-1.48-.41-2.32-1.39l-1.02-1.2c-.7-.82-2.85-.49-2.04.72l1.67,2.5c.64.96-.97,2.42-2.8,2.37-5.74-.16-.12,8.45-4.43,5.32.08-.92-1.81-4-2.75-2.92l-4.32,4.99,2.81.66c.94.22.26.82.29,1.22.06.91-1.6,1.37-2.88.32-7.31,6.99-15.81.67-22.29,8.41-5.03-4.5-9.91-.24-13.91-1.25-.37-.09-.87,1.24-.45,1.53l2.12,1.49c-3,2.96-7.46,3.36-11.63,4.98-2.7,1.05-6.8,4.64-9.89,3.78-1.27-.43-3.65-3.69-5.27-2.21-4.02,3.7-6.81,8.64-9.64,13.49l-4.6-1.07c-4.09,2.32-6.36,6.54-7.9,10.54-.6,1.19-4.16,2.69-3.28,4.61.52.74,3.13,1.67,3.46,3.33-2.27.66-1.66,3.14-2.3,4.13-3.94,6.15-3.64,4.93-6.32,5.99-2.29.91-.86,6.12-3.28,10.94,1.53,1.37,1.64,3.24.48,4.17-.53.43-1.76.24-2.7-1.44.76,2.82-1.54,4.85-3.31,6.94,3.77,3.66,1.01,11.74-3.27,12.79-.63.16-1.98,1.16-1.94,1.73s.84,1.52,1.97,2.31l-7.22,7.64c-.54,1.65.7,5.31-1.18,7.03l-5.69,5.16c-1.51,1.37-3.96,1.53-4.68,3.59-.76-1.32-1.96-2.58-.88-4.56.59-1.08,2.03-1.55,4.11-1.9.86-.15.58-2.6-.44-4.46,2.26.64,3.88.65,5.08-1.04,2.44-3.44-1.65-6.91.04-8.89,1.5-1.77,7.86-1.69,5.67-4.39-.64-.79-3.09-.59-3.32-1.59-.79-3.5,3.62-3.46,3.22-7.72-.25-2.59,1.42-4.63,4.33-4.7l2.26-6.59c-3.54-.15-8.27-2.2-9.31-6.06-.41-1.51.06-3.62.37-4.67.25-.86,2.73-.27,3.62-1.05l8.46-7.35c.82-.71,1.23-2.08.78-2.58-.27-.31-1.48-.57-2.62-.62-.98-8.17,6.2-9.24,6.31-12.7.02-.56-.07-1.61-1.07-1.2l-2.9,1.19c0-.31-.26-1.91-.07-2.39s1.72-.53,2.22-1.06c4.16-4.48-2.96-12.13-.76-13.99l3.07-2.6c.84-1.93.7-4.7.43-6.69-.49-.45-1.73-1.39-1.73-2.09s.94-1.22,1.55-1.21c.44.01,1.1.2,1.77.63,2.21,1.44,1.6-3.48,2.28-3.55l2.64-.29c-1.55-1.21-3.37-1.7-3.21-3.61.13-1.64.81-2.94,2.2-4.53l-3.82-3.27c2.45-.97,3.79-1.92,5.82-4.19l2.03,4.16,3.06-7.8c4.3,2.18,8.29.36,9.95-3.5l-2.96-.85c-.43-.13.74-1.31.76-1.66,13.58-3.52,26.06-9.87,35.93-20.09.59,1.12,1.71,1.24,2.31.87l3.05-1.89c.91,2.27,1.88,3.93,3.87,5.34l-1.73,4.54c8.21.14,8.83,6.82,11.3,6.98.66.04,1.75-.72,2.73-.99,2.02-.56,3.37,1.24,4.01,2.59.79,1.65.91,3.72-1.74,4.82l-1.47-4.02c-3.44,6.19-6.87,7.03-7.2,7.57-.57.94,1.26,2.07,1.65,1.4,1.61-2.78,4.69-.86,6.08-1.36,5.07-1.82,9.02-3.85,14.39-1.82,1.11.42,1.83-1.39,1.57-2.35-.3-1.1-.8-1.43-2.59-1.86-.46-4.45,3.11,1.63,9.52-2.07,1.92-1.11,6.97-.63,8.29-2.3,6.15-7.77,21.4-1.16,21.05-4.77-.13-1.36-1.96-1.42-3.86-4.08-.62-.87-.4-1.71.63-1.94s2.2-.4,3.16,1.29l4.7-1.52c0-.4.1-.69.25-.96.42-.75,1.62-1.44,2.54-1.17.69.21,1.26,1.45,2.24,3.3,3.32-2.92,1-7.66-1.69-10.48,1.29-2.32,2.87-5.3,1.01-8.13l1.99-.24c-.16.78.1,1.97.66,2.3.35.21,1.61.3,2.11-.08,2.15-1.67,4,.5,5.29,1,3.69,1.42,4.65-3.03,5.66-4.85,1.16-2.11,2.81-2.73,2.88-5.55.03-1.06.96-2.45,1.61-2.91.73-.52,2.76-.35,4.03-.4,1.35-1.05.4-3.78-.08-5.06l.91-2.25c3.84.77,7.86-1.08,9.98-4.58,1.2.29,2.66.69,3.35.53,1.8-.43,5.76-13.6,16.26-11.17-2.32,3.37-.49,5.63-.7,8.5-.17,2.34-2.22,5.4,1.16,6.21ZM808.79,681.41l-.76.15c.5.48.5,0,.76-.15ZM741.55,692.55c1.43-2.44-1.79-4.86-3.19-4.55-.78,2.17,2.08,5.48,3.19,4.55ZM737.11,695c0-.61-.5-1.11-1.11-1.11s-1.11.5-1.11,1.11.5,1.11,1.11,1.11,1.11-.5,1.11-1.11Z"/>
  <path class="st1" d="M795.19,551.09c-.07,1.48,1.02,2.04,2.05,1.72l2.79-.87c-.42,1.84-1.06,2.98-2.51,4.2-1.16.98-3.4,1.56-4.27-.13-.81-1.56-.15-3.83-.37-4.79.85-.24,1.55-.2,2.32-.13Z"/>
  <path class="st1" d="M800.02,551.94c.84-2.43,2.86-4.52,2.48-7.18-5.79,1.7-4.23,6.93-7.31,6.32-.24-.48-.36-1.17-.4-1.54-.07-.56-.82-.96-1.3-.54-.54.49-.56.86-.62,2.21-3.42-2.32-8.18-1.2-12.18-1.81-3.29-2.74-2.93-8.76-3.41-12.38-.37-1.08-1.89-2.29-1.78-3.56.12-1.41.24-2.82,2.51-4.05-1.99-1.35-4.53-3.09-8.15-1.46,2.42,1.71,4.69,3.25,4.67,5.8-.01,1.72-1.81,2.17-3.04,2.28s-2.61-1.34-2.39-2.5l1.96-1.14c.2-.12-.53-1.1-.81-1.33-.6-.48-1.76.86-1.85,1.94-1.48-.35-3.19-2.4-3.56-3.87-.09-.34,1.18-1.19,1.52-1.25.72-.14.96-1.29-.14-1.74-.51-.21-1.39-.19-2.74-1.69l5.32-1.44c-6.36-3.35-7.65-4.57-10.63-2.09-.66.55-2.94-1.18-2.33-1.86l3.31-3.69c.94-1.05.64-3.17,1.86-4.59l-2.54-2.8c-.67-.74,0-2.19.44-4.16-1.37.48-2.2.86-3.16.75-2.84-.3-7.19-9.49-4.68-16.23l-8.67-3.38-4.8,5.34.99-11.45,5.04-.08c-2.02-3.79-5.08-6.16-6.95-4.89-.54.37-.83,1.22-1.03,2.2-1.08-3.14-3.87-7.11-6.8-8.75,2.17-2.69,4.36-4.76,8.16-5.67-1.19-6.69-.45-17.52-.41-17.51l2.96.4,2.21-7.8c2.03-2.12,4.29-3.17,6.05-6.07,2.41,2.77,5.9,3.38,7.83,1.09,1.36-1.62,2.63-2.53,3.49-4.68-1.74.19-4.02-.71-4.07-1.99-.06-1.56,3.94-7.2,5.31-7.1.71.05,2.25.71,2.24,1.44,0,.68-.94,2.25-.07,3.81,5.82-2.74,2.41-9.8,7.14-10.62-.32,2.05.53,3.21,1.7,3.32,1.51.14,2.29-1.59,2.5-3.08,3.05-1.7,7-1.3,10.7.08-1.62,2.28-4.14,1.88-4.77,5.73,5.82-1.74,11.44-9.75,14.43-6.04,2.74,3.4,4.96,5.92,10.47,4.53-.07,5.95,3.97,12.95,8.75,13.53-.62,1.85-.62,3.27-.29,4.44.22.78,1.78,1.34,2.8,1.74,3.51,1.38,3.1,5.78,4.91,7.92,5.84,6.91.98,7.64,2.62,11.19.51,1.11,4.06-.16,6.84,5.87-1.45,1.19-2.29,2.33-2.47,3.63-.62,4.42,5.01,4.98,2.99,7.84-.56.79-1.86.56-4.19-.1,1,2.92,2.65,4.42,2.47,7.82l3.96-.94c-.5,2.29-2.07,3.19-3.63,4.91.63,4.18,2.88,6.33,7.15,8.3l-5.74,3.55c1.88,3,3.36,5.52,3.63,8.2-1.41,0-2.47,1.13-2.91.79s-.92-1.74-1.32-3.16c-3.13,2.23-.77,5.7.18,8.42,1.32,3.74-.2,10.2-3.67,11.57s-5.65,1.38-6.99,5.27c-.58,1.67-4.02,1.05-5,1.79-1.45,1.31-.66,4.59-.04,6.32l-3.29,2.14-.74,5.66c-1.48,1.53-4.37,2.61-3.9,5.85l-6.81,2.21ZM808.84,515.33c.01-.51-1.84-1.71-1.56-1.87s1.12-.97,2.13-.32c1.2.77,1.21,3.89,2.31,3.81l4.72-.33c2.27-.16,3.36-.08,5.21-2.32.83-1,3.87-1.93,2.88-4.63s-2.53-7.26.43-9.73c.64-.53,1.75-.78,1.79-1.58.02-.46.33-1.29-.41-1.29-.68,0-1.73.24-2.33,0-1.99-.76-.64-3.7-1.16-4.7l-1.97-3.79,1.79-2.79.42-13.52c-1.73.09-3.59-.16-3.99-.95-.44-.87-.39-2.95.11-4.67-1.24-.59-2.43-.11-4.11.17l-.08-10.94-2.33-3.45c1.34-.92,2.41-2.18,2.1-2.75l-1.64-3.05c.83-2.5,2.09-5.91-1.31-7.94-1.78,2.73-4.78,4.77-8.21,5.43-3.07.59-6.08-3.93-8.31-4.98-2.67-1.26-4.39-2.97-5.37-5.17-4.33,1.94-11.88,2.44-15.04-.6-.08,3.87,4.99,6.82,4.32,9.11s-5.6-.22-7.42,5.18c-1.17-3.48-4.49-5.48-7.09-4.03-.62.34-.7,3.21-1.33,3.06l-3.46-.8c.52,4.07-.74,6.52-4.55,7.74,1.59,1.8,2.97,1.65,4.47,1.99l-3.63,3.18c-1.22,1.07,3.79,5.88,2.3,7.15l-3.09,2.65c5.33,3.11.67,10.8,4.05,13.85,1.31,1.18,2.83,1.97,3.1,3.46.18.97-.68,2.88-.85,4.07l5.22,3.13c-.54,4.77,2.09,8.21,6.42,9.71-.37,2.98-.59,5.16.02,7.83l11.85,4.07c.7-.42,2.3-1.11,2.69-.12.53,1.35-1.11,3.46.04,4.94.54.7,1.86,1.41,3.06,1.47l10.23.46c3.51.16,7.49-2.82,7.58-6.14ZM745.91,471.67c.11-1.02.29-2.45.04-2.82-1.06-1.63-2.72-.66-3.37.31-.96,1.43-.4,2.32.46,3.4.93,1.16,2.62,1.32,2.87-.88ZM785.11,519c0-.61-.5-1.11-1.11-1.11s-1.11.5-1.11,1.11.5,1.11,1.11,1.11,1.11-.5,1.11-1.11Z"/>
  <path class="st0" d="M788.01,835.14c-2.48,5.31-7.01,9.84-11.12,14.7l-9.16,10.84-8.15,8.94-15.57,15.31-9.01,8.29c.31-1.7,1.36-3.64,2.84-5.47l9.31-11.56c2.13-2.64,7.73-3.29,8.66-7.27,1.41-6.1,4.71-9.9,8.88-14.36,2.69-2.87,3.33-8.4,7.08-10.76,1.52-.96,4.78-3.79,2.36-5.03l-7.21-3.69c-1.53-.78-3.54.27-4.66.69-1.44.55-1.04,3.52-1.64,4.82-3.32,1.41-8.48,1.12-11.86,1.63-3.16,9.23-13.79,5.99-20.29,9.35l-10.69,5.53c-1.5.78-3.18,4.29-5.87,3.93-5.05-.69-10.73-1.29-15.23,1.75l-3.4,5.54c-4.43,2.43-9.55,6.94-12.33,10.2l-4.45.45c-.88.09-.49,2.74.69,4.26l-5.27,3.57c-1.83,2.85-4.24,4.97-7.61,5.58-.33.49-.35,2.33.1,2.75.64.58,2.13.76,3.86,1.27l-7.03,5.8c-2.67,2.2-4.34,4.66-7.1,7.05-6.82,5.9-12.02,15.14-16.7,18.31l-1.4,3.9c-.45,1.24-3.45.27-5.34-.15-1.1-.24-1.01,3.63,1.44,4.01-3.64.96-6.41,7.17-11.25,8.2-3.38.72-4.2,1.62-6.36,4.2-1.08,1.29-5.11,1.64-6.19,3.36l-5.53,8.76-4.78,8.29c6.08-4.68,9.01,2.45,12.26-4.71,2.78.17,5.39.52,8-1.32,1.59.02,2.26,3.54,1.69,4.86-.12.28.02.82.03,1.04l-1.21-.2c-2.62-.42-6.99-1.01-8.04,2.06,1.21,2.69-1.5,1.83-.92.08-4.59-4.72-2.55,3.79-6.33,3.11-.8-.14-1.7-1.24-2.02-2.99-2.93,1.41-4.26,4.74-4.57,7.93-.28-.5-1.15-.25-.72.43-1.12-.09-2.13-.49-2.22-1.12l-.51-3.43-3.54,2.77c-2.09,1.63-6.7-3.33-10.77,1.44-2.02,2.37-6.29.8-8.52,1.56-3.02,1.03-4.15,4.84-5.96,7.15-.73.93-2.77-.11-2.77-1.25,0-1.49.65-2.41,1.85-3.83l10.46-12.46,3.43.59c1.06.18,2.29-2.91,1.04-3.21-1.5-.36-2.62.09-3.4-.34-1.07-.59-1.71-3.59-.25-3.5,3.51.23,7.17,2.32,11.01,1.43,1.67-.38,3.63-3.02,6.45-2.42-.73-4.96,2.12-5.07,5.06-6.5l8.69-7.73c1.2-1.07,10.19-3.16,10.73-9.37-.88-.53-2.36-.42-2.99-.23l-.04-1.8c2.16-.62,4.31-1.69,6.15.87l4.33-5.53c-2.19.38-4.37-.78-3.68-2.93.32-.98.88-2.41,2.75-2.34,1.01.04,2.22.97,3.51,2.64l1.45-7.08c1.43,1.84,2.66,2.58,3.94,2.26,1.02-.25,1.35-1.6,2.18-2.54l3.48-3.96c-1.55-1.36-1.87-2.69-2.01-3.96-.17-1.54,2.9-1.44,3.46-2.14.31-2.47,3.08-5.47,4.33-7.39,2.09-3.21,1.88-6.38,7.85-5.87-1.84-1.79-3.08-1.82-3.51-2.88-.61-1.5-.5-3,1.23-4.36.34.66.57,1.23,1.42,1.84.52-1.33,2.65-1.9,3.28-2.64-.63-1.11-1.8-2.17-1.84-3.21l-.06-1.62c2.45.37,4.45-.98,5.95-3.16,1.07-1.55,3.41-.76,4.73-1.25l11.88-4.35c.69-3.7,1.94-6.64,3.65-10.31,5.6-.61,7.78-5.05,10.57-9.29,6.18-1.94,15.38-6.51,16-9.88.18-.96-1.14-3.68-.47-4.5,2.74-.61,4.6-4.31,6.36-5.47,2.92-1.92,10.33-4.18,10.11-6.64-.08-.92-1.49-2.4-2.08-3.48,2.26-2.68,7.38-3.15,9.78.76,3.06-4.45,6.2-4.62,10.51-4.56,1.4.02,3.4-2.22,5.81.12.5-3.05.35-5.56,1.76-7.65,1.15-1.43,5.96-2.11,7.28-.82s1.49,3.74,2.62,4.23c1.4.61,3.54-.32,4.7-.35,4.34-.09,7.03-7.17,9.91-10.62,1.26-1.51,5.14-3.58,5.95-5.53l3.78-1.22c.48-.16-.02-2.41-1.19-4.02,6.58-5.58,11.52-3.56,13.77-6.24,1.42-1.69,1.86-3.64,1.99-6.68,1.55.1,2.67.8,4.71.1l-3.87-3.75c4.67-2.45,7.39.92,9.28,4.43,1.77,3.28,1.47,5.55.76,9.03-.64,3.17-1.78,3.48-4.25,5.2-5.61,3.93-1.46,13.3-3.89,18.3-2.43.41-9.05,1.78-8.98,5.34.09,4.48.6,7.89-1.35,12.07Z"/>
  <path class="st3" d="M872.9,538.99l.95,9.16.27,9.75c.08,3.01.93,5.5.91,8.11-.7.11-1.08.85-1.08,1.94v27.11c0,1.09.37,1.83,1.04,1.98,0,1.99.65,4.6-1.31,5.96-.87-3.85-2.55-6.66-.91-11.39.75-2.17.24-6.44-1.14-8.17-.94-1.18-7.6-1.63-8.12-.32l-1.34,3.33c-1.6,1.28-1.33,4.91-2.51,6.2l-10.04,10.91c-1.38,1.5-2.19,3.92-3.87,5.04,1.2,2.75-.13,3.99-.77,6.53l-1.25,4.96-4.84,2.36c-.78.38,1.46,2.65,2.51,2.15.65-.31,2.18-.95,3.55.09-1.45,2.75-5.63,2.78-8.68,2.07l-7.38-1.72c.38,1.63,1.18,1.88,2.56,3.22-4.53,1.82-5.18,6.12-3.98,10.88-2.34,1.58-6.22-.38-5.52-2.44,1.07-.15,3.11-1.08,2.13-2.13-.3-.32-.93-.77-1.46-.59-.39.13-.86,1.17-1.21,1.59-2.33.24-4.39,1.17-5.86,3.23l-2.14.88c-.27.11.04,1.56.39,1.52,1.32-.79,2.78-.47,2.99.26.11.38.03,1.4-.36,1.49l-1.96.48c-1.81.45-1.61,3.52-2.09,4.94-3.54,1.34-7.23,3.28-10.32,5.7-.64.5-2.83-1.98-2.3-2.39s2.39-1.44,1.82-2.17c-2.2-2.19-4.42,2.25-5.68,3.24-2.98-.25-6.06-2.02-8.71-.02,2.14,1.27,2.4,5.68.96,5.96-3.18.55-4.36,2.9-5.33,4.95-3.74,1.04-8.62-.65-12.07,2.07-1.48,1.17-3.18,1.36-4.45.57-2.75-1.72-2.55-5.35-5.06-6.07-1.31-.37-2.57.42-3.87,1.28-1.7,1.12-3.24-.37-3.79-1.65s-.28-2.91.57-4.64c-2.94-1.07-4.59,1.31-6.65,2.15-3.06,1.25-6.24-.63-8.82-.35,1.3-11.05-2.29-22.07-10.13-30.6-4.5-4.9-8.06-11.39-7.39-18.33.74-7.75,6.7-13.61,12.7-17.02,3.8,1.39,3.69,5.6,8.48,6.65,4.83,9.59,12.41,7.85,17.76,12.63l-5.27.11c-.23,3.19,1.88,4.52,2.63,6.53.61,1.64-2.37,2.42-3.14,2.15-.52,1.78,1.38,1.99,2.32,2.15,1.56.26.95,2.22-.2,2.01-.47-.08-1.33-.22-2.23.04-1.56,1.12-.69,3.13.14,3.95,1.24,1.24,4.21,1.46,4.77-.42-.27-.85-2.8-2.28-1.61-4.27,2.82,1.54,3.77,4.57,6.37,7.12-2.63,3.38-3.4,7.29-1.91,11.69-1.84-.05-3.34.46-3.57,1.24s.14,2.16,2.15,2.87c1.45-3,4.11-4.89,7.9-4.89l.55-4.65c2.93.34,4.65-1.27,7.08-2.1.96-.33.87,2.01.13,1.94-.5-.05-2.39.79-2.24,1.27.81,2.09,4.19,1.68,6.18,1.19-.34,2.66-2.99,2.4-4.12,2.79-.82,2.2.63,3.05,2.24,4,1.8,1.07,2.53-.51,4.44-1.02,4.68-1.25,12.93-1.33,16.02-5.66.58-.82-.8-2.63-1.69-2.98-1.48-.59-3.18.02-5.23.59,1.3-2.85,4.41-3.02,6.72-3.02l.48-.45c.31-.56.62-1.32.55-2.04-.09-.83-.9-1.5-2.08-3.01,3.88-1.4,8.12,0,10.19,3.25,3.04-3.13,6.35-3.05,9.41-4.75-.4-3.43-1.99-5.61-3.48-8.82,4.72-.09,8.11-1.86,9.96-5.69l6.52.37c-1.33-3.09-1.92-5.19-.69-7.66.8-1.61,2.81-2.91,6.02-3.86-1.25-1.97-2.84-1.75-4.63-2.16.76-3.06,4.6-6.69,6.04-6.77,1.64-.09,1.37,2.04,1.76,3.22.32.95,2.65.06,2.18-1.21l-1.36-3.66c1.7-.74,2.81-.11,4.79.12-.61-5.02-.63-9.41,1.25-13.8,1.75,1.13,2.89.8,3.56.44.89-.48,1.38-2.75.73-2.9l-3.47-.77c-1.01-1.7,2.77-2.98,3.3-4.07l1.59-3.24c.45-.92,3.31-.52,4.85-.62-.39-3.69,1.32-6.77,1.75-10.14l1.46-11.46c.34-2.67,1.13-4.55-1.46-6.17-.56-.35-.88-1.03-.76-1.59.36-1.72,2.79-1.58,4.39-2.8.8-.61.48-2.81.76-3.76,7.48,1.7,1.08,13.83,7.16,6.56.82,4.83-5.84,5.8-1.95,17.1,2.63-1.37,1.87-3.51,1.91-5.04,4.98-1.17,1.33-5.59,3.66-8.58ZM744.99,606.38c0-.81-.66-1.47-1.47-1.47s-1.47.66-1.47,1.47.66,1.47,1.47,1.47,1.47-.66,1.47-1.47ZM749.88,609.36c-.04-1.11-1.7-1.21-2.15-.91-.17.12-.83,5.39.68,7.07.57-1.95,1.52-4.31,1.46-6.16ZM799.67,633.31l-.61.36c.74,2.63,4.32,3.35,6.34,1.89-2.58-1.15-3.86-2.38-5.73-2.25ZM775.26,647.7c-1.11-2.94-2.16-3.08-3.08-3.26-.83-.17-1.33,1.93-.78,2.17,1.65.29,2.95,1.16,3.87,1.09Z"/>
  <path class="st7" d="M652.26,886.93c.04,1.05,1.21,2.1,1.84,3.21-.63.75-2.76,1.31-3.28,2.64-.85-.61-1.08-1.18-1.42-1.84-1.73,1.36-1.84,2.86-1.23,4.36.43,1.06,1.67,1.09,3.51,2.88-5.97-.51-5.76,2.66-7.85,5.87-1.25,1.92-4.02,4.92-4.33,7.39-.55.7-3.63.6-3.46,2.14.14,1.28.46,2.61,2.01,3.96l-3.48,3.96c-.83.94-1.16,2.28-2.18,2.54-1.28.32-2.5-.43-3.94-2.26l-1.45,7.08c-1.28-1.67-2.5-2.6-3.51-2.64-1.88-.07-2.44,1.36-2.75,2.34-.7,2.15,1.49,3.31,3.68,2.93l-4.33,5.53c-1.85-2.56-4-1.49-6.15-.87-1.53-.71-1.83-1.63-2.34-3.36-.99,1.69-.66,3.32-.48,4.66.11.8,1.95.76,2.86.49.63-.18,2.11-.3,2.99.23-.54,6.21-9.52,8.31-10.73,9.37l-8.69,7.73c-2.95,1.42-5.79,1.54-5.06,6.5-2.82-.59-4.78,2.04-6.45,2.42-3.84.89-7.51-1.2-11.01-1.43-1.47-.1-.83,2.91.25,3.5.78.43,1.91-.02,3.4.34,1.25.31.02,3.4-1.04,3.21l-3.43-.59-10.46,12.46c-1.2,1.43-1.85,2.34-1.85,3.83,0,1.13,2.04,2.18,2.77,1.25,1.81-2.31,2.94-6.12,5.96-7.15,2.23-.76,6.5.81,8.52-1.56,4.07-4.77,8.68.2,10.77-1.44l3.54-2.77.51,3.43c.09.63,1.11,1.03,2.22,1.12-32.31,13.28-66.42,23.09-101.17,27.75-3.02-2.04-5.76.05-8.2-6.9l3.75-1.18c1.41-.44,1.61-1.97,1.14-4.04-8.15.89-10.76-11.51-12.26-7.26-.6,1.69,1.45,5.97-1.11,3.79-.83-.7-2.13-1.55-2.9-1.59-1.17-.05-2.04,1.95-1.99,3.02-2.7-.67-2.39-2.58-3.41-3.94-5.85.75-10.71-.07-15.21-2.09,2.72-1.12,2.32-2.85.62-3.22-3.09,2.23-5.04.81-7.29-.59-5.12,3.45-9.58-.64-9.13,2.23.06.35,1.14.48,1.57.96,1.45,1.63.84,3.09-.83,4-1.19.64-2.95.53-4.89-.93l-5.02,3.44-12.55-1.72c-.08,1.41-1.13,3.95-2.27,4.14-3.3-1.45-6.52-.57-8.11,2.74-3.28,6.83-9.5,6.48-9.26,8.55.29,2.49,9.33-.41,10.3,6.47-1.99,0-4.47-.63-5.97.99h-1c-.11-.67-.86-1.06-1.93-1.06l-13.07.05c0-.58-.94-1.25-1.91-1.08-3.64.64-6.6-.57-10.06-.87s-7.08.51-10.23-1.35c22.25-9.87,43.37-21.65,63.16-35.77-1.39,2.04-.67,3.85.43,5.29,1.47,1.93,3.18,1.29,5.54,2.01l2.5.76c.39.12.95-.92.58-1.4l-1.08-1.41-2.97-6.84c.26-2.53,2.43-3.19,4.01-4.45-.28,3.19,1.62,5.58,2.24,9.08l7.55-1.62c1.11-.24,1.57-2.9,3.4-2.08,1.7.77,3.33,1.22,4.29,3.59,5.7-2.22,11.3-4.55,16.34-8.56,2.06,1.3.94,3.72,1.33,4.54,1.46,3.02,5.36,2.55,7.97.55,1.56,3.11,2.86,6.48,5.31,7.62.73-.57,1.86-1.71,2.37-1.89,2-.71,2.42,3.6,4.79,3.33,1.18-.13,2.05-1.64,1.8-3.6,2.41.48,4.03,1.98,6.22,2.96l7.32-4.97c1.23,1.63,3.94,3.24,5.56,2.43l1.33-3.06c.68-1.56,10.37-1.65,13.68,4.24,1.57-1.6.84-2.78,1.06-3.36,1.1-2.88,9.27,1.94,12.33-5.87,2,1.94,3.3,2.41,4.53,2.95,2.6,1.14,3.9-1.8,5.25-2.21,4.21-1.05,7.97-1.3,10.92-4.36-3.69-.92-2.09-2.72-1.45-3.93,1.22-2.3,2.7-1.48,4.86-1.1,2.34.41,2.39-2.75,4.13-6.04.36-.68,2.15-.49,2.08.17l-.29,2.68c-.04.39.79.64,1.45.59.78-.06,1.24-1.65,1.67-2.09,6.59-1.67,9.15,5.3,18.63-4.94l-5.09-1.96c4.14-2.39,5.72-5.1,8.07-8.35,1.17,1.21,1.02,2.3.92,2.96-.23,1.44,1.8,1.29,2.01.43s-.36-1.9-.07-2.28c1.19-1.58,5.08-1.67,6.94-3.84,2.39-2.79-1.54-8.41,5.19-10.33.39,2.22.97,3.34,2.28,4.44,1.33-2.67,1.1-3.8,1.58-5.86,3.24-2.55,8.07-4.94,9.39-9.25-.17-1.94-3.2-5.56-1.45-7.62l3.55-.82c1.02-.23.76-2.69,1.24-4.87l3.67,4.03c2.15-1.97,2.85-3.8,3.7-6.24,9.58-1.07,6.25-10.2,11.48-11.35,1.32-.29,2.07-1.88,1.94-3.15l4.27-.98ZM469.25,975.43c-2.55-3.76-4.35-.46-9-1.21,1.54,3.09,6.58,2.4,9,1.21ZM504.98,979.15c-1.68,1.73-.81,3.09-.07,3.4,1.02.43,1.74.18,2.22-.13.83-.53,1.27-2.23.86-2.87-.46-.71-2.16-1.28-3.01-.41Z"/>
  <path class="st4" d="M760.23,304.82c-1.96.85-2.63,2.74-1.9,4.37,1.41,3.14,8.22,2.45,7.29,7-.4,1.95-2.25,2.91-4.57,2.6-3.85-.51-7.1,1.23-10.26,1.55-4.82.49-9.88-.61-15.12,2.15-.93-3.72-2.89-7.42-6.68-7.51-2.73-.07-1.5,3.33-1.52,4.67-.04,2.73-4.51,3.48-6.25,4.39-5.59,2.92-10.92,4.83-17,2.67-6.46,5.43-12.86,4.97-13.33,10.05-2.51-.66-4.18-.33-6.74.05.73-3.54-.49-5.3-3.64-5.08-2.31.17-3.69,1.08-3.99,4.92-2.78-3.69-4.83-1.81-7.48-2.03-1.4-.12-3.08-3.18-5.84-1.15-3.33,2.47-6.76-3.02-11.52.62-4.69-1.75-10.4-1.64-15.5-1.31-4.42-2.34-9.49-4.76-9.37-4.82l-2.12,1.02c-2.76-4.93-5.64-9.76-8.77-14.88l-3.79-6.21c-2.85-4.66-5.94-8.59-9.05-12.68,1.75-.28,3.46-.59,5.18-.07,4.11,1.23-.44,10.35,11.37,12.29l3.07,2.35c1.65,1.27,4.4-6.39,8.71-3.29,5.09,3.66,10.04,6.07,16.68,6.85.93-5.73,4.63-7.16,9.02-9.53,3.06-1.65,6-6.77,10.46-4.32,3.17,1.74,6.36,3.39,10.07,1.04.58,1.71,1.13,2.24,1.57,2.83.52.71,2.47,1.01,3.21.43,2.6-2.03,4.73,0,6.8-.01,5.34-.04,8.53-5.28,11.34-9.11l5.18-7.05c4.18.12,5.31-2.1,6.65-5.66.49-1.31,4.18-2.18,2.61-5.18-6.79-.29-10.22,4.98-12.93,2.77-.65-.53-1.72-2.19-1.08-3.48l7.05-13.45c2.6,1.7,6.75,3.58,8.79,6.34,1.89,2.57,3.95,2.43,6.05,4.12l24.4,19.62c4.85,3.9,8.88,7.96,12.96,12.1Z"/>
  <path class="st3" d="M504.8,902.81l11.12-12.75c2.26,2.31-3.62,3.23-3.81,8.9-2.47.19-4.98,2.23-4.86,5,.94.63,3.52-.02,4.04-1.05.56-1.11.69-2.58.81-3.94l5.75-3.29c3.16,9.25,8.57,3.49,11.38,7.64l2.81-3.74-.62-.6-1.92.64c-.56.19-1.7-1.06-1.34-1.43,1.34-1.41,3.24-.9,3.87-.02.17.24.52.39.77.53,2.57,1.39,5.34,1.29,7.8-1.25.82-.84,3.63-.96,3.45-2.87l-.56-.68-5.55.65c1.12-1.78,2.34-2.18,3.66-2.74.77-.33,1.87.13,1.9,1.43,0,.38.54.92,1.11,1.04,1.27.27,2.47.45,3.61,1.2l-5.89,4.5c2.44,2.43,3.18-.74,4.18-1.25,2.83-1.45,5.95-2.64,6.3-5.67.07-.64-1.29-2.05-1.01-2.56.38-.69,1.88-.65,2.18-.09l1.06,1.95c2.09-.03,6.21.05,7.93-1.2,2-1.82,3.27-3.24,6.59-4.49-1.46-3.19-4.48.68-8,1.24-.53.08-2.02-.33-1.21-1.97l6.61-2.33c2.63-.93,5.04-.35,7.87-1.91.35,2.9-1.54,2.8-3.44,4.55,6.14,2.19,9-6.97,16.66-8.86-2.18-4.95.69-7.51,4.5-10.12,1.86-1.27,3.03-3.62,6.01-3.38-1.61-5,6.54-4.82,2.13-11.15,4.53-2.03,8.81-9.23,8.86-9.05-.17-.6-1.07-2.52,0-2.9l3.45-1.26c1.12-.41.58-2.33,1-3.42l5.97-15.13,3.92-12.92c.33-1.08-1.34-3.77-.18-4.73.84-.69,2.84-2.06,3.28-3.51.2-.88-2.15-2.31-2.28-3.23s1.62-3.1.97-3.75c-1.28-1.24-2.65-2.3-2.81-3.31-.4-2.51,1.13-2.35,2.73-3.23,1.9-1.05,2.36-2.28,4.93-1.54-1.3-2.82-.97-4.01-.8-5.47.22-1.84,2.89-1.77,3.55-2.64,1.41-1.85-.62-5.19-2.27-6.65,1.68-3.59,4.39-5.71,5.11-9.65-1.55-.45-3.06-1.66-2.89-2.74.1-.67,2.01-1.4,2.11-2.42l.77-8.06c1.83-4.68.15-8.51-3.77-11.16,2.37-5.54-5.54-4.25-4.7-8.45.1-.48,4.35-6.28,8.56-7.1-1.13-1.35-1.13-3.07-.45-3.12l3.31-.22c-.16-2.22-1.54-3.02-2.4-4.85,1.32-1.1,1.44-2.96.68-3.24-.64-.24-2.16-.22-3.6.04,0-1.19,1.2-1.17,1.7-.76.29.24.75-1.04.61-1.38l1.96.08c2.48,2.4,5.93.58,8.97.22l23.32-2.76c-3.13,1.96-6.31,1.48-7.81,5.13-1.66-.02-3.54.57-4.36,1.25-1.58,4.49,1.89,7.7,2.63,11.34.64,3.19-3.87,4.81-6.32,5.46-.8.21-1.44,2.81-3.51,2.02.3-4.74.5-9.7-3.24-13.95-.37,2.68.32,4.89,1.66,7.51-3.55,4.14,1.37,7.93,2.55,10.61-1.78,3.78-2.8,7.88,1.15,11.69,1.17,1.47-2.16,5.7-1.64,7.47.66,2.22,2.16,4.28.83,7.17-.81,1.76-1.36,3.98-.25,6.31-.49.25-1.44.48-1.92-.08-.3-.35-.61-1.06-.78-1.72-.37-1.43-1.5-1.49-2.43-1.18-.54.18-1,1.28-.52,1.86l1.73,2.11c-3.22-.11-5.67,4.1-4.29,6.53,2.42,4.28.55,6.87-1.54,10.69-.68,2.09,1.81,6.5-.69,8.83,2.28.23,3.77.52,4.47,1.11.63.53-.86,2.7-.62,3.72.79,3.46-1.94,5.9-3.37,8.19-1.88,3.02-1.97,4.56-5.17,6.73l-5.38,8.7c2.73.12,2.91-2.37,3.85-3.52,4.92.6,5.34-7.91,6.92-4.94,0-.01-2.04,8.05-6.25,10.63l-.13,6.69c-2.77-.14-4.57.44-6.38,1.92-.43-.97-.72-1.49-1.08-1.7-2.76-1.63.49,5.28-1.13,5.63-.55.12-2.37.15-3.1,1.06-.41,1.02,1.78,4.33.08,5.64-2.68,2.06-6.24,2.58-7.36,7.11,1.93-.65,4.88.03,5.16,1.3-.39,2.75-4.19,1.15-5.48,1.22l-1.65,4.36c-.31.82-3.17.37-3.79,1.5-.34.62,1.88,2.04,1.82,2.74-.06.76-.94,2-2.44,2.43.78,6.16-5.06,14.32-6.04,14.36-1.13.04-2.36-.27-3.95-1.29-2.14,3.85-5.62,6.08-10.44,6.23-.07,2.4-1.71,4.84-2.54,6.69.12.78.79,2.7-.28,2.72-.63.01-2.76-.16-2.88.74l-.6,4.59-2.95,1.84c-1.55,2.19-2.38,4.72-5.62,4.65-3.03-.06-5.42,1.92-5.8,5.32l-6.81-3.82c.96-1.81,1.38-3.04.72-4.86-2.41,3.28-2.6,5.41-3.51,8.86-6.93-3.92-6.55,3.31-13.35,5.7-6.88-5.33-8.81,1.41-18.32,2.72.73,1.09.65,2.16.16,2.27s-1.64.28-1.79-.02c-.6-1.15,1.16-3.48-.04-3.79-1.43-.37-3.87,1.72-4.42.47-.28-.64.28-1.32.47-1.65,1.02-1.74,4.58.1,4.22-1.94-.62-3.53-4.36-.84-8.12-4.44-1.16,8.55-9.51,3.4-12.76,7.38,1.75.1,3.19-.21,4.26.73-2.08,2.02-4.33.56-6.07,1.1l-1.6,2.49c-.66,1.03-2.22-3.27-2.45-3.26-2.13.04-2.87,3-3,5.34l-5.27-3.16,14.25-16.14c.34-.39-.6-1.22-1.18-1.03ZM604.46,852.18c-1.81.54-2.02,2.26-1.49,3.21.32.58,1.37,1.14,2.45.84.61-.17.75-1.79.65-2.51-.09-.67-.68-1.82-1.62-1.54Z"/>
  <path class="st11" d="M636.02,706.91c.15.33-.31,1.62-.61,1.38-.5-.41-1.7-.44-1.7.76,1.45-.26,2.97-.27,3.6-.04.76.28.64,2.14-.68,3.24.86,1.83,2.24,2.63,2.4,4.85l-3.31.22c-.68.05-.69,1.77.45,3.12-4.21.83-8.47,6.63-8.56,7.1-.84,4.2,7.07,2.91,4.7,8.45,3.92,2.65,5.6,6.48,3.77,11.16l-.77,8.06c-.1,1.02-2.01,1.75-2.11,2.42-.16,1.08,1.34,2.29,2.89,2.74-.72,3.95-3.43,6.07-5.11,9.65,1.65,1.46,3.68,4.8,2.27,6.65-.66.87-3.33.8-3.55,2.64-.17,1.45-.5,2.64.8,5.47-2.56-.74-3.03.49-4.93,1.54-1.6.88-3.13.72-2.73,3.23.16,1.02,1.53,2.07,2.81,3.31.65.65-1.1,2.84-.97,3.75s2.48,2.35,2.28,3.23c-.43,1.45-2.44,2.82-3.28,3.51-1.16.96.5,3.65.18,4.73l-3.92,12.92-5.97,15.13c-.43,1.08.12,3-1,3.42l-3.45,1.26c-1.06.39-.16,2.3,0,2.9-.05-.18-4.33,7.02-8.86,9.05,4.42,6.33-3.73,6.15-2.13,11.15-2.98-.24-4.15,2.11-6.01,3.38-3.81,2.61-6.68,5.17-4.5,10.12-7.66,1.89-10.52,11.05-16.66,8.86,1.9-1.76,3.79-1.65,3.44-4.55-2.83,1.56-5.24.98-7.87,1.91l-6.61,2.33c-.81,1.64.68,2.06,1.21,1.97,3.52-.56,6.54-4.43,8-1.24-3.32,1.25-4.59,2.68-6.59,4.49-1.72,1.25-5.84,1.17-7.93,1.2l-1.06-1.95c-.3-.56-1.8-.59-2.18.09-.28.5,1.09,1.92,1.01,2.56-.35,3.03-3.47,4.23-6.3,5.67-1,.51-1.74,3.67-4.18,1.25l5.89-4.5c-1.13-.75-2.34-.93-3.61-1.2-.23.03-.44.15-.55.3.18,1.91-2.64,2.03-3.45,2.87-2.46,2.54-5.23,2.64-7.8,1.25l-.77.88-2.81,3.74c-2.81-4.15-8.21,1.6-11.38-7.64l-5.75,3.29c.2-5.67,6.07-6.59,3.81-8.9l7.25-9.16c.83,2.64-1.53,4.63-3.33,7.65,3.85.04,5.27-.3,8.55,2.1-.87-4.1.42-4.91,2.16-6.59,1.85-1.77,3.75-1.39,6.38.33,2.13-3.47,5.32-3.92,9.27-3.38-.58-2.53-3.11-1.95-4.24-2.81-1.17-3.16,2.3-5.44,4.56-4.89,2.7.66,4.31.73,6.27-1.48.45,2.1,1.17,3.5,2.13,3.85,3.81,1.4,10.95-3.26,11.46-4.02,2.12-3.14,4.84-2.97,7.59-4.79,1.63-1.08,3.19-4.48,4.98-6.07,1.44-1.27,4.66-9.51,10.31-8,.76-5.97,6.49-5.6,8.47-12.72-.42-.78-1.61-1.89-1.61-2.65.01-2.98,8.31-2.93,6.71-6.34-.76-1.63-2.39-2.5-1.94-4.43s1.82-2.44,3.51-3.29c2.87-1.44.26-5.33,1.06-6.8l3.6-6.66c.96-1.78,2.63-4.61-.04-5.98-.6-.31-2.04.1-2.45.08-.64-.03-.95-1.75-.52-2.4.34-.52,1.98-.33,2.61-.84,1.87-1.52,2.65-3.23,5.62-4.11l-4.09-8.22c2.79-5.65,3.55-11.3,1.15-17.31,2.21-.91,3.34-1.78,3.74-2.8.6-1.52-.78-3.91-.98-5.38l-1.51-11.17c2.64-.04,4.86-4.09,3.03-5.26-2.78-1.77-5.06-2.85-6.01-6.27-.63-2.27-4.06-1.07-5.07-1.75l-6.52-4.4-4.49-5.76-1.51,2.06c-.24.33-.93.78-1.21-.51,8.76-15.58,27.59-21.9,45.2-23ZM551.9,877.14c-.54-2.23-4.03-1.34-3.94-.23.15,2,4.22,1.38,3.94.23ZM577.5,880l-.5.5.5.5.5-.5-.5-.5ZM543.5,893.24c-.03-1.3-1.13-1.75-1.9-1.43-1.32.56-2.54.96-3.66,2.74l5.55-.65v-.66ZM532.04,898.17c-.63-.88-2.53-1.39-3.87.02-.35.37.79,1.61,1.34,1.43l1.92-.64.61-.81Z"/>
  <path class="st11" d="M512.11,898.96c-.12,1.36-.26,2.84-.81,3.94-.52,1.03-3.1,1.69-4.04,1.05-.12-2.77,2.39-4.81,4.86-5Z"/>
  <path class="st2" d="M794.02,342.1c-.65-.26-2.94-.72-3.57.16-.9,2.63-1.67,7.59-4.57,7.45l-6.26-.3c-1.71-.08-3.11.54-4.35-.06-1.11-.54-2.17-1.59-2.31-4.05-2.9-.25-6.04.79-9.22-.24-1.18-.38-2.44-2.42-4.1-1.84-1.91.67-5.9,4.91-6.68,8.99l-5.38-2.8c-4.27-2.23-8.41-3.24-13.25-2.86-1.06.08-3.3-1.61-4.4-.34l-2.25,2.57c-2.29,2.62-5.47,5.72-9.16,3.77-.82-.43-1.61-2.03-2.96-1.41-2.32,1.07-.71,4.69-3.01,5.11-.9.16-2.28-.12-2.89-.47-6.3-3.66-13.35,1.21-17.54.54l-6.43-1.04c-9.86-1.59-9.34,6.64-14.84,2.18-1.63,1.06-1.96,2.25-2.79,3.85-8.98-1.47-12.15,3.15-19.1-2.14l-7.96-6.06c-1.8-1.37-3.73-1.57-5.24-.11l-8.06-18.71-2.97-5.29,2.12-1.02c-.12.06,4.96,2.47,9.37,4.82,5.1-.33,10.81-.45,15.5,1.31,4.76-3.64,8.19,1.85,11.52-.62,2.75-2.04,4.44,1.03,5.84,1.15,2.65.22,4.7-1.67,7.48,2.03.3-3.83,1.68-4.75,3.99-4.92,3.15-.23,4.36,1.53,3.64,5.08,2.56-.39,4.24-.71,6.74-.05.47-5.08,6.87-4.62,13.33-10.05,6.08,2.16,11.41.25,17-2.67,1.74-.91,6.21-1.66,6.25-4.39.02-1.34-1.21-4.73,1.52-4.67,3.79.09,5.75,3.79,6.68,7.51,5.24-2.76,10.3-1.66,15.12-2.15,3.16-.32,6.41-2.06,10.26-1.55,2.32.31,4.17-.65,4.57-2.6.93-4.55-5.88-3.86-7.29-7-.73-1.64-.06-3.52,1.9-4.37l15.83,16.06,17.95,21.21Z"/>
  <path class="st10" d="M735,893.21l-19.74,16.97-15.78,12.19-23.47,15.77c1.08-10.41,6.15-8.6,12.2-12.97,4.77-4.9,10.18-8.81,16.74-11.18,2.69-4.75,7.03-7.91,11.62-10.24,5.53-3.78,7.14-9.54,9.18-15.3,1.77-5.01,9.71-6.2,12.39-9.88l4.29-5.89c1.32-1.81-1.4-4.8-2.95-4.72-2.47.13-4.43.34-5.63,3.14-1.01,2.35-5.2,4.86-7.4,3.75-.52-2.77-.77-4.74-3.49-5.38-1.72-.4-3.54-.46-5.11,1.4-3.95,4.68-12.07,6.82-15.02,9.87-2.01,2.07-3.23,3.69-5.73,5.57l-2.56,4.91c-1.42.66-3.37,1.13-5.99.78-.86,4.8-6.83,8.13-10.97,7.71-.77-.13-2.07-2.81-3.84-1.35.97,3.1-.43,6.17-2.78,8.51-2.86,2.83-3.56,5.76-4.8,9.55-.56,1.73-5.14,1.86-6.27,3.24-.92,1.13-.97,2.81-1.68,3.24-.85.51-2.92.33-4.32.19-.9,3.98-4.08,6.2-6.67,9.44-1.54,1.92-1.2,7.07-4.71,8-3.18.84-5.23,1.29-6.3,4.55-.72,2.2-.32,7.58,3.05,6.49l7.72-2.49c1.6-.51,2.02-2.82,2.68-3.57l10.93-2.75c1.43-.36,1.97-2.85,3.67-2.5,1.09.23,2.39,1,3.38,1.82-.36,1.24-1.23,2.12-2.62,2.9l-17.37,9.77c-8.46,4.76-16.72,9.43-25.64,12.33l-2.07-.14c.57-1.32-.1-4.84-1.69-4.86-2.62,1.84-5.22,1.49-8,1.32-3.25,7.17-6.18.03-12.26,4.71l4.78-8.29,5.53-8.76c1.08-1.71,5.11-2.06,6.19-3.36,2.16-2.58,2.98-3.48,6.36-4.2,4.84-1.03,7.61-7.23,11.25-8.2-2.44-.38-2.54-4.25-1.44-4.01,1.89.41,4.89,1.39,5.34.15l1.4-3.9c4.68-3.17,9.89-12.41,16.7-18.31,2.75-2.38,4.43-4.84,7.1-7.05l7.03-5.8c-1.73-.5-3.22-.69-3.86-1.27-.46-.42-.44-2.26-.1-2.75,3.37-.61,5.78-2.74,7.61-5.58l5.27-3.57c-1.18-1.52-1.57-4.17-.69-4.26l4.45-.45c2.78-3.27,7.9-7.77,12.33-10.2l3.4-5.54c4.51-3.04,10.19-2.44,15.23-1.75,2.69.37,4.37-3.15,5.87-3.93l10.69-5.53c6.5-3.36,17.13-.12,20.29-9.35,3.38-.5,8.55-.21,11.86-1.63.6-1.29.21-4.27,1.64-4.82,1.12-.43,3.13-1.47,4.66-.69l7.21,3.69c2.42,1.24-.84,4.07-2.36,5.03-3.75,2.36-4.39,7.89-7.08,10.76-4.18,4.46-7.47,8.26-8.88,14.36-.92,3.98-6.53,4.63-8.66,7.27l-9.31,11.56c-1.48,1.84-2.52,3.77-2.84,5.47Z"/>
  <path class="st7" d="M821.87,767.88c.4,4.79.79,10.69-1.36,15.65l-4.28,1.69c-3.58,3.06-3.66,7.92-2.33,11.78-1.94,5.68-5.56,10.53-9.26,15.62l-16.64,22.52c1.95-4.18,1.44-7.6,1.35-12.07-.07-3.55,6.55-4.92,8.98-5.34,2.43-5.01-1.72-14.37,3.89-18.3,2.46-1.72,3.6-2.03,4.25-5.2.71-3.48,1-5.75-.76-9.03-1.89-3.51-4.61-6.89-9.28-4.43l3.87,3.75c-2.04.7-3.16,0-4.71-.1-.13,3.03-.57,4.99-1.99,6.68-2.25,2.67-7.19.66-13.77,6.24,1.17,1.61,1.68,3.86,1.19,4.02l-3.78,1.22c-.81,1.95-4.69,4.01-5.95,5.53-2.89,3.46-5.57,10.54-9.91,10.62-1.15.02-3.3.96-4.7.35-1.13-.5-1.3-2.95-2.62-4.23s-6.14-.61-7.28.82c-1.41,2.09-1.26,4.6-1.76,7.65-2.41-2.34-4.41-.1-5.81-.12-4.31-.07-7.46.11-10.51,4.56-2.4-3.91-7.53-3.44-9.78-.76.59,1.09,2,2.57,2.08,3.48.21,2.46-7.19,4.72-10.11,6.64-1.76,1.16-3.62,4.86-6.36,5.47-.68.83.64,3.54.47,4.5-.62,3.37-9.82,7.94-16,9.88-2.79,4.24-4.97,8.68-10.57,9.29-1.71,3.67-2.96,6.61-3.65,10.31l-11.88,4.35c-1.32.48-3.66-.3-4.73,1.25-1.51,2.18-3.5,3.53-5.95,3.16-1.16-1.71-1.49-3.77-1.22-6.23,1.77-.16,2.9-.33,4.15-.96-.15-2.56.63-4.17,1.72-5.86.87-1.34,3.99-.92,5.24-2.08,2.12-1.98,3.47-4.63,5.99-6.06,3.63-2.05,2.15-7.02,3.16-10.01,1.49-1.88,7.1-2.84,6.27-6.92-.13-.62-1.33-1.96-1.2-2.57.03-.13,8.94-5.06,9.3-5.72l3.92-7.27c.97-1.8,1-3.61,2.45-4.42,1.21-.67,3.76-.28,4.92-.55,2.68-2.46,5.47-5.81,9.94-5.84l2.19-6.69c2.9.07,4.59-2.41,6.44-3.74,2.22.15,6.84,1.51,8.35-1.55.49-1-.43-3.89,1.79-4.56,1.57-.47,5.29-.37,6.15-2.44,1.18-2.84,2.45-3.78,4.75-4.01,3.12-.31,3.46.52,5.27,2.95,2.28,3.05,9.11,1.51,10.79-2.22,2.34,1.15,3.68,1.41,5.18.75,3.55-1.58,2.99-6.76,4.57-6.3l2.92.83c2.53-1.64,5.97-2.17,10.87-1.16-1.9-2.92-3.66-3.71-2.81-5.78,1.4-3.36,12.14-2.14,9.19-7.51-1.2-2.17-.8-7.47,2.15-7.1,5,.63,8.69,1.49,12.78-2.06.62-.53,2.8-.33,3.25-1.01s.21-3.47.92-3.99c3.95-2.87,8.84-8.71,8.32-13.61,3.4.26,7.48,2.29,10.48-.19.56-.91.53-3.45,1.62-4.46,2.49.61,4.62,1.19,6.78,2.88-1.84,1.3-3.03,2.01-3.54,3-.54,1.05.67,2.95.81,4.24l-3.74,1.71-.99,3.4c-1.39,1.17-2.83,2.2-1.95,3.8.42.75,1.73,1.44,2.52,1.89Z"/>
  <path class="st14" d="M871.49,526.94l1.4,12.05c-2.33,3,1.32,7.41-3.66,8.58-.04,1.53.73,3.67-1.91,5.04-3.89-11.3,2.77-12.27,1.95-17.1-6.08,7.28.32-4.86-7.16-6.56-.28.95.03,3.15-.76,3.76-1.6,1.22-4.02,1.08-4.39,2.8-.12.56.2,1.24.76,1.59,2.59,1.63,1.8,3.5,1.46,6.17l-1.46,11.46c-.43,3.37-2.14,6.45-1.75,10.14-1.54.1-4.39-.31-4.85.62l-1.59,3.24c-.54,1.09-4.31,2.37-3.3,4.07l3.47.77c.65.14.16,2.41-.73,2.9-.67.36-1.81.69-3.56-.44-1.88,4.38-1.86,8.77-1.25,13.8-1.99-.23-3.09-.86-4.79-.12l1.36,3.66c.47,1.27-1.86,2.16-2.18,1.21-.4-1.18-.12-3.32-1.76-3.22-1.45.08-5.29,3.71-6.04,6.77,1.79.41,3.38.18,4.63,2.16-3.21.95-5.23,2.25-6.02,3.86-1.22,2.47-.64,4.56.69,7.66l-6.52-.37c-1.85,3.84-5.24,5.6-9.96,5.69,1.5,3.22,3.09,5.4,3.48,8.82-3.06,1.7-6.37,1.63-9.41,4.75-2.07-3.25-6.31-4.65-10.19-3.25,1.18,1.51,1.99,2.19,2.08,3.01.08.72-.24,1.48-.55,2.04l.68.82c1.87-.13,3.15,1.1,5.73,2.25-2.02,1.46-5.6.74-6.34-1.89-.08-.3-.32-.57-.55-.73-2.31,0-5.42.17-6.72,3.02,2.05-.57,3.76-1.18,5.23-.59.89.36,2.27,2.17,1.69,2.98-3.09,4.33-11.34,4.41-16.02,5.66-1.91.51-2.64,2.09-4.44,1.02-1.61-.96-3.06-1.81-2.24-4,1.14-.38,3.79-.13,4.12-2.79-1.98.49-5.36.91-6.18-1.19-.15-.48,1.74-1.32,2.24-1.27.74.07.83-2.27-.13-1.94-2.43.83-4.14,2.44-7.08,2.1l-.55,4.65c-3.79,0-6.45,1.89-7.9,4.89-2.01-.7-2.36-2.12-2.15-2.87s1.72-1.28,3.57-1.24c-1.49-4.4-.72-8.31,1.91-11.69-2.6-2.55-3.55-5.59-6.37-7.12-1.19,1.99,1.34,3.42,1.61,4.27-.55,1.88-3.52,1.66-4.77.42-.82-.82-1.7-2.83-.14-3.95.9-.26,1.76-.12,2.23-.04,1.16.21,1.76-1.75.2-2.01-.94-.16-2.84-.36-2.32-2.15.77.27,3.76-.51,3.14-2.15-.75-2-2.86-3.34-2.63-6.53l5.27-.11c-5.35-4.78-12.93-3.04-17.76-12.63-4.79-1.05-4.68-5.26-8.48-6.65,3.08-3.98,3.01-9.36-.27-13.72-4.87-7.42-19.64-9.14-15.22-11.31l2.39-1.17c1.35,1.36,3.29.74,4.83.79.48.53,1.09,2.24,2.06,2.28,3.02.12,1.13-6.8,4.64-7.87,1.06,4.24,2.73,6.28,7,8.19-3.26.77-5.13,2.05-5.64,4.37-.53,2.45,1.5,5.05,4.23,4.76,2.51-.26,3.03-3.43,4.04-4.27l5.69.45c.45.45.97,2.46,2.01,2.44.72-.01,1.84-1.26,2.78-1.61,1.72-.63,3.15,1.35,3.6,2.41.73,1.72-.11,3.32-1.47,4.26-1.53,1.06-3.18.63-6.48.11,1.22,2.51,5.5,2.23,7.07,4.79l3.49,5.69c.54.88,2.58.31,3.72-.55,2.49,2.57,4.27,5.51,6.15,8.63.86.33,2.37-.36,3.66-.98-1.24,5.89,4.96,10.87,10.36,11.31,2.11.17,3.53-1.7,5.06-3.21,3.23-3.17,8.33.73,10.96.02l11.41-5.83c2.22.94,3.45,2.77,6.38,3.24.11-1.87-1.13-2.64-2.22-3.41.45-2.12.04-3.03-1.25-4.74,8,1.05,5.98-8.23,12.21-5.6,1.97-.9,3-4.98,2.58-6.76-1.84.5-2.16,1.68-2.24,2.24-.21,1.4-2.82,1.79-2.52-.18l3.01-2.72c.69-.63-.45-2.56-.82-4.63,2.78,2.07,5.89,1.95,8.07-.36-1.13-.89-2.02-1.93-2.12-2.67-.41-3.12,5.86-1.09,5.96-4.79.05-1.74-2.49-1.51-3.33-2.12-2.07-1.52.82-3.04,1.76-3.91,3.23-2.95,5.11-5.27,9.35-5.96,2.38-.39.5-3.61.68-4.77.31-1.95,2.89-4.72.74-7.19-.58-.66-.96-1.67-.97-2.26-.02-.68.94-2.22,1.57-2.05,1.65,1.54,3.11,1.59,4.81.1.34-.3,1.03-.16,1.3-1.05.42-1.38-1.62-1.19-2.07-1.56-2.09-2.41.47-6.49,2.43-8.48l4.02-4.08c2.31-2.35-.74-5.39-.71-7.22.14-2.95,4.39-5.44,8.18-5.27-1.67,2.31-1.25,3.87-1.1,5.8.24,2.94,3.1,1.95,4.69,2.93.93.57.48,4.17,3.16,3.38ZM832.11,582c0-.61-.5-1.11-1.11-1.11s-1.11.5-1.11,1.11.5,1.11,1.11,1.11,1.11-.5,1.11-1.11ZM819.72,598.39l-4.13.13c.64,2.08,1.89,2.12,2.76,2.2.76.07,2.11-.34,1.37-2.33ZM807.79,607.55c.35-.34.29-1.59-.02-1.93-.27-.29-1.04-.57-1.75-.37-2.42.67-3.43,2.49-3.85,4.28,3.02-.52,4.11-.48,5.63-1.98ZM767.11,632c0-.61-.5-1.11-1.11-1.11s-1.11.5-1.11,1.11.5,1.11,1.11,1.11,1.11-.5,1.11-1.11ZM783.05,634.28c-.08-.92-.92-.92-1.4-.74-.63.24-.58.76-.46,1.08.18.45.84.81,1.33.41l.52-.74ZM783.7,634.95l-.41.7c.34,1.71,1.25,3.39,3.87,3.4-.55-2.42-1.91-3.28-3.45-4.09ZM788.94,637.64c-.18,1.53,1.16,1.6,1.55,1.37.54-.32.75-.92.51-1.51-.19-.47-1.32-1.18-2.07.14Z"/>
  <path class="st5" d="M686.94,249.72l5.53,2.75,15.55,10.18-7.05,13.45c-.64,1.29.43,2.95,1.08,3.48,2.7,2.21,6.14-3.06,12.93-2.77,1.58,3-2.11,3.87-2.61,5.18-1.34,3.57-2.47,5.79-6.65,5.66l-5.18,7.05c-2.81,3.82-6,9.06-11.34,9.11-2.07.02-4.2-2.02-6.8.01-.74.58-2.69.28-3.21-.43-.43-.59-.98-1.12-1.57-2.83-3.71,2.34-6.9.7-10.07-1.04-4.46-2.45-7.4,2.67-10.46,4.32-4.39,2.37-8.08,3.79-9.02,9.53-6.64-.79-11.59-3.19-16.68-6.85-4.31-3.1-7.05,4.56-8.71,3.29l-3.07-2.35c-11.81-1.94-7.26-11.06-11.37-12.29-1.73-.52-3.43-.2-5.18.07-.74-.98-1.71-2-2.11-3.21-1.63-4.82-8.18-7.3-4.46-8.01,5-.96,8.6,4.85,21.6.25,2.58-.91,5.38.08,8.33-1.96,2.45-1.7,9.14,6.02,13.45,3.36,1.03-.64,1.35-3.27,2.39-4.25,2.96-2.76,7.35-1.12,10.76-.44,3.75.74,6.98-2.56,9.42-4.47s4.85.04,6.76.93c4.67,2.18,2.42-8.06,6.42-9.56,3.75-1.41,3.83-3.96,5.38-6.9,1.71-3.26,3.99-5.78,2.94-10.12-.17-.69,2.3-1.24,2.98-1.13Z"/>
  <path class="st9" d="M873.68,603c.93,4.1.5,9.12-.12,13.59l-4.63,33.58-1.94-.17v-2.09s.07-2.73.07-2.73c1.88-7.29,3.48-15.63,1.02-23.26l-4.16-6.76c-1.31,3-3.92,3.14-5.5,4.61-1.35,1.25-1.07,6.01-4.41,5.81-2.46-.15-5.03-1.18-7.88.18l4.55,2.06c-1.98,1.84-3.66,1.68-5.5,2.34l-.61,6.36c-3.7,2.43-5.1,5.41-7.12,5.54-1.16.07-1.91-1.96-2.48-2.39-2.03,2.07.76,4.68,2.04,6.03l-.91,2.25c-1.96.24-3.55-.73-6.05-2.3-1.47,2.96-1.19,5.23-.93,8.24-6.3,4.2-13.86,5.61-20.16,2.17.14,2.7.56,4.01,1.22,5-1.98.47-4.09,1.94-5.31,3.24,1.36.66,2.23,1.1,2.51,1.49s-.11,1.36.16,2.03l1.55,3.9c-2.37.97-4.86,3.11-6.95,3.2-3.44.15-3.96,1.79-5.83,3.24-4.37,3.39-10.28.46-14.93.22-2.67-.14-5.3,1.53-7.4-1.66-1.4.36-2.1,1.83-.74,2.84.51.37,1.16,1.57.86,1.86s-1.27.19-2.75.84c-.68-2.94-3.39-5.71-6.86-4.71,1.49,1.38,2.75,1.65,2.7,3.63l-8.35-3.21c-1.2-.46-2.93.86-2.69,1.57l.87,2.5c.52,1.49-1.57,1.35-2.02.51l-.95-1.79c-.53-.99-.85-2.64-1.63-2.89-1.19-.37-2.38.4-3.62.96s-2.25-1.73-1.78-2.34l1.92-2.45c.64-2.53-2.46-2.14-3.48-2.46-8.74-2.67-10.85,2.66-12.52-.98,2.2-2.68,3.07-6.87,4.42-10.26l1.33-3.34c2.58-.28,5.76,1.6,8.82.35,2.06-.84,3.71-3.22,6.65-2.15-.85,1.74-1.12,3.36-.57,4.64s2.08,2.77,3.79,1.65c1.3-.85,2.55-1.65,3.87-1.28,2.51.71,2.31,4.35,5.06,6.07,1.27.79,2.97.6,4.45-.57,3.45-2.71,8.33-1.03,12.07-2.07.98-2.05,2.15-4.4,5.33-4.95,1.44-.28,1.18-4.69-.96-5.96,2.65-2,5.72-.22,8.71.02,1.26-.99,3.48-5.43,5.68-3.24.58.73-1.29,1.76-1.82,2.17s1.66,2.89,2.3,2.39c3.09-2.41,6.79-4.36,10.32-5.7.48-1.42.28-4.49,2.09-4.94l1.96-.48c.39-.1.47-1.11.36-1.49-.21-.73-1.67-1.05-2.99-.26-.35.04-.67-1.41-.39-1.52l2.14-.88c1.47-2.06,3.53-2.99,5.86-3.23.35-.42.82-1.46,1.21-1.59.53-.18,1.16.26,1.46.59.98,1.05-1.06,1.98-2.13,2.13-.7,2.06,3.18,4.02,5.52,2.44-1.21-4.77-.56-9.06,3.98-10.88-1.38-1.34-2.18-1.6-2.56-3.22l7.38,1.72c3.05.71,7.23.68,8.68-2.07-1.36-1.05-2.9-.4-3.55-.09-1.05.5-3.29-1.77-2.51-2.15l4.84-2.36,1.25-4.96c.64-2.54,1.97-3.78.77-6.53,1.69-1.12,2.49-3.54,3.87-5.04l10.04-10.91c1.19-1.29.91-4.92,2.51-6.2l1.34-3.33c.52-1.31,7.18-.86,8.12.32,1.38,1.74,1.89,6.01,1.14,8.17-1.64,4.72.04,7.54.91,11.39Z"/>
  <path class="st9" d="M813.93,663.51l-1.99.24-1.77-2.69c1.02-.08,2.57-1.04,3.62-1.54,4.68,1.1,8.62-1.63,8.28,1.12s-6.27-.68-8.14,2.87Z"/>
  <path class="st6" d="M686.94,249.72c-.67-.11-3.14.44-2.98,1.13,1.05,4.34-1.22,6.85-2.94,10.12-1.54,2.94-1.62,5.49-5.38,6.9-4,1.5-1.75,11.74-6.42,9.56-1.92-.9-4.36-2.82-6.76-.93s-5.68,5.22-9.42,4.47c-3.41-.67-7.8-2.32-10.76.44-1.04.98-1.36,3.61-2.39,4.25-4.3,2.66-10.99-5.05-13.45-3.36-2.95,2.04-5.76,1.05-8.33,1.96-13,4.6-16.6-1.21-21.6-.25-3.71.71,2.84,3.19,4.46,8.01-3.38-2.07-5.43-5.67-8.31-8.7l-11.7-12.26c.84.09,1.56-.19,2.05-.58.68-.53.84-2.71,1.06-3.57,2.08-2.13,5.46-.64,8.11-.07,4.57.97,8.03-3.99,12.03-4.2,2.8-.14,6.74-.02,9.4.12,2.16.15,5.33,5.49,8.31,2.27-1.22-1.28-2.75-.92-3.41-1-1.24-.15-1.34-3.53.57-3.05,2.32.58,6.11,2.49,7.71-.2l5.28-8.89,5.33,2.57c5.69,2.74,12.52-.96,16.93-5.37-4.04-13.03-9.45-12.22-13.92-15.41-2.38-1.7-4.05-3.31-6.85-4.34-2.6-.96-2.72-4.3-1.35-6.54,8.37,2.44,16.13,6.68,24.37,10.46,5.17,2.37,9.94,4.34,14.82,7.31,5.24,3.19,11.23,5.24,15.53,9.14ZM596.06,282.01c.54-2.05-.65-3.95-1.63-4.99-1.27-1.35-3.26-1.66-5.79-.49,1.37,2.56,3.51,5.28,7.42,5.48Z"/>
  <path class="st3" d="M807.03,361c-1.13,4.76,2.4,8.88,7.27,9.82,2.46,3.77,5.34,7.58,6.42,12.15-3.1.92-2.96,6.44-6.85,6.09l-7.3-7.55c-1.31,2.03-2.59,2.58-3.95,2.36-.77-.13-2.3-1.39-1.27-2.58.69-.79,2.7-3.05,1.67-3.82-2.73-.34-4.12-1.95-5.01-3.82-5.57,3.78-8.38-3.49-17.67,2.53-1.34-2.2.42-4.28.76-5.62-.99-1.17-2.54-.27-2.64.5s.27,1.82-1.17,3.4c-2.27-3.42-6.76-5.61-10.47-3.7-7.2,3.7-8.96-2.24-11.83-.21-2.06,1.46-.51,4.98-3.33,5.21-1.72.14.03-5.3-2.61-4.88-.31,2.03.09,4.23-1,5.6-.76.96-5.44,2.84-5.62,2.8-2.62-.64,2.39-2.03,3.39-3.83.5-.88-.49-2.24-1.19-1.65l-1.82,1.56c-2.74.17-6.25-.91-8.5,1.04-1.64,6.81-3.31.62-13.17,1.45-.07,3.37-.14,5.91-1.64,8.91-3.45-.59-7.2-.05-10.32-1.76-.66-.88-1.67-2.34-2.72-2.48-1.14-.15-1.78,2-2.25,2.88-3.15.2-5.62,1.93-7.23,4.73-1.78,3.1-8.43-2.13-15.86,5.93-1.5-1.02-2.4-1.94-4.09-2.5-2.53,2.48-4.15,4.98-5.46,8.15-1.93.53-5.45,1.17-7.21-.27-.66-.9-.29-4.25-2.49-4.38-4.01-.24-6.6,3.2-9.23,5.53-.69.61-3.31.2-3.32.95l-.2,2.66c-1.46-.91-2.3-2.51-2.57-4.89-1.31-11.3-3.27-21.97-5.66-32.59,4.08-.56,8.39.99,11.17,4.32,3.61-.33,5.71,1.64,8.06,4.49,6.79-2.94,9.49-7.87,11.38-7.98,4.91-.28,3.98,5.94,7.59,7.55,2.62-2.36,6.88-4.51,9.95-2.15l.75,3.01c.11.43,2.12.58,3.2.18l12.4-4.53c3.81-1.39,7.52-1.54,9.82-5.61,2.26,1.2,4.19.4,6.25-.16s4.29.14,6.56-1.9l3.17-1.34.93-4.13c.32-1.41,3.61.29,2.75,1.25-1.12,1.26-2.63,2.02-.74,4.4,4.1-6.05,10.13-.69,19.47-2.35.45-1.15.96-2.7,1.63-3.44l6.89-2.19c2.54-.08,4.79,2.83,6.88,3.93,4.44-1.85,8.04-1.27,11.41,2.14,1.65,1.67,6.82-.58,9.35-.06,4.94,1.02,9.58,2.83,13.87-.63.89-.72-.33-3.36-.14-4.18,1.08-1.26,3.15.41,3.51,1.68ZM732.17,373.13c-.2-1.58-2.14-1.58-2.34,0-.32,2.54,2.66,2.54,2.34,0ZM717.73,377.68c-1.65-1.16-2.96,0-3.46,1.16-.45,1.04-.92,2.85.69,2.94s3.8-3.31,2.77-4.09Z"/>
  <path class="st9" d="M794.02,342.1l13.16,17.78c-.15.42-.08.83-.15,1.12-.36-1.28-2.43-2.94-3.51-1.68-.19.83,1.03,3.46.14,4.18-4.29,3.46-8.93,1.65-13.87.63-2.54-.52-7.7,1.73-9.35.06-3.37-3.41-6.97-4-11.41-2.14-2.08-1.09-4.34-4.01-6.88-3.93l-6.89,2.19c-.67.74-1.18,2.29-1.63,3.44-9.34,1.66-15.37-3.7-19.47,2.35-1.88-2.38-.37-3.14.74-4.4.86-.96-2.43-2.67-2.75-1.25l-.93,4.13-3.17,1.34c-2.27,2.04-4.41,1.31-6.56,1.9s-3.99,1.36-6.25.16c-2.3,4.07-6.01,4.22-9.82,5.61l-12.4,4.53c-1.08.4-3.1.24-3.2-.18l-.75-3.01c-3.07-2.36-7.33-.21-9.95,2.15-3.61-1.61-2.69-7.83-7.59-7.55-1.89.11-4.59,5.04-11.38,7.98-2.35-2.85-4.45-4.82-8.06-4.49-2.77-3.33-7.08-4.88-11.17-4.32l-1.61-7.15-3.58-8.54c1.51-1.47,3.44-1.26,5.24.11l7.96,6.06c6.95,5.29,10.12.67,19.1,2.14.84-1.6,1.17-2.79,2.79-3.85,5.5,4.46,4.98-3.77,14.84-2.18l6.43,1.04c4.19.68,11.24-4.2,17.54-.54.61.36,2,.64,2.89.47,2.31-.42.69-4.04,3.01-5.11,1.35-.62,2.14.98,2.96,1.41,3.69,1.95,6.87-1.15,9.16-3.77l2.25-2.57c1.11-1.27,3.35.42,4.4.34,4.84-.38,8.98.63,13.25,2.86l5.38,2.8c.78-4.08,4.77-8.32,6.68-8.99,1.66-.58,2.92,1.46,4.1,1.84,3.18,1.02,6.32-.01,9.22.24.13,2.47,1.2,3.52,2.31,4.05,1.24.6,2.64-.02,4.35.06l6.26.3c2.91.14,3.67-4.82,4.57-7.45.64-.88,2.92-.42,3.57-.16Z"/>
  <path class="st0" d="M602.09,212.15c8.1,1.02,15.6,5.2,23.81,7.83l6.33,2.83c-1.37,2.24-1.24,5.58,1.35,6.54,2.79,1.03,4.46,2.64,6.85,4.34,4.47,3.2,9.88,2.38,13.92,15.41-4.41,4.41-11.24,8.11-16.93,5.37l-5.33-2.57-5.28,8.89c-1.6,2.69-5.39.78-7.71.2-1.91-.48-1.81,2.9-.57,3.05.66.08,2.18-.28,3.41,1-2.98,3.21-6.15-2.12-8.31-2.27-2.66-.13-6.61-.26-9.4-.12-3.99.21-7.46,5.17-12.03,4.2-2.65-.56-6.03-2.05-8.11.07-.22.86-.38,3.04-1.06,3.57-.49.38-1.22.67-2.05.58l-1.1-1.12c1.75-.81.5-2.56.4-4.04-.11-1.7.99-3.35-.14-4.5-3.37-3.42-8.08-4.71-10.25-1.57-1.53-.47-3.07-1.72-4.67-3.05l-16.39-13.56c-2.01-1.66-4.12-3.15-5.88-4.24-.08-1.13-.07-1.9.28-2.29s2.56-1.42,3.03-1.15l16.85,9.48c2.3,1.3,4.82,4.84,7.85,4.5,7.24-.8,13.63-5.18,20.67-7,4.24-1.1,7.15-2.06,7.51-7.81l9.42-1c1.14-2.25-.77-4.01-1.16-5.86-2.65-12.53-12.52-8.33-10.37-15.33,1.33-.36,3.48-.56,5.08-.36Z"/>
  <path class="st8" d="M676.01,938.14c-2.6,1.75-5.16,3.95-8.36,3.94-.99-.82-2.29-1.59-3.38-1.82-1.7-.36-2.24,2.14-3.67,2.5l-10.93,2.75c-.66.74-1.09,3.05-2.68,3.57l-7.72,2.49c-3.37,1.09-3.77-4.29-3.05-6.49,1.06-3.26,3.12-3.71,6.3-4.55,3.51-.92,3.17-6.07,4.71-8,2.59-3.24,5.77-5.47,6.67-9.44,1.4.15,3.47.32,4.32-.19.71-.43.76-2.11,1.68-3.24,1.13-1.38,5.7-1.51,6.27-3.24,1.23-3.78,1.94-6.71,4.8-9.55,2.35-2.33,3.75-5.4,2.78-8.51,1.77-1.47,3.07,1.21,3.84,1.35,4.14.42,10.11-2.91,10.97-7.71,2.62.35,4.57-.13,5.99-.78l2.56-4.91c2.5-1.88,3.72-3.5,5.73-5.57,2.96-3.05,11.07-5.19,15.02-9.87,1.57-1.86,3.39-1.8,5.11-1.4,2.73.64,2.97,2.6,3.49,5.38,2.2,1.11,6.39-1.4,7.4-3.75,1.2-2.8,3.16-3.01,5.63-3.14,1.55-.08,4.27,2.91,2.95,4.72l-4.29,5.89c-2.68,3.68-10.62,4.87-12.39,9.88-2.04,5.76-3.65,11.53-9.18,15.3-4.58,2.33-8.93,5.49-11.62,10.24-6.56,2.37-11.97,6.28-16.74,11.18-6.05,4.37-11.11,2.56-12.2,12.97ZM729.77,880.46c.68-1.92-3.39-4.13-4.51-2.68-.45,1.52.68,2.79,1.39,3.29.55.38,2.8.31,3.12-.6Z"/>
  <path class="st13" d="M523.17,880.9l10.33-15.01c.74,1.01,3.1,2.4,3.62,1.64,2.23-3.25,3.98-2.38,7.19-2.09,2.47.22,4.77-4.13,5.81-6.73-1.22-.92-3.48.47-4.49-3.26,7.15,2.13,11.71-2.36,12.85,3.26,4.28-.12,8.1-3.72,7.34-8.82-.14-.91,2.6-.99,2.52-.38l-.31,2.32c-1.41,10.59-7.78,6.38-10.08,11.93,1.57.63,2.7-1.3,3.45-1.61,5.12-.11,7.98-4.82,9.92-8.65,2.66-.44,4.59-2.42,6.39-4.57,2.17-2.59,5.36-3.69,3.44-8.25,2.36.7,2.37,2.03,2.95,3.01,2.34.15,3.26-1.04,4.12-2.05,1-1.18,1.02-3.37-.29-4.17l-3.17,1.35c-.46.19-1.46-1.38-2.43-2.53-.69-.82,1.09-2.1,2.26-2,.82.07,1.81,1.41,3.44,2.02-.1-2.81,3.13-3.96,3.84-5.23,1.6-2.89,1.52-5.9,6.11-6.75-1.97-2.69-3.83-2.08-5.61-1.13.07-2.47,1.97-2.45,4.05-3.1-3.23-3.7-3.49-7.35-.77-10.51-.1-1.15-.2-2.2-.69-3.44,3.42-2.22,2.64-5,2.75-8.2.08-2.36.42-4.37-2.18-6.02,3.41-2.25,3.43-5.39,4.76-8.54.85-2.02,3.07-3.37,1.69-6.53-1.15-2.62,1.06-5.92,2.02-8-6.26-3.48-7.95-10.16-4.74-14.71,1.02-1.45.22-2.88-.04-3.94-.44-1.76-6.61-.82-12.87-6.22-.22,1.9-1.15,2.86-2.21,2.91.31-6.11,3.82-11.86,6.71-17,.28,1.28.97.84,1.21.51l1.51-2.06,4.49,5.76,6.52,4.4c1.01.68,4.43-.52,5.07,1.75.95,3.42,3.23,4.49,6.01,6.27,1.83,1.17-.39,5.23-3.03,5.26l1.51,11.17c.2,1.47,1.58,3.86.98,5.38-.4,1.02-1.53,1.9-3.74,2.8,2.4,6.01,1.63,11.67-1.15,17.31l4.09,8.22c-2.98.88-3.75,2.58-5.62,4.11-.63.51-2.27.32-2.61.84-.43.65-.12,2.37.52,2.4.41.02,1.85-.39,2.45-.08,2.67,1.37,1,4.2.04,5.98l-3.6,6.66c-.8,1.47,1.81,5.36-1.06,6.8-1.69.85-3.07,1.45-3.51,3.29s1.17,2.8,1.94,4.43c1.6,3.42-6.7,3.36-6.71,6.34,0,.77,1.19,1.87,1.61,2.65-1.98,7.12-7.71,6.76-8.47,12.72-5.65-1.51-8.87,6.73-10.31,8-1.79,1.59-3.35,4.99-4.98,6.07-2.75,1.83-5.47,1.65-7.59,4.79-.51.76-7.65,5.42-11.46,4.02-.95-.35-1.67-1.74-2.13-3.85-1.96,2.22-3.56,2.14-6.27,1.48-2.26-.55-5.73,1.73-4.56,4.89,1.13.86,3.67.27,4.24,2.81-3.95-.55-7.14-.09-9.27,3.38-2.63-1.71-4.53-2.1-6.38-.33-1.75,1.68-3.03,2.48-2.16,6.59-3.28-2.4-4.7-2.06-8.55-2.1,1.79-3.03,4.16-5.02,3.33-7.65Z"/>
  <path class="st10" d="M476.26,189.48c-.61.51-.28,1.54.65,1.54l9.02.03c-.05,6.95,4.56,10.62,10.88,11.26,4.2.42,7.03,4.79,10.63,6.13l9.47,3.54c1.93,6.58,11.88,8.65,16.17,7.11,6.89-2.48,6.3,6.34,10.7,7.88,1.98.7,4.03-1.05,5.95-1.27l9.68-1.09c2.58-4.6,6.24-5.55,10.99-6.31,4.46-5.5-2.77-11.35,3.42-14.58l24.83,6.81c1.41.39,2.83.38,3.44,1.62-1.6-.2-3.75,0-5.08.36-2.15,7,7.72,2.8,10.37,15.33.39,1.85,2.31,3.62,1.16,5.86l-9.42,1c-.35,5.75-3.27,6.71-7.51,7.81-7.04,1.82-13.42,6.2-20.67,7-3.03.34-5.55-3.21-7.85-4.5l-16.85-9.48c-.47-.27-2.68.75-3.03,1.15s-.36,1.17-.28,2.29c-18-11.19-36.36-21.62-55.98-29.8,4.7-3.56.5-3.42-7.4-9.78-2.75-2.21-6.56-3.31-9.44-4.4-.42-.16-1.12.03-1.47.01-.03-1.26-.24-2.7-.58-3.64-.62-1.7-2.16-1.56-3.54-1.37-1.9.26-4.77.62-5.56-1.28l17.28.76Z"/>
  <path class="st14" d="M820.72,382.96l1.38,1c-3.09,3.49,4.67,7.19-.2,12.22,2.7,1.71,4.04,3.69,5.54,6.7,1.04,2.1,5.47,2.72,5.59,6.86-6.23-2.25-11.78-1.23-16.51-5.6.65-1.11,1.28-1.46,2.15-2.28-1.97-5.38-7.46-8.34-13.42-7.86l-2.23-4.12c-1.65.38-4.74.78-5.14.06l-2.04-3.64-7.26-3.36c-2.18-1.01-6.85-1.09-9.05-.64-3.02,1.69-4.89,2.61-8.35.55-1.04,1.98-2,3.25-4.51,3.31l2.5-5.23-7.22,2.99,2.55-4.16c-2.16-1.25-5.89-1.43-7.25.48-.68.96.36,2.51.43,3.21s-.9,1.88-2.09,2.25l-6.57,2.01-2.65-1.65-2.64,1.87c-3.29.5-7.49.32-9.63,3.14-1.2,1.58-2.01,2.41-3.91,2.74-1.62.28-2.49-1.33-2.68-3.03-2.6,1.18-2.58,3.87-3.81,4.86-4.86,2.25-9.81-1.28-11.68-.09-2.02,1.29-1.13,4.51-2.09,5.87-.72,1.01-2.76.31-3.68,1.09l-3.08,2.6c-1.53,1.29-6.03-3.41-10.45-2.1-3.83,1.14-7.22,16-13.76,18.05,2.59-5.02,6.92-8.54,7.86-14.71-8.28,6.41-18.32,10.84-28.17,10.27-6.09-.35-10.36-5.96-9.52-10.43l.2-2.66c0-.75,2.63-.34,3.32-.95,2.63-2.33,5.21-5.77,9.23-5.53,2.2.13,1.83,3.48,2.49,4.38,1.76,1.44,5.27.8,7.21.27,1.31-3.17,2.93-5.67,5.46-8.15,1.69.56,2.59,1.48,4.09,2.5,7.43-8.07,14.08-2.83,15.86-5.93,1.6-2.8,4.08-4.53,7.23-4.73.46-.88,1.11-3.03,2.25-2.88,1.04.13,2.05,1.6,2.72,2.48,3.12,1.7,6.87,1.16,10.32,1.76,1.5-2.99,1.57-5.54,1.64-8.91,9.87-.82,11.54,5.37,13.17-1.45,2.25-1.95,5.76-.87,8.5-1.04l1.82-1.56c.69-.6,1.68.76,1.19,1.65-1.01,1.79-6.01,3.19-3.39,3.83.18.04,4.86-1.84,5.62-2.8,1.09-1.37.68-3.57,1-5.6,2.63-.42.88,5.01,2.61,4.88,2.83-.23,1.27-3.75,3.33-5.21,2.87-2.03,4.63,3.91,11.83.21,3.71-1.9,8.2.28,10.47,3.7,1.44-1.58,1.08-2.67,1.17-3.4.1-.76,1.65-1.66,2.64-.5-.34,1.34-2.1,3.42-.76,5.62,9.29-6.02,12.09,1.26,17.67-2.53.89,1.87,2.28,3.48,5.01,3.82,1.03.77-.98,3.03-1.67,3.82-1.04,1.18.49,2.45,1.27,2.58,1.36.22,2.64-.32,3.95-2.36l7.3,7.55c3.89.35,3.75-5.17,6.85-6.09Z"/>
  <path class="st1" d="M533.5,865.89l10.57-15.56c2.93.49,4.1-1.49,5.96-3.32,1.44-1.42,2.59-1.5,2.69-3.86.05-1.24,2.48-2.93,3.44-3.89,4.74.82,7.85-1.02,11.31-4.14,1.34-1.21,5.39-.24,6.73-3.65-1.16-.66-3.01-2.06-3.25-4.81,2.39.07,3.83,1.28,6.06,2.34,1.35-1.77,4.54-3.68,5.19-5.56.5-3.35,2.01-5.17,3.27-7.8s1.25-4.16,5.55-5.39c-5.29-3.41-9.8-10.36-9.74-10.58.32-1.15,1.46-1.38,2.31-1.92,3.51-2.22.8-5.51,0-8.17-1.08-3.59-1.05-7.55-4.89-8.43-.35,2.18-2.46,1.94-1.84-.26l1-5.89,4.72-21.55,1.54-6.52c1.06-.05,1.99-1.01,2.21-2.91,6.26,5.4,12.43,4.47,12.87,6.22.27,1.06,1.06,2.5.04,3.94-3.21,4.54-1.53,11.23,4.74,14.71-.96,2.09-3.16,5.38-2.02,8,1.39,3.16-.83,4.51-1.69,6.53-1.33,3.15-1.35,6.29-4.76,8.54,2.59,1.65,2.26,3.66,2.18,6.02-.11,3.19.66,5.98-2.75,8.2.5,1.23.59,2.29.69,3.44-2.72,3.16-2.46,6.81.77,10.51-2.08.66-3.98.63-4.05,3.1,1.78-.95,3.64-1.56,5.61,1.13-4.58.85-4.51,3.85-6.11,6.75-.7,1.28-3.94,2.42-3.84,5.23-1.63-.61-2.62-1.95-3.44-2.02-1.16-.1-2.95,1.18-2.26,2,.98,1.15,1.98,2.72,2.43,2.53l3.17-1.35c1.31.8,1.29,2.99.29,4.17-.86,1.01-1.78,2.2-4.12,2.05-.58-.98-.59-2.31-2.95-3.01,1.92,4.56-1.27,5.66-3.44,8.25-1.8,2.15-3.73,4.13-6.39,4.57-1.94,3.83-4.8,8.54-9.92,8.65-.75.32-1.87,2.25-3.45,1.61,2.3-5.55,8.66-1.34,10.08-11.93l.31-2.32c.08-.6-2.66-.53-2.52.38.76,5.1-3.05,8.7-7.34,8.82-1.13-5.61-5.69-1.13-12.85-3.26,1.01,3.73,3.27,2.34,4.49,3.26-1.04,2.6-3.34,6.95-5.81,6.73-3.21-.29-4.96-1.16-7.19,2.09-.52.76-2.88-.63-3.62-1.64ZM593.04,816.05c0-.5-.4-.9-.9-.9s-.9.4-.9.9.4.9.9.9.9-.4.9-.9ZM585.94,829.95c1.39.58,2.74-.95,3.52-1.42.57-.35.87-2.47-1.26-2.23-1.06.12-2.19,2.48-2.26,3.65ZM573.24,849.14c1.92-.88.22-3.31-1.23-1.65-.87.55-1.72.67-2.02.99-.38.42.05,1.44.51,1.51.43.06,1.22-.15,2.73-.85Z"/>
  <path class="st0" d="M495,1006.16l-27.03,3.63-10.95,1.01-10.14.95-12.88.2-26.04.07c-.97-6.88-10.02-3.98-10.3-6.47-.24-2.07,5.99-1.72,9.26-8.55,1.59-3.32,4.81-4.19,8.11-2.74,1.13-.18,2.19-2.72,2.27-4.14l12.55,1.72,5.02-3.44c1.94,1.46,3.69,1.58,4.89.93,1.67-.9,2.28-2.36.83-4-.43-.48-1.52-.61-1.57-.96-.45-2.87,4.01,1.21,9.13-2.23,2.25,1.4,4.2,2.83,7.29.59,1.7.37,2.1,2.1-.62,3.22,4.49,2.02,9.35,2.84,15.21,2.09,1.01,1.36.71,3.28,3.41,3.94-.05-1.07.83-3.08,1.99-3.02.77.04,2.07.88,2.9,1.59,2.55,2.18.51-2.1,1.11-3.79,1.5-4.25,4.12,8.15,12.26,7.26.47,2.08.27,3.6-1.14,4.04l-3.75,1.18c2.44,6.95,5.18,4.86,8.2,6.9Z"/>
  <path class="st8" d="M573.82,203.73c-6.19,3.23,1.04,9.08-3.42,14.58-4.75.76-8.41,1.71-10.99,6.31l-9.68,1.09c-1.92.22-3.97,1.96-5.95,1.27-4.39-1.54-3.81-10.36-10.7-7.88-4.29,1.54-14.25-.53-16.17-7.11l-9.47-3.54c-3.61-1.35-6.43-5.71-10.63-6.13-6.32-.64-10.93-4.31-10.88-11.26l-9.02-.03c-.92,0-1.26-1.04-.65-1.54l14.17,1.04,15.17.85c15.53.87,52.48,8.04,68.22,12.36Z"/>
  <path class="st12" d="M544.07,850.33c10.82-17.75,21.2-35.91,28.14-56l4.65-13.45c-.62,2.2,1.49,2.45,1.84.26,3.84.88,3.81,4.84,4.89,8.43.8,2.66,3.51,5.95,0,8.17-.84.53-1.99.77-2.31,1.92-.06.22,4.45,7.17,9.74,10.58-4.3,1.23-4.3,2.79-5.55,5.39s-2.77,4.45-3.27,7.8c-.65,1.89-3.83,3.8-5.19,5.56-2.24-1.06-3.67-2.26-6.06-2.34.24,2.75,2.09,4.15,3.25,4.81-1.34,3.41-5.39,2.45-6.73,3.65-3.46,3.12-6.57,4.97-11.31,4.14-.96.96-3.39,2.65-3.44,3.89-.1,2.35-1.25,2.44-2.69,3.86-1.86,1.83-3.03,3.81-5.96,3.32Z"/>
  <path class="st6" d="M458.98,188.73c.79,1.89,3.65,1.54,5.56,1.28.08,2.43,1.74,4.93,4.12,5.01.34.01,1.04-.17,1.47-.01.44,3.15,3.03,5.26,6.58,6.94-1.28,1.55-2.6,1.07-3.95,1.32-5.84-2.44-12.47-3.98-19.18-5.66l-36.83-9.22,36.21-.24,6.03.6Z"/>
  <path class="st5" d="M830.83,763.94l.14,2.05-.95,1.02-1.57.97c-2.53,1.56-3.32,4.85-3.43,7.71-.18,4.91-3.27,9-5.94,13.32-1.79,2.9-2.75,6.01-5.17,7.99-1.33-3.86-1.25-8.72,2.33-11.78l4.28-1.69c2.15-4.96,1.75-10.86,1.36-15.65,2.73-1.86,5.82-4.06,8.96-3.93Z"/>
  <path class="st4" d="M486.97,209.19l-14.22-5.93c1.35-.25,2.67.24,3.95-1.32-3.55-1.68-6.14-3.79-6.58-6.94,2.89,1.09,6.69,2.19,9.44,4.4,7.9,6.36,12.1,6.21,7.4,9.78Z"/>
  <path class="st14" d="M676.99,422.9c-.54,1.47.88,3.13,1.87,4.24-1.34,1.81-2.74,4.01-3.46,6.27l-2.37,1.22c-1.5.77,5.42,3.91,2.81,4.5l-12.92-8.63c1.28-.89,2.29-.78,3.07-.85-.11,1.22.43,1.8,1.56,2.37.9.46,1.76,1.35,2.66.44-.31-2.3-.42-3.4-1.18-4.55l7.97-5.01Z"/>
  <path class="st6" d="M579.87,269.94c-3.15-3.2-7.33-6.68-9.99-10.11,2.17-3.14,6.88-1.84,10.25,1.57,1.13,1.15.03,2.8.14,4.5.09,1.48,1.34,3.23-.4,4.04Z"/>
  <path class="st6" d="M431.94,971.35l2.97,6.84,1.08,1.41c.37.48-.19,1.52-.58,1.4l-2.5-.76c-2.35-.72-4.07-.09-5.54-2.01-1.1-1.44-1.82-3.24-.43-5.29,1.35-.97,3.65-1.36,5-1.58Z"/>
  <path class="st6" d="M618.77,967.79c-.27,1.44-1.48,2.22-3.12,2.86l-18.76,7.33c.3-3.19,1.64-6.51,4.57-7.93.33,1.75,1.22,2.85,2.02,2.99,3.78.68,1.74-7.83,6.33-3.11-.58,1.75,2.13,2.6.92-.08,1.05-3.08,5.43-2.49,8.04-2.06Z"/>
  <path class="st0" d="M363.79,1008.7c3.15,1.86,6.64,1.04,10.23,1.35s6.43,1.5,10.06.87c.98-.17,1.91.5,1.91,1.08l-11-.03-14.88-.37c.16-2.16,2.4-2.34,3.66-2.9Z"/>
  <path class="st12" d="M407.97,1012.01l26.04-.07c.05.46-.36,1.05-1.06,1.05h-30.95c1.51-1.61,3.98-.97,5.97-.98Z"/>
  <path class="st2" d="M875.01,571v21s-.02,5.04-.02,5.04c-.67-.16-1.04-.9-1.04-1.98v-27.11c0-1.09.37-1.83,1.08-1.94l-.02,4.99Z"/>
  <path class="st11" d="M814.29,370.82c-4.86-.93-8.4-5.05-7.27-9.82.07-.29,0-.7.15-1.12l7.12,10.94Z"/>
  <path class="st12" d="M386,1011.99l13.07-.05c1.07,0,1.82.39,1.93,1.06l-24.95-.02c-.69,0-1.11-.59-1.04-1.02l11,.03Z"/>
  <path class="st3" d="M680.82,699.74c.1,3.77-5.85,5.63-7.26,5.16-.72-.24-.78-1.69-.47-3.05l7.73-2.11ZM675.5,701.96l-.5.54.5.5.5-.5-.5-.54Z"/>
  <path class="st15" d="M838.75,748.87c.28,3.12-2.73,5.41-3.54,8.09-.6-.71-1.39-1-2.11-.95l1.01-4.83c1.51-.89,2.84-2.26,4.63-2.31Z"/>
  <path class="st12" d="M875,592v-21c.66.11,1.05.86,1.05,1.93v17.14c0,1.07-.38,1.82-1.05,1.93Z"/>
  <path class="st3" d="M828.44,767.99c1.07,2.75-.22,7.3-3.43,7.71.1-2.86.9-6.14,3.43-7.71Z"/>
  <path class="st5" d="M842.02,742.03c-.82,1.87-1.41,4.08-3.43,5.02-.14-1.57,1.03-2.77,1.01-4.49l-.07-4.59c2.17,1.34,2.06,2.81,2.5,4.07Z"/>
  <path class="st11" d="M665.98,429.65c.62-1.28,2.05-1.12,3.03-1.74.76,1.15.87,2.25,1.18,4.55-.9.91-1.76.02-2.66-.44-1.13-.58-1.67-1.16-1.56-2.37Z"/>
  <path class="st4" d="M835.21,756.96c-.52,1.73-.66,3.92-2.28,5.01l.18-5.97c.72-.05,1.5.24,2.11.95Z"/>
  <path class="st5" d="M832.01,763.99c0-.71.67-1.49.92-2.02.08.69-.18,2.05-.92,2.02Z"/>
  <path class="st6" d="M622.02,967.07c-.55.18-1.11,1.06-2.04.91,0-.22-.15-.76-.03-1.04l2.07.14Z"/>
  <path class="st3" d="M830.01,767.01l.95-1.02c.03.45-.6.8-.95,1.02Z"/>
  <path class="st13" d="M723.96,502.02c.34-1.12,1.23-1.45,2.06-2.05-.38.94-1.06,1.69-2.06,2.05Z"/>
  <circle class="st13" cx="715" cy="433" r="1.11"/>
  <circle class="st13" cx="844" cy="465" r="1.11"/>
  <circle class="st13" cx="822" cy="566" r="1.11"/>
  <circle class="st13" cx="786" cy="576" r="1.11"/>
  <rect class="st13" x="747.15" y="535.15" width=".71" height=".71" transform="translate(-159.72 685.41) rotate(-45)"/>
  <path class="st5" d="M840.08,726.07c-1.05.07-2.33-.2-2.65-1.06l-1.14-3.06c-.41-1.1-3.01-.78-3.87-.69-1.36.14-1.26,2.7-.57,3.54-3.24-.14-3.42-1.19-5.08-2.19-17.41,3.44-13.2,13.52-15.65,16.41-.85,1-.67,4.63-2.02,5.22-3.65-.98-6.4,2.57-8.86,3.66-4.81,2.13-9.02,3.44-8.29,10.89-4.39-3.99-5.55,1.63-10.01-.81-.16,1.78-.56,3.4-1.41,4.04-1.21.92-2.47,1.07-4.94,1.51.53,1.39,2.45,2.12,2.17,4.72-3.21-2.1-7.22-3.54-11.12-2.51l-2.71,2.79-3.84-.36c-1.2-.11-1.25,1.58-1.51,2.11-.4.84-2.62.93-4.18.27-2.24,3.62-2.96,8.64-2.23,13.45-3.96-.24-6.45.69-9.47,2.82-1.38-.53-3.02-1.96-4.87-1.73-.97.12-1.28,2.7.46,4.64-5.03-.3-7.17,4.8-10.57,6.65-6.45.33-7.8,5.35-17.18,3.77l-.89,7.73c-1.94.05-4.93-.07-6.23,1.47l-4.89,5.76c1.77.29,3.41,1.08,3.44,2.34.02,1.06-1.19,2.44-2.71,3.55-1.11-.49-1.46-2.09-1.44-4.34-4.96,1.51-5.69,8.39-9.27,7.45-.83-.22-1.34-1.9-1.74-2.79-.51-1.14-1.88-.56-1.82.24.04.52.2,1.16.58,2.06l.77,1.85c.36.87-.72,1.61-1.7,1.36-1.24-.32-.58-4.89-2.97-4.7-4.05.32-1.56,8.71-4.29,12.39-.47.63-2.93.58-3.58,1.05-.79.58-.64,2.73-1.23,3.86l-3.12,5.96c-1.34,2.57-2.25,3.78-3.43,7.37-1.39-3.83-4.91-5.64-7.73-4.81l-1.93,2.86c-.4.6-2.45-.61-3.35-1.16.48-1.17.02-3.96,2.22-4.4,1.5-.3,3.44-.23,4.13-1.46.55-.98.6-2.34.71-3.85.09-1.35,1.83-.79,1.7-.21-.07.34.87,1.55,1.22,1.36,2-1.1,4.93-3.62,5.23-6.13.19-1.56-2.97-1.39-3.69-1.42-1.33-1.47-1.22-5.47.42-6.03l4.93-1.69c2.16-.74,1.34-5.35.93-7.86,2.44-.06,3.52.92,5.13,1.54-1.18-2.75-1.88-3.59-1.78-4.97s1.83-2.78,2.47-3.85c-.43-2.84.27-5.53,1.98-8.76,1.4,1.35,2.52,1.68,4.1,1.2,1.01-.31,3.63-1.54,3.02-2.57-2.23-3.78-1.27-5.57-.39-8.87,1.17-4.4,4.43-7.86,8.88-7.47,2.42-4.88,6.65-2.56,8.58-7,.34-.79-.74-2.41-1.41-2.21l-4.15,1.23,2.24-8.04c1.87.05,3.01,1.29,3.35,4.06l2.92-1.86c.41-.26,1.43.63,1.91,1.13,6.97-.29,6.56-7.07,11.7-10.74-1.68-.87-2.77-4.9-1.07-5.35,2.77-.74,4.95-.22,5.72-4.23l3.95,5.19c1.73-.94,1.23-3.47,1.89-4.15,1.52-.79,2.77-1.29,3.04-2.08.42-1.21.37-2.48.31-4.38,5.61.6,9.5,4.19,12.62,9.52-2.69.13-5.18.25-5.94,1.63,1.21,2.59,4.9,1.81,6.01-.13l5.56-9.67c1.12-1.95,6.32-1.72,5.84-5.82-.08-.67,1.69-1.88,2.19-1.57,1.84,1.16,1.83,4.95,3.15,5.02.52.03,1.51-.66,1.78-1.11,1.56-2.6-2.6-6.91.68-9.14,6.05,4.5,9.03,1.4,15.83,1.14-.39-2.67,3.11-6.24,5.01-4.94,2.04,1.41,3.15,2.6,5.67,2.37,1.42-.13,1.61-2.62,2.29-4,3.35.6,6.2-.89,7.4-3.67,1.34-.03,4.36-.69,4.09-2.27-1.3-.83-3.2-3.87-2.12-4.73,3.11-1.42,4.23-2.97,5.29-6.08.32-.95,2.68-1.99,2.48-2.85l-.81-3.42c6.5.43,9.18-5.47,14.9-3.4,3.22-2.76-2.81-8.58,1.14-9.35,3.01-.59,4.05-2.19,4.44-5.71,3.67,2.29,6.89,3.19,10.82,1.54-2.2-1.33-3.41-2.64-2.68-4.56.57-1.49,2.56-1.65,4.24-2.6l7.08-4c-1.05,3.64,1.36,5.63,2.83,8.03,1.06,2.03-2.68,3.37-3.57,4.46-4.05,4.96,2.87,13.72-1.53,20.14-1.37-3.11-3.11-4.3-5.1-6.5l-1.89-6.13c-1.72-1.81-6.39-3.72-8.31-2.69-2.62,1.4-.06,5.18-.66,6.57l-3.27,7.66-13.06,4.41c4.4,3.63,5.37,8.53,7.8,7.07,1.11-.66-1.66-4.47,4.68-6.96,2.48-.98,4.13-3.5,7.57-3.52-1.48-2.15-2.64-1.64-3.93-2.24.93-2.06,3.64-2.68,5.14-1.91-.81,2.97,2.81,5.26,3.63,7.04l-.4,12.65ZM789.94,735.64c-.18,1.53,1.16,1.6,1.55,1.37.54-.32.75-.92.51-1.51-.19-.47-1.32-1.18-2.07.14Z"/>
  <path class="st5" d="M494.96,961.01l.05,1.47c.02.48.91.73,1.34.47.29-.18.55-.77.71-1.04,1.23.07,2.81-.08,3.71-.72,1.25-.88,1.63-2.32,1.57-3.68l2.74,2.64c1.86-.96,3.68-1.12,5.32-1.63.52.32,1.58.24,1.6-.49l3.93-.03c.6,3.68,5.59,2.28,4.1,6.26-2.14-.6-3.69,1.37-4.55,3.37-.67,1.57-5.36,2.67-6.56,1.46s-2.34-3.62-4.08-2.5l1.22,3.1c.39.98-.1,2.93-2.07,2.4-.67-.18-1.68-2-2.19-1.75s-1.92,2.24-2.5,1.22l-2.08-3.61c-.53-.92-3.17-.55-4.51-.17-2.12.6-2.77-2.38-3.71-2.82-2.18-1.01-4.01,2.69-4.76,4.74-2.91-2.87-3.61-5.07-7.11-6.64l5.35-3.04c.13-.1.26-.35.31-.62l.12-.37c.44-1.39-.14-2.5-1.07-4.42-.43-.89,1.79-1.95,2.63-2.05.99-.12,3.04,1.45,2.19,2.01l-1.61,1.05c-.28.18-.11,1.58,1.27,1.2,1.45-.4,4.95.91,6.16-1.32.79-1.46,1.68-2.21,2.95-1.37,2.36,1.55-.57,4.61-.49,6.86ZM484.62,960.72l-1.63.08,1.63-.08ZM511.11,966c0-.61-.5-1.11-1.11-1.11s-1.11.5-1.11,1.11.5,1.11,1.11,1.11,1.11-.5,1.11-1.11Z"/>
  <path class="st5" d="M538.93,958.12c-1.61,1.85-3.19,4.45-6.08,5.91-.96.48-2.54-1.57-2.32-3.07-2.42-.12-4.79.98-6.5,1.84.22-.77.16-2.54-1-2.85l-7.09-1.94c-.17-1.05.55-2.57,1.65-2.93.8-.26,2.45,2.04,3.31,1.65l3.35-1.51c.66-.3,1.8,2.08,2.58,2.9,4.08-2.82,8.4-2.66,12.11-.01Z"/>
  <path class="st5" d="M636.06,881.77c-.71-4.16.18-9.68,4.1-12.48,2.32-1.66,4.67-2.39,3.42-6.99,2.13.73,2.16,1.61,2.99,2.45,2.16-1.5,3.6-3.26,3.72-5.27.13-2.31-1.3-4.04-2.88-6.3l4.64-1.14c4.61-.55-.87,4.07,4.33,9.82-1.93,1.47-1.48,4.97-2.22,6.29-3.58,6.47-9.29,9.81-11.41,15.46-.15.4-1.81.69-2.15.6-.39-.1-1.01.74-.71,1.23s2.1,1.1,2.03,1.61c-.17,1.28-4.04.57-3.6-.57.6-1.57,1.17-2.68.67-3.91-.39-.96-1.94-1.1-2.92-.79ZM645.06,870.59c-.49-.72-2.01-.26-2.61-.2-1.9.2-1.9,1-1.85,1.84.04.64.36,2.41,1.02,2.52,1.84.31,3.72-3.76,3.45-4.16Z"/>
  <path class="st5" d="M690.78,774.81l-2.77,7.7c-2.55-2.58-2.85-6.06-1.25-8.84.9-1.56,4.42,0,4.02,1.14Z"/>
  <path class="st5" d="M545.02,953.89l.08,1.28c-.3-.08-.97.32-.98.65-1.42.14-2.85.9-3.73,2.15-1.88-1.49-1.33-3.04-.29-4.28.7-.84,1.77-1.15,2.88-1.65-.06.67.24,1.35.75,1.61.42.21.9.26,1.28.25Z"/>
  <path class="st6" d="M631.9,886.09c-.31,1.33-.51,2.16-1.02,2.42-.76.4-1.79.37-3.65.5-.03-2.16,2.32-2.99,3.02-5.64l1.65,2.72Z"/>
  <path class="st6" d="M545.02,953.89c-.38.01-.85-.04-1.28-.25-.51-.25-.82-.93-.75-1.61.9-.41,2.36-1.61,3.65-.7.81.57.06,1.87-.51,2.11l-1.11.45Z"/>
  <path class="st15" d="M828.13,679.22l-.75,1.46c-.23.46-1.79.33-1.88-.38-.12-.94-.35-1.49.72-2.16l1.41-.88c.42-.26,1.08-.16,1.22.28.1.3-.47,1.18-.73,1.68Z"/>
  <path class="st5" d="M631.9,886.09l-1.65-2.72c.91-.4,2.37-.41,3.39-.57.94,2.59-1.4,2.57-1.74,3.28Z"/>
  <circle class="st15" cx="686.29" cy="766.44" r="1.58"/>
  <path class="st15" d="M778.71,714.17c-1.43.08-2.52-.28-2.63-.61-.11-.36,1.47-2.09,3.4-1.54.75.22,1.11,2.05-.77,2.15Z"/>
  <path class="st15" d="M707.17,738.13c.32,2.54-2.66,2.54-2.34,0,.2-1.58,2.14-1.58,2.34,0Z"/>
  <path class="st15" d="M812.94,690.64c.75-1.32,1.88-.6,2.07-.14.23.59.03,1.18-.51,1.51-.39.23-1.74.16-1.55-1.37Z"/>
  <path class="st6" d="M497.06,961.91c-.16.27-.42.86-.71,1.04-.43.26-1.32.01-1.34-.47l-.05-1.47c.79-.09,1.67.16,2.1.9Z"/>
  <path class="st5" d="M678.94,798.64c.75-1.32,1.88-.6,2.07-.14.23.59.03,1.18-.51,1.51-.39.23-1.74.16-1.55-1.37Z"/>
  <circle class="st15" cx="675" cy="782" r="1.11"/>
  <path class="st15" d="M738.94,728.64c.75-1.32,1.88-.6,2.07-.14.23.59.03,1.18-.51,1.51-.39.23-1.74.16-1.55-1.37Z"/>
  <circle class="st15" cx="823" cy="685" r="1.11"/>
  <path class="st6" d="M510.4,958.53l1.6-.49c-.02.73-1.08.81-1.6.49Z"/>
  <path class="st4" d="M451.37,965.58c-5.39-1.48-8.41,3.06-10.54,1.99-.72-.36-.86-1.19-.6-1.94.29-.84.95-1.01,1.81-1.63l10.4-7.43c1.06,3.16-.61,5.73-1.06,9.01Z"/>
  <path class="st4" d="M557.19,952.28c.32-.42,1.66-.43,2.24-.28.4.1.97.71.56,1.47-.49.89-1.09.49-1.49.6-1.01.28-2.03-.81-1.3-1.79Z"/>
  <circle class="st5" cx="513" cy="972" r="1.11"/>
  <path class="st0" d="M646.05,891.06c.32-1.2.91-2.38,1.94-3.15.13,1.27-.63,2.86-1.94,3.15Z"/>
  <circle class="st1" cx="834" cy="478" r="1.11"/>
  <circle class="st11" cx="803" cy="574" r="1.11"/>
  <path class="st4" d="M492.92,932.51c2.03-1.41,1.49.47,1.83.95.46.65.92,1.96-.31,2.35-.58.18-1.42-.17-2.01-.74-.53-.51-.61-1.8.49-2.57Z"/>
  <path class="st4" d="M598.06,895.27c-1.09,1.02-2.19,2.48-3.85,2.57-.58-.68-.1-2.4.53-2.54.84-.19,2.05-.86,3.32-.03Z"/>
  <path class="st4" d="M636.17,847.13c.32,2.54-2.66,2.54-2.34,0,.2-1.58,2.14-1.58,2.34,0Z"/>
  <circle class="st4" cx="582.95" cy="909.12" r="1.19"/>
  <circle class="st3" cx="518" cy="918" r="1.11"/>
  <circle class="st3" cx="539" cy="919" r="1.11"/>
  <polygon class="st3" points="562.66 909.48 563.34 909.48 563.99 909.5 563.34 909.52 562.66 909.52 562.01 909.5 562.66 909.48"/>
  <path class="st2" d="M741.55,692.55c-1.11.94-3.97-2.38-3.19-4.55,1.41-.31,4.62,2.11,3.19,4.55Z"/>
  <circle class="st2" cx="736" cy="695" r="1.11"/>
  <path class="st2" d="M810.17,661.07l1.77,2.69c1.87,2.83.28,5.81-1.01,8.13,2.69,2.82,5.02,7.56,1.69,10.48-.99-1.84-1.55-3.09-2.24-3.3-.91-.27-2.12.42-2.54,1.17.06.33.16.83.94,1.17-.26.15-.26.62-.76.15-.11-.12-.26-.23-.43-.36l-4.7,1.52c-.95-1.7-2.07-1.53-3.16-1.29s-1.25,1.07-.63,1.94c1.9,2.66,3.72,2.73,3.86,4.08.36,3.6-14.9-3-21.05,4.77-1.32,1.67-6.37,1.19-8.29,2.3-6.4,3.71-9.98-2.38-9.52,2.07,1.79.43,2.29.76,2.59,1.86.26.96-.47,2.77-1.57,2.35-5.37-2.04-9.32,0-14.39,1.82-1.39.5-4.46-1.43-6.08,1.36-.39.67-2.22-.46-1.65-1.4.33-.54,3.76-1.38,7.2-7.57l1.47,4.02c2.65-1.1,2.53-3.17,1.74-4.82-.65-1.35-1.99-3.15-4.01-2.59-.98.27-2.07,1.03-2.73.99-2.47-.16-3.09-6.84-11.3-6.98l1.73-4.54c-1.99-1.41-2.96-3.06-3.87-5.34l-3.05,1.89c-.59.37-1.72.25-2.31-.87l5.04-6.15c1.67,3.65,3.78-1.69,12.52.98,1.02.31,4.12-.08,3.48,2.46l-1.92,2.45c-.47.6.54,2.89,1.78,2.34s2.43-1.33,3.62-.96c.79.25,1.11,1.9,1.63,2.89l.95,1.79c.45.85,2.54.98,2.02-.51l-.87-2.5c-.25-.71,1.49-2.03,2.69-1.57l8.35,3.21c.05-1.98-1.2-2.25-2.7-3.63,3.47-1,6.18,1.77,6.86,4.71,1.47-.65,2.45-.55,2.75-.84s-.35-1.48-.86-1.86c-1.36-1.01-.66-2.47.74-2.84,2.1,3.19,4.73,1.52,7.4,1.66,4.65.24,10.56,3.17,14.93-.22,1.87-1.45,2.39-3.09,5.83-3.24,2.09-.09,4.58-2.23,6.95-3.2l-1.55-3.9c-.27-.68.1-1.66-.16-2.03s-1.15-.83-2.51-1.49c1.22-1.31,3.33-2.77,5.31-3.24ZM777.7,685.32c.91-1.93-1.72-3.74-2.36-2.98-.85,1,1.24,3.34,2.36,2.98Z"/>
  <path class="st2" d="M836.09,647.96c.48,1.28,1.43,4.01.08,5.06-1.27.05-3.3-.12-4.03.4-.65.46-1.58,1.86-1.61,2.91-.07,2.82-1.72,3.44-2.88,5.55-1.01,1.82-1.97,6.27-5.66,4.85-1.29-.5-3.14-2.67-5.29-1-.49.38-1.76.29-2.11.08-.57-.33-.82-1.52-.66-2.3,1.86-3.55,7.8-.12,8.14-2.87s-3.6-.02-8.28-1.12c-1.05.5-2.6,1.46-3.62,1.54-.66-.99-1.08-2.3-1.22-5,6.3,3.44,13.86,2.03,20.16-2.17-.26-3.01-.54-5.28.93-8.24,2.5,1.57,4.08,2.54,6.05,2.3Z"/>
  <path class="st12" d="M808.84,515.33c-.09,3.32-4.07,6.29-7.58,6.14l-10.23-.46c-1.2-.05-2.52-.77-3.06-1.47-1.14-1.49.49-3.59-.04-4.94-.38-.98-1.98-.29-2.69.12l-11.85-4.07c-.61-2.67-.39-4.85-.02-7.83-4.33-1.5-6.96-4.94-6.42-9.71l-5.22-3.13c.17-1.19,1.02-3.11.85-4.07-.27-1.48-1.79-2.27-3.1-3.46-3.38-3.05,1.28-10.74-4.05-13.85l3.09-2.65c1.48-1.27-3.52-6.09-2.3-7.15l3.63-3.18c-1.5-.34-2.88-.19-4.47-1.99,3.81-1.22,5.07-3.68,4.55-7.74l3.46.8c.63.15.71-2.72,1.33-3.06,2.61-1.45,5.92.55,7.09,4.03,1.82-5.41,6.78-2.98,7.42-5.18s-4.41-5.24-4.32-9.11c3.16,3.04,10.71,2.54,15.04.6.98,2.2,2.7,3.91,5.37,5.17,2.23,1.05,5.23,5.57,8.31,4.98,3.43-.65,6.43-2.7,8.21-5.43,3.39,2.03,2.13,5.44,1.31,7.94l1.64,3.05c.31.58-.76,1.84-2.1,2.75l2.33,3.45.08,10.94c1.67-.28,2.87-.76,4.11-.17-.5,1.72-.55,3.8-.11,4.67.4.79,2.27,1.04,3.99.95l-.42,13.52-1.79,2.79,1.97,3.79c.52,1-.83,3.94,1.16,4.7.61.23,1.65,0,2.33,0,.74,0,.43.83.41,1.29-.04.8-1.15,1.05-1.79,1.58-2.95,2.48-1.45,6.94-.43,9.73s-2.05,3.63-2.88,4.63c-1.84,2.23-2.93,2.16-5.21,2.32l-4.72.33c-1.1.08-1.12-3.05-2.31-3.81-1.01-.65-1.84.16-2.13.32s1.57,1.36,1.56,1.87ZM804.22,511.77c-1.67-2.24-5.28-3.27-7.19-.64-.71.98.89,3.24,1.79,3.66.23.1,6.95-.19,6.52.21.42-.39.82-2.06.39-2.32l-1.51-.9Z"/>
  <path class="st13" d="M745.91,471.67c-.24,2.21-1.93,2.04-2.87.88-.86-1.08-1.42-1.96-.46-3.4.65-.97,2.3-1.94,3.37-.31.24.37.07,1.8-.04,2.82Z"/>
  <circle class="st12" cx="784" cy="519" r="1.11"/>
  <path class="st6" d="M613.93,936.16l.04,1.8c-.91.27-2.76.31-2.86-.49-.18-1.35-.51-2.98.48-4.66.51,1.73.81,2.65,2.34,3.36Z"/>
  <path class="st14" d="M749.88,609.36c.06,1.86-.89,4.21-1.46,6.16-1.51-1.69-.86-6.96-.68-7.07.44-.3,2.11-.2,2.15.91Z"/>
  <path class="st14" d="M775.26,647.7c-.91.06-2.21-.81-3.87-1.09-.55-.25-.04-2.34.78-2.17.92.19,1.98.33,3.08,3.26Z"/>
  <circle class="st14" cx="743.52" cy="606.38" r="1.47"/>
  <path class="st6" d="M469.25,975.43c-2.42,1.19-7.47,1.88-9-1.21,4.65.75,6.45-2.55,9,1.21Z"/>
  <path class="st6" d="M504.98,979.15c.85-.88,2.55-.31,3.01.41.41.64-.03,2.33-.86,2.87-.48.31-1.2.56-2.22.13-.74-.31-1.61-1.67.07-3.4Z"/>
  <path class="st11" d="M604.46,852.18c.94-.28,1.53.87,1.62,1.54.1.72-.05,2.34-.65,2.51-1.09.3-2.13-.26-2.45-.84-.53-.95-.32-2.67,1.49-3.21Z"/>
  <path class="st13" d="M551.9,877.14c.28,1.15-3.79,1.78-3.94-.23-.08-1.11,3.41-2,3.94.23Z"/>
  <rect class="st3" x="577.15" y="880.15" width=".71" height=".71" transform="translate(-453.46 666.25) rotate(-45)"/>
  <path class="st11" d="M807.79,607.55c-1.52,1.5-2.61,1.46-5.63,1.98.43-1.78,1.44-3.61,3.85-4.28.72-.2,1.48.08,1.75.37.31.34.37,1.59.02,1.93Z"/>
  <path class="st3" d="M782.52,635.03c-.49.41-1.16.04-1.33-.41-.13-.32-.17-.84.46-1.08.48-.18,1.32-.18,1.4.74.16.29.39.52.66.66,1.55.81,2.9,1.67,3.45,4.09-2.62,0-3.53-1.69-3.87-3.4l-.77-.62Z"/>
  <path class="st11" d="M819.72,598.39c.74,1.98-.61,2.4-1.37,2.33-.87-.08-2.12-.12-2.76-2.2l4.13-.13Z"/>
  <circle class="st11" cx="831" cy="582" r="1.11"/>
  <path class="st3" d="M788.94,637.64c.75-1.32,1.88-.6,2.07-.14.23.59.03,1.18-.51,1.51-.39.23-1.74.16-1.55-1.37Z"/>
  <circle class="st3" cx="766" cy="632" r="1.11"/>
  <path class="st2" d="M867.06,645.2c-3.38-.81-1.33-3.87-1.16-6.21.21-2.87-1.63-5.13.7-8.5-10.5-2.42-14.46,10.74-16.26,11.17-.69.16-2.16-.24-3.35-.53-2.12,3.5-6.13,5.35-9.98,4.58-1.28-1.35-4.07-3.96-2.04-6.03.57.42,1.32,2.46,2.48,2.39,2.02-.13,3.42-3.11,7.12-5.54l.61-6.36c1.84-.66,3.52-.5,5.5-2.34l-4.55-2.06c2.86-1.35,5.42-.32,7.88-.18,3.34.2,3.06-4.56,4.41-5.81,1.59-1.47,4.19-1.6,5.5-4.61l4.16,6.76c2.45,7.64.86,15.97-1.02,23.26Z"/>
  <path class="st2" d="M867,647.92v2.09c-.48-.04-1.07.1-1.49-.03-.53-.17-.85-.93-.52-1.46.4-.63,1.24-.78,2.01-.6Z"/>
  <path class="st5" d="M596.06,282.01c-3.91-.21-6.05-2.92-7.42-5.48,2.53-1.17,4.52-.86,5.79.49.98,1.04,2.17,2.94,1.63,4.99Z"/>
  <path class="st14" d="M717.73,377.68c1.03.78-1.17,4.18-2.77,4.09s-1.15-1.9-.69-2.94c.5-1.16,1.81-2.32,3.46-1.16Z"/>
  <path class="st14" d="M732.17,373.13c.32,2.54-2.66,2.54-2.34,0,.2-1.58,2.14-1.58,2.34,0Z"/>
  <path class="st10" d="M729.77,880.46c-.32.91-2.57.99-3.12.6-.71-.49-1.85-1.76-1.39-3.29,1.13-1.45,5.19.76,4.51,2.68Z"/>
  <path class="st4" d="M468.65,195.02c-2.38-.08-4.03-2.58-4.12-5.01,1.38-.19,2.92-.33,3.54,1.37.34.94.55,2.38.58,3.64Z"/>
  <path class="st13" d="M585.94,829.95c.08-1.17,1.21-3.53,2.26-3.65,2.13-.24,1.83,1.88,1.26,2.23-.78.47-2.13,2-3.52,1.42Z"/>
  <path class="st13" d="M573.24,849.14c-1.51.7-2.3.91-2.73.85-.47-.07-.89-1.09-.51-1.51.29-.32,1.15-.44,2.02-.99,1.45-1.66,3.15.77,1.23,1.65Z"/>
  <circle class="st13" cx="592.13" cy="816.05" r=".9"/>
  <path class="st9" d="M777.7,685.32c-1.12.36-3.22-1.98-2.36-2.98.64-.76,3.28,1.05,2.36,2.98Z"/>
  <polygon class="st9" points="675.5 701.96 676 702.5 675.5 703 675 702.5 675.5 701.96"/>
  <path class="st4" d="M789.94,735.64c.75-1.32,1.88-.6,2.07-.14.23.59.03,1.18-.51,1.51-.39.23-1.74.16-1.55-1.37Z"/>
  <circle class="st6" cx="510" cy="966" r="1.11"/>
  <path class="st4" d="M645.06,870.59c.28.41-1.61,4.47-3.45,4.16-.66-.11-.98-1.89-1.02-2.52-.05-.85-.05-1.64,1.85-1.84.6-.06,2.13-.52,2.61.2Z"/>
  <path class="st1" d="M804.22,511.77l1.51.9c.44.26.03,1.93-.39,2.32.43-.4-6.29-.1-6.52-.21-.91-.41-2.51-2.68-1.79-3.66,1.92-2.63,5.53-1.59,7.19.64Z"/>
</svg>
