<?xml version="1.0" encoding="utf-8"?>
<!-- Generator: Adobe Illustrator 19.2.1, SVG Export Plug-In . SVG Version: 6.00 Build 0)  -->
<svg version="1.1" id="layer" xmlns="http://www.w3.org/2000/svg" xmlns:xlink="http://www.w3.org/1999/xlink" x="0px" y="0px"
	 viewBox="0 0 652 652" style="enable-background:new 0 0 652 652;" xml:space="preserve">
<path d="M621,298.1v-7.8h-32.9v60.4H621V343h-24.2v-18.7h21.7v-7.8h-21.7v-18.4H621z M124.2,337.1l-20.9-46.7h-8.6v60.3h8.7v-39.4
	l17.7,39.4h6.1l17.7-39.6v39.6h8.8v-60.3h-8.6L124.2,337.1z M272.8,290.4h-8.8v60.3h29.3V343h-20.6V290.4z M331,290.4h-8.8v60.3
	h29.3V343H331V290.4z M406.6,290.4H398L376.4,349l-0.6,1.8h9.2l3.8-10.1c1-2.5,2.6-4.7,4.6-6.4c2-1.7,4.4-2.9,7-3.5
	c1.8-0.4,6.8-1.8,10.2-4.6l0.9,2.4l1.9,5.1l2.8,7.7l3.5,9.4h9.2L406.6,290.4z M398.3,323.1c-1.3,0.3-2.5,0.7-3.6,1.3l7.6-20.9
	l5,13.7C407.1,321.3,401.8,322.3,398.3,323.1z M213.3,290.4h-8.6L183.1,349l-0.6,1.8h9.2l3.8-10.1c1-2.5,2.6-4.7,4.6-6.4
	c2-1.7,4.4-2.9,7-3.5c1.8-0.4,6.8-1.8,10.2-4.6l0.9,2.4l1.9,5.1l2.8,7.7l3.5,9.4h9.2L213.3,290.4z M205,323.1
	c-1.3,0.3-2.5,0.7-3.6,1.3l7.6-20.9l5,13.7C213.8,321.3,208.5,322.3,205,323.1z M538.7,290.5h-8.7v60.3h29.3v-7.7h-20.6V290.5z
	 M64.9,327.5c-0.9-2-2.3-3.7-4-5.1c-1.7-1.4-3.7-2.6-5.8-3.4c-2.1-0.9-4.3-1.6-6.5-2.3c-2.2-0.7-4.4-1.3-6.5-1.9
	c-1.9-0.5-3.8-1.2-5.5-2.1c-1.4-0.6-2.6-1.6-3.6-2.7c-0.8-1.1-1.2-2.4-1.1-3.8c0-6.3,6.5-7.7,7.9-7.9c7.5-1.2,14,5.8,14,5.8l5.7-5.1
	c-2.9-4.2-13.5-10-22.1-8.2c-2.5,0.5-4.8,1.4-7,2.6c-2.1,1.3-3.9,3-5.2,5c-1.4,2.3-2.2,4.9-2.4,7.6c-0.2,2.4,0.2,4.8,1.2,6.9
	c0.5,1,3.1,5,9.4,7.7c4.2,1.8,8,2.5,15.5,4.9c4.1,1.3,6.3,3.1,7.4,4.9c0.9,1.5,1.2,3.3,0.8,5.1c-0.9,3.6-3.9,6.1-7.9,7.2
	c-13.7,3.6-22.1-8.7-22.1-8.7l-6.2,5.2c0,0,9.5,14.1,29.1,11.2c2.6-0.4,5.2-1.2,7.5-2.5c2.3-1.2,4.2-3,5.8-5.1
	c1.5-2.3,2.4-4.8,2.6-7.5C66.3,332.7,65.9,330,64.9,327.5L64.9,327.5z M492.9,320.9c-1.6-1.7-5.3-4.7-8.3-5.4
	c0.8-0.3,6.3-4.1,6.3-12.3c0-4.7-5-12.7-16.8-12.7h-17.3v60.3h18C494.7,350.8,503.4,332.1,492.9,320.9z M474.4,298.3
	c11.6,0,9.1,9.7,6.6,11.5c-3.4,2.5-5.7,2.3-10.3,2.8c-1.9,0.2-3.7,0.9-5.1,2.2v-16.5L474.4,298.3z M475,343h-9.4v-20.2
	c2.2-1.9,7-4.3,15-1.7c4,1.3,7.3,4.7,8.2,6.9C491.2,334.2,487.3,342.9,475,343L475,343z"/>
</svg>
